<svg width="102" height="94" viewBox="0 0 102 94" fill="none" xmlns="http://www.w3.org/2000/svg">
<path d="M98.7984 38.5764C102.409 43.0006 89.5311 43.358 89.0998 51.701C88.6808 60.0564 83.2831 68.5104 76.5051 68.1653C71.2553 67.9065 69.7272 73.8834 69.2958 76.5946C69.1726 77.3833 69.1479 77.8886 69.1479 77.8886C69.1479 77.8886 68.7413 77.4819 68.1497 76.7795C65.9068 74.0929 60.9528 66.9576 64.4773 60.0564C68.9384 51.319 74.4594 53.6358 77.5403 47.8438C80.6212 42.064 95.1876 34.1523 98.7984 38.5764Z" fill="#C5E6DD"/>
<path d="M89.4568 42.0879C87.9164 43.0491 86.5238 44.2322 85.2791 45.5262C84.0345 46.8325 82.9377 48.2866 82.1366 49.901C81.73 50.7021 81.3972 51.5401 81.1631 52.4027C81.1138 52.6245 81.0398 52.834 81.0029 53.0559L80.8673 53.7213C80.7687 54.1773 80.5962 54.6333 80.3744 55.04C79.9184 55.878 79.2529 56.5558 78.5505 57.1473C77.8357 57.7388 77.084 58.2564 76.3199 58.7493C74.7918 59.7352 73.239 60.6718 71.8834 61.8179C70.5278 62.9517 69.3694 64.3319 68.7163 65.934C68.0508 67.5361 67.8906 69.3106 68.0385 71.0606C68.1864 72.8105 68.63 74.5482 69.1846 76.2365L69.3078 76.6062C69.1846 77.3949 69.1599 77.9002 69.1599 77.9002C69.1599 77.9002 68.7532 77.4935 68.1617 76.791L68.1001 76.5939C67.5579 74.8316 67.1389 73.0077 67.0403 71.1469C66.991 70.2103 67.0156 69.2737 67.1512 68.3371C67.2867 67.4005 67.5455 66.4885 67.9276 65.6136C68.3096 64.7509 68.8149 63.9376 69.4187 63.2105C70.0226 62.4834 70.7004 61.8426 71.4275 61.2757C72.8816 60.1173 74.4714 59.2176 76.0118 58.281C76.7759 57.8128 77.54 57.3198 78.2301 56.7776C78.9202 56.223 79.561 55.5945 79.9923 54.8428C80.2142 54.4731 80.3744 54.0664 80.473 53.6351L80.6332 52.9696C80.6825 52.7478 80.7564 52.5259 80.818 52.3041C81.0891 51.4291 81.4465 50.5788 81.8778 49.7778C82.7405 48.1634 83.8866 46.7216 85.1806 45.4399C86.4745 44.1583 87.9041 43.0122 89.4568 42.0879Z" fill="white"/>
<path d="M96.346 60.0303C99.1804 63.5179 89.0505 63.789 88.7177 70.3574C88.385 76.9259 84.1457 83.5806 78.8096 83.3095C74.6812 83.1 73.4735 87.8076 73.1407 89.9396C73.0422 90.5557 73.0175 90.9624 73.0175 90.9624C73.0175 90.9624 72.6971 90.642 72.2411 90.0875C70.4789 87.9801 66.5846 82.3729 69.3574 76.9382C72.8696 70.0617 77.2075 71.8856 79.6229 67.3382C82.0507 62.7661 93.5116 56.555 96.346 60.0303Z" fill="#BAD3CA"/>
<path d="M89.0014 62.79C87.7937 63.5541 86.6969 64.4784 85.711 65.5012C84.7375 66.5241 83.8748 67.6702 83.234 68.9395C82.9136 69.568 82.6548 70.2335 82.4699 70.9113C82.4329 71.0838 82.3713 71.244 82.3467 71.4165L82.2358 71.9341C82.1618 72.2915 82.0263 72.6489 81.8414 72.9693C81.484 73.6224 80.9664 74.1647 80.4119 74.633C79.8573 75.1013 79.2535 75.508 78.6496 75.89C77.4542 76.6664 76.2342 77.3935 75.162 78.2931C74.0899 79.1804 73.1903 80.2649 72.6727 81.5342C72.1551 82.7912 72.0195 84.1961 72.1428 85.564C72.2537 86.9442 72.5987 88.2998 73.0424 89.6308L73.141 89.9265C73.0424 90.5427 73.0177 90.9494 73.0177 90.9494C73.0177 90.9494 72.6973 90.629 72.2414 90.0744L72.2044 89.9142C71.7854 88.534 71.4527 87.0921 71.3664 85.6256C71.3294 84.8862 71.3417 84.1468 71.4527 83.4197C71.5636 82.6926 71.7607 81.9655 72.0565 81.2754C72.3523 80.5976 72.759 79.9568 73.2272 79.3899C73.6955 78.823 74.2378 78.3177 74.8047 77.8618C75.9384 76.9498 77.2078 76.2474 78.4155 75.508C79.0193 75.1382 79.6108 74.7562 80.1654 74.3249C80.7076 73.8936 81.2129 73.4006 81.558 72.8091C81.7305 72.5133 81.8537 72.1929 81.94 71.8602L82.0632 71.3426C82.1002 71.1701 82.1618 70.9975 82.2111 70.825C82.4206 70.1349 82.7041 69.4694 83.0491 68.8286C83.7269 67.5593 84.6265 66.4255 85.6371 65.415C86.6599 64.4168 87.7814 63.5171 89.0014 62.79Z" fill="white"/>
<path d="M17.5863 60.0303C14.7519 63.5179 24.8818 63.789 25.2146 70.3574C25.5473 76.9259 29.7866 83.5806 35.1227 83.3095C39.2511 83.1 40.4588 87.8076 40.7915 89.9396C40.8901 90.5557 40.9148 90.9624 40.9148 90.9624C40.9148 90.9624 41.2352 90.642 41.6912 90.0875C43.4534 87.9801 47.3477 82.3729 44.5749 76.9382C41.0627 70.0617 36.7248 71.8856 34.3093 67.3382C31.8816 62.7661 20.4207 56.555 17.5863 60.0303Z" fill="#BAD3CA"/>
<path d="M24.9312 62.79C26.1389 63.5541 27.2357 64.4784 28.2215 65.5012C29.1951 66.5241 30.0578 67.6702 30.6986 68.9395C31.019 69.568 31.2778 70.2335 31.4626 70.9113C31.4996 71.0838 31.5612 71.244 31.5859 71.4165L31.6968 71.9341C31.7707 72.2915 31.9063 72.6489 32.0911 72.9693C32.4485 73.6224 32.9661 74.1647 33.5207 74.633C34.0752 75.1013 34.6791 75.508 35.2829 75.89C36.4783 76.6664 37.6984 77.3935 38.7705 78.2931C39.8427 79.1804 40.7423 80.2649 41.2599 81.5342C41.7775 82.7912 41.913 84.1961 41.7898 85.564C41.6789 86.9442 41.3338 88.2998 40.8902 89.6308L40.7916 89.9265C40.8902 90.5427 40.9148 90.9494 40.9148 90.9494C40.9148 90.9494 41.2352 90.629 41.6912 90.0744L41.7405 89.9142C42.1595 88.534 42.4922 87.0921 42.5785 85.6256C42.6155 84.8862 42.6031 84.1468 42.4922 83.4197C42.3813 82.6926 42.1841 81.9655 41.8884 81.2754C41.5926 80.5976 41.1859 79.9568 40.7176 79.3899C40.2493 78.823 39.7071 78.3177 39.1402 77.8618C38.0065 76.9498 36.7371 76.2474 35.5294 75.508C34.9256 75.1382 34.334 74.7562 33.7795 74.3249C33.2372 73.8936 32.732 73.4006 32.3869 72.8091C32.2144 72.5133 32.0788 72.1929 32.0049 71.8602L31.8816 71.3426C31.8447 71.1701 31.7831 70.9975 31.7338 70.825C31.5243 70.1349 31.2408 69.4694 30.8958 68.8286C30.218 67.5593 29.3183 66.4255 28.3078 65.415C27.285 64.4168 26.1635 63.5171 24.9312 62.79Z" fill="white"/>
<path d="M15.1342 38.5764C11.5234 43.0006 24.4015 43.358 24.8328 51.701C25.2518 60.0564 30.6496 68.5104 37.4275 68.1653C42.6773 67.9065 44.2055 73.8834 44.6368 76.5946C44.76 77.3833 44.7847 77.8886 44.7847 77.8886C44.7847 77.8886 45.1914 77.4819 45.7829 76.7795C48.0258 74.0929 52.9798 66.9576 49.4553 60.0564C44.9942 51.319 39.4732 53.6358 36.3923 47.8438C33.3114 42.064 18.745 34.1523 15.1342 38.5764Z" fill="#C5E6DD"/>
<path d="M24.4756 42.0879C26.0037 43.0491 27.4086 44.2322 28.6533 45.5262C29.898 46.8325 30.9948 48.2866 31.7958 49.901C32.2025 50.7021 32.5352 51.5401 32.7693 52.4027C32.8186 52.6245 32.8926 52.834 32.9295 53.0559L33.0651 53.7213C33.1637 54.1773 33.3362 54.6333 33.5581 55.04C34.014 55.878 34.6795 56.5558 35.3819 57.1473C36.0967 57.7388 36.8484 58.2564 37.6125 58.7493C39.1406 59.7352 40.6934 60.6718 42.049 61.8179C43.4046 62.9517 44.563 64.3319 45.2161 65.934C45.8816 67.5361 46.0418 69.3106 45.8939 71.0606C45.7461 72.8105 45.3024 74.5482 44.7478 76.2365L44.6246 76.6062C44.7478 77.3949 44.7725 77.9002 44.7725 77.9002C44.7725 77.9002 45.1792 77.4935 45.7707 76.791L45.8323 76.5939C46.3746 74.8316 46.7936 73.0077 46.8921 71.1469C46.9414 70.2103 46.9168 69.2737 46.7812 68.3371C46.6457 67.4005 46.3869 66.4885 46.0048 65.6136C45.6228 64.7509 45.1175 63.9376 44.5137 63.2105C43.9098 62.4834 43.232 61.8426 42.505 61.2757C41.0508 60.1173 39.461 59.2176 37.9206 58.281C37.1565 57.8128 36.3925 57.3198 35.7023 56.7776C35.0122 56.223 34.3714 55.5945 33.9401 54.8428C33.7183 54.4731 33.5581 54.0664 33.4595 53.6351L33.2993 52.9696C33.25 52.7478 33.176 52.5259 33.1144 52.3041C32.8433 51.4291 32.4859 50.5788 32.0546 49.7778C31.1919 48.1634 30.0458 46.7216 28.7519 45.4399C27.4702 44.1583 26.0407 43.0122 24.4756 42.0879Z" fill="white"/>
<path d="M76.8874 22.5537H37.2178C35.6281 22.5537 34.3464 23.8477 34.3464 25.4251V88.7559C34.3464 90.3456 35.6404 91.6273 37.2178 91.6273H76.8874C77.7377 91.6273 78.5387 91.2576 79.0933 90.6044C79.5246 90.0868 79.7711 89.4337 79.7711 88.7559V25.4251C79.7711 23.8477 78.4771 22.5537 76.8874 22.5537ZM77.8609 88.7559C77.8609 89.0516 77.7377 89.2612 77.6268 89.3844C77.4419 89.6062 77.1708 89.7294 76.8874 89.7294H37.2178C36.6756 89.7294 36.2443 89.2981 36.2443 88.7559V25.4251C36.2443 24.8829 36.6756 24.4515 37.2178 24.4515H76.8874C77.4296 24.4515 77.8609 24.8829 77.8609 25.4251V88.7559Z" fill="#4D4D4F"/>
<path d="M77.8606 25.4257V88.7565C77.8606 89.0523 77.7373 89.2618 77.6264 89.385C77.4416 89.6068 77.1704 89.73 76.887 89.73H37.2175C36.6752 89.73 36.2439 89.2987 36.2439 88.7565V25.4257C36.2439 24.8835 36.6752 24.4521 37.2175 24.4521H76.887C77.4292 24.4521 77.8606 24.8958 77.8606 25.4257Z" fill="white"/>
<path d="M66.0177 27.4824H42.7632V30.2059H66.0177V27.4824Z" fill="#D1D1D1"/>
<path d="M47.7419 38.9943H42.7632V34.0156H47.7419V38.9943ZM43.4779 38.2919H47.0395V34.7304H43.4779V38.2919Z" fill="#D1D1D1"/>
<path d="M72.6972 35.0732H50.2929C50.0958 35.0732 49.9355 34.913 49.9355 34.7158C49.9355 34.5186 50.0958 34.3584 50.2929 34.3584H72.6972C72.8943 34.3584 73.0546 34.5186 73.0546 34.7158C73.0546 34.913 72.8943 35.0732 72.6972 35.0732Z" fill="#D1D1D1"/>
<path d="M72.6974 36.8388H50.2932C50.096 36.8388 49.9358 36.6786 49.9358 36.4814C49.9358 36.2842 50.096 36.124 50.2932 36.124H72.6974C72.8946 36.124 73.0548 36.2842 73.0548 36.4814C73.0548 36.6909 72.8946 36.8388 72.6974 36.8388Z" fill="#D1D1D1"/>
<path d="M62.0864 38.6103H50.2805C50.0833 38.6103 49.9231 38.4501 49.9231 38.2529C49.9231 38.0557 50.0833 37.8955 50.2805 37.8955H62.0864C62.2836 37.8955 62.4438 38.0557 62.4438 38.2529C62.4438 38.4501 62.2836 38.6103 62.0864 38.6103Z" fill="#D1D1D1"/>
<path d="M50.6876 39.2038C50.6506 39.2038 50.6136 39.1915 50.5767 39.1668C50.4781 39.1052 50.4534 38.9696 50.515 38.8711L56.8863 29.0122C56.9479 28.9136 57.0835 28.889 57.1821 28.9506C57.2807 29.0122 57.3053 29.1478 57.2437 29.2464L50.8724 39.1052C50.8231 39.1668 50.7492 39.2038 50.6876 39.2038Z" fill="#2F2E5C"/>
<path d="M48.7153 40.3624C48.7153 40.3624 49.9107 36.9611 51.3649 38.3413C52.856 39.7462 49.541 42.1863 49.541 42.1863L48.7153 40.3624Z" fill="#F9B07C"/>
<path d="M15.3311 68.1653C15.405 68.153 15.4543 68.1406 15.4543 68.1406C15.4543 68.1406 15.3311 68.2146 15.3311 68.1653Z" fill="#7762A9"/>
<path d="M47.7419 47.4475H42.7632V42.4688H47.7419V47.4475ZM43.4779 46.745H47.0395V43.1835H43.4779V46.745Z" fill="#D1D1D1"/>
<path d="M72.6974 43.5282H50.2932C50.096 43.5282 49.9358 43.368 49.9358 43.1709C49.9358 42.9737 50.096 42.8135 50.2932 42.8135H72.6974C72.8946 42.8135 73.0548 42.9737 73.0548 43.1709C73.0548 43.368 72.8946 43.5282 72.6974 43.5282Z" fill="#D1D1D1"/>
<path d="M72.6974 45.2909H50.2932C50.096 45.2909 49.9358 45.1307 49.9358 44.9336C49.9358 44.7364 50.096 44.5762 50.2932 44.5762H72.6974C72.8946 44.5762 73.0548 44.7364 73.0548 44.9336C73.0548 45.1307 72.8946 45.2909 72.6974 45.2909Z" fill="#D1D1D1"/>
<path d="M62.0867 47.0654H50.2807C50.0835 47.0654 49.9233 46.9051 49.9233 46.708C49.9233 46.5108 50.0835 46.3506 50.2807 46.3506H62.0867C62.2839 46.3506 62.4441 46.5108 62.4441 46.708C62.4441 46.9051 62.2839 47.0654 62.0867 47.0654Z" fill="#D1D1D1"/>
<path d="M50.8599 41.3847C50.8599 41.3847 47.0642 48.3351 46.0907 49.4812C45.1171 50.6273 38.2775 52.3157 38.2775 52.3157L37.9325 51.7611L35.9607 48.5816L43.5397 46.6838L48.7033 40.0537C48.7033 40.0537 50.1821 40.0537 50.8599 41.3847Z" fill="#F4F4F4"/>
<path d="M27.7041 88.2022L28.9488 88.042L30.1319 89.1758C30.1319 89.1758 31.7955 90.1616 32.2638 91.0613C32.4857 91.5049 32.1899 92.1088 32.1899 92.1088L26.6689 90.2109C26.6689 90.2109 27.1619 88.7075 27.7041 88.2022Z" fill="black"/>
<path d="M35.7756 89.4344L36.9094 88.8799L38.3882 89.57C38.3882 89.57 40.286 89.9644 41.0131 90.6668C41.3705 91.0119 41.2842 91.6897 41.2842 91.6897L35.4429 91.6773C35.4552 91.6773 35.4429 90.0999 35.7756 89.4344Z" fill="black"/>
<path d="M39.4606 77.7406C39.4483 77.7776 39.4483 77.8146 39.436 77.8515C39.4113 77.9994 39.3744 78.1843 39.3374 78.4061C38.9061 81.2405 38.3638 89.3124 38.3638 89.3124C38.3638 89.3124 37.4396 90.1135 35.5171 89.3864L35.7019 79.1948L35.7512 76.6315L35.5294 74.8323L34.4326 65.91L34.6051 65.6758L36.7371 62.8168L36.922 62.5703L39.6578 64.5051C39.6578 64.5051 39.6578 64.7146 39.6701 65.0597C39.6701 65.2076 39.6825 65.3801 39.6825 65.5773C39.7194 68.4363 39.818 76.2125 39.4606 77.7406Z" fill="#161515"/>
<path d="M38.5732 65.662C38.5732 65.662 38.1419 67.2025 37.5504 69.2112C36.9711 71.1953 36.2317 73.623 35.6032 75.5086C35.4923 75.8536 35.3814 76.174 35.2705 76.4821C35.1966 76.7039 35.1226 76.9011 35.0487 77.086C35.024 77.1599 34.9994 77.2215 34.9747 77.2831C34.9131 77.4434 34.8515 77.5789 34.8022 77.7145C34.7036 77.9609 34.6173 78.1458 34.5311 78.2814C34.3955 78.5155 34.2107 78.8975 33.9888 79.3782C33.9396 79.5014 33.8779 79.6246 33.8163 79.7479C32.4484 82.8411 30.1192 89.0275 30.1192 89.0275C30.1192 89.0275 28.5049 89.5697 27.3711 88.2758L29.9714 80.2531L30.0207 80.1052L30.7354 77.8993L31.3023 76.1494L31.327 76.0385L33.1632 65.5141L34.8022 64.3064L36.5152 63.0371L36.5398 63.0618L37.5504 64.3557L38.5732 65.662Z" fill="#282828"/>
<path d="M40.1753 65.4904C40.1753 65.4904 39.9904 65.515 39.67 65.552C39.6207 65.552 39.5837 65.5643 39.5344 65.5643C38.9799 65.6259 38.1172 65.6999 37.0821 65.7122C37.0081 65.7122 36.9342 65.7122 36.8602 65.7122C36.1701 65.7245 35.4184 65.6999 34.6173 65.6383C34.1491 65.6013 33.6684 65.552 33.1878 65.4781L31.9924 50.8253L33.2741 48.6317L34.8638 48.4346L35.6772 48.5208L35.9729 48.5578L37.0204 49.5067L38.5979 50.9363L39.3126 57.5047L39.707 61.0662L40.1753 65.4904Z" fill="#00A9B8"/>
<path d="M46.0908 49.4826C45.1172 50.6287 38.2776 52.317 38.2776 52.317L37.9326 51.7625L37.5505 49.1006C40.7423 51.0231 45.9922 49.5073 46.0908 49.4826Z" fill="#E0E0E0"/>
<path d="M28.6527 66.489C28.6527 66.489 29.7865 69.6069 28.0981 69.7671C26.3852 69.9273 27.1123 65.8975 27.1123 65.8975L28.6527 66.489Z" fill="#F9B07C"/>
<path d="M32.5963 52.2674C32.5963 52.2674 32.3622 52.6247 32.0294 53.167C31.2407 54.424 29.8728 56.6422 29.3922 57.6528L29.0718 66.8954C29.0718 66.8954 27.8764 67.3391 26.7673 66.8954C26.7673 66.8954 25.7567 59.1809 26.0155 57.4433C26.6933 52.8959 30.3041 49.3467 30.3041 49.3467L32.5963 52.2674Z" fill="white"/>
<path opacity="0.5" d="M35.0607 77.0856C35.0361 77.1595 35.0114 77.2211 34.9868 77.2828C34.9251 77.443 34.8635 77.5785 34.8142 77.7141C34.7156 77.9606 34.6294 78.1454 34.5431 78.281C34.4076 78.5151 34.2227 78.8971 34.0009 79.3778C33.1382 79.7105 31.8196 79.8707 29.9834 80.2527L30.0327 80.1049L30.7475 77.8989L31.3143 76.149L31.339 76.0381L35.0607 77.0856Z" fill="#873A78"/>
<path d="M42.147 75.6326L39.4974 76.1379C39.4974 76.1379 38.8443 53.1668 35.9729 48.5947C36.9958 48.7549 38.376 49.2602 39.2879 50.776C40.8654 53.4256 42.147 75.6326 42.147 75.6326Z" fill="#F4F4F4"/>
<path d="M32.0172 53.1661C31.2285 54.4231 29.8606 56.6413 29.38 57.6519L29.0596 66.8945C29.0596 66.8945 28.7761 59.9071 28.6899 57.3931C28.5913 54.8914 29.9715 52.1309 29.9715 52.1309L31.7584 51.4531C31.7461 51.4531 31.8817 52.2418 32.0172 53.1661Z" fill="#EFEFEF"/>
<path d="M35.2951 77.1593C35.2951 77.1593 32.8181 78.4533 28.6897 77.6399C28.6897 77.6399 29.158 74.596 29.5647 70.7634C29.7126 69.3585 29.8604 67.8427 29.959 66.3392C30.0699 64.8481 30.1439 63.3569 30.1562 61.9767C30.1562 61.6932 30.1562 61.3975 30.1562 61.114V61.1017C30.1562 59.7215 30.1316 58.3905 30.0946 57.1582C30.0946 57.1458 30.0946 57.1458 30.0946 57.1335C29.9713 52.8203 29.7618 49.5545 30.4027 49.2218C31.4009 48.6919 33.2741 48.6426 33.2741 48.6426C33.2741 48.6426 34.1244 53.19 34.7406 63.0365C34.9747 66.9184 35.1842 71.6014 35.2951 77.1593Z" fill="white"/>
<path d="M33.262 48.6558L33.1758 46.302L34.1493 46.2897L35.1106 46.2773L35.6651 48.6065L35.6775 48.6681C35.6775 48.6558 36.2936 51.3423 33.262 48.6558Z" fill="#F9B07C"/>
<path d="M35.6652 48.5942C33.2744 48.5326 33.2004 46.4622 33.2004 46.4622L34.1494 46.2897L35.1106 46.2773L35.6652 48.5942Z" fill="#F4A876"/>
<path d="M35.258 47.1514C32.5221 47.6074 32.6454 44.28 32.6454 44.28L32.7563 43.1709L32.8056 42.678L32.9288 42.1974L32.9781 42.0248L33.3232 42.0002L35.2826 41.877L35.9604 42.7273C35.9604 42.7273 36.059 42.9121 36.1699 43.1956C36.6136 44.28 37.4146 46.7941 35.258 47.1514Z" fill="#F9B07C"/>
<path d="M47.7419 55.9016H42.7632V50.9229H47.7419V55.9016ZM43.4779 55.1991H47.0395V51.6376H43.4779V55.1991Z" fill="#D1D1D1"/>
<path d="M72.6974 51.9814H50.2932C50.096 51.9814 49.9358 51.8212 49.9358 51.624C49.9358 51.4268 50.096 51.2666 50.2932 51.2666H72.6974C72.8946 51.2666 73.0548 51.4268 73.0548 51.624C73.0548 51.8212 72.8946 51.9814 72.6974 51.9814Z" fill="#D1D1D1"/>
<path d="M72.6974 53.745H50.2932C50.096 53.745 49.9358 53.5848 49.9358 53.3877C49.9358 53.1905 50.096 53.0303 50.2932 53.0303H72.6974C72.8946 53.0303 73.0548 53.1905 73.0548 53.3877C73.0548 53.5972 72.8946 53.745 72.6974 53.745Z" fill="#D1D1D1"/>
<path d="M62.0867 55.5175H50.2807C50.0835 55.5175 49.9233 55.3573 49.9233 55.1601C49.9233 54.9629 50.0835 54.8027 50.2807 54.8027H62.0867C62.2839 54.8027 62.4441 54.9629 62.4441 55.1601C62.4441 55.3573 62.2839 55.5175 62.0867 55.5175Z" fill="#D1D1D1"/>
<path d="M47.7419 64.3557H42.7632V59.377H47.7419V64.3557ZM43.4779 63.6532H47.0395V60.0917H43.4779V63.6532Z" fill="#D1D1D1"/>
<path d="M72.6974 60.4364H50.2932C50.096 60.4364 49.9358 60.2762 49.9358 60.0791C49.9358 59.8819 50.096 59.7217 50.2932 59.7217H72.6974C72.8946 59.7217 73.0548 59.8819 73.0548 60.0791C73.0548 60.2762 72.8946 60.4364 72.6974 60.4364Z" fill="#D1D1D1"/>
<path d="M72.6974 62.2099H50.2932C50.096 62.2099 49.9358 62.0497 49.9358 61.8525C49.9358 61.6553 50.096 61.4951 50.2932 61.4951H72.6974C72.8946 61.4951 73.0548 61.6553 73.0548 61.8525C73.0548 62.0497 72.8946 62.2099 72.6974 62.2099Z" fill="#D1D1D1"/>
<path d="M62.0867 63.9736H50.2807C50.0835 63.9736 49.9233 63.8133 49.9233 63.6162C49.9233 63.419 50.0835 63.2588 50.2807 63.2588H62.0867C62.2839 63.2588 62.4441 63.419 62.4441 63.6162C62.4441 63.8133 62.2839 63.9736 62.0867 63.9736Z" fill="#D1D1D1"/>
<path d="M47.7419 72.8108H42.7632V67.832H47.7419V72.8108ZM43.4779 72.1083H47.0395V68.5468H43.4779V72.1083Z" fill="#D1D1D1"/>
<path d="M72.6974 68.8906H50.2932C50.096 68.8906 49.9358 68.7303 49.9358 68.5332C49.9358 68.336 50.096 68.1758 50.2932 68.1758H72.6974C72.8946 68.1758 73.0548 68.336 73.0548 68.5332C73.0548 68.7303 72.8946 68.8906 72.6974 68.8906Z" fill="#D1D1D1"/>
<path d="M72.6974 70.664H50.2932C50.096 70.664 49.9358 70.5038 49.9358 70.3066C49.9358 70.1094 50.096 69.9492 50.2932 69.9492H72.6974C72.8946 69.9492 73.0548 70.1094 73.0548 70.3066C73.0548 70.5038 72.8946 70.664 72.6974 70.664Z" fill="#D1D1D1"/>
<path d="M62.0867 72.4267H50.2807C50.0835 72.4267 49.9233 72.2665 49.9233 72.0693C49.9233 71.8721 50.0835 71.7119 50.2807 71.7119H62.0867C62.2839 71.7119 62.4441 71.8721 62.4441 72.0693C62.4441 72.2665 62.2839 72.4267 62.0867 72.4267Z" fill="#D1D1D1"/>
<path d="M33.4836 43.3576C33.4836 43.3576 34.9008 43.2097 35.899 42.8276C36.8849 42.4456 36.4659 40.671 35.1966 40.4738C33.9149 40.2767 31.253 40.9545 31.0928 41.8171C30.7847 43.5547 32.3498 45.8962 33.2001 46.4508C33.2001 46.4631 33.5945 45.4033 33.4836 43.3576Z" fill="black"/>
<path d="M33.3199 45.2377C33.6162 45.1943 33.8213 44.9189 33.7779 44.6226C33.7345 44.3262 33.4591 44.1212 33.1628 44.1646C32.8664 44.208 32.6614 44.4834 32.7048 44.7797C32.7482 45.076 33.0236 45.2811 33.3199 45.2377Z" fill="#F9B07C"/>
<path d="M44.9444 63.1979L43.6011 61.5342C43.4779 61.374 43.5025 61.1398 43.6627 61.0166C43.823 60.8934 44.0571 60.918 44.1803 61.0782L44.9814 62.0764L48.432 58.3917C48.5675 58.2438 48.8017 58.2315 48.9619 58.3794C49.1098 58.5149 49.1221 58.7491 48.9742 58.9093L44.9444 63.1979Z" fill="#00A9B8"/>
<path d="M69.7765 78.9961H42.603V85.5399H69.7765V78.9961Z" fill="#D1D1D1"/>
<path d="M96.1113 57.6279V88.3136C96.1113 88.5108 96.099 88.6956 96.062 88.8928C95.9141 89.7431 95.4458 90.4825 94.7804 90.9755C94.2258 91.3822 93.548 91.6286 92.8086 91.6286H84.1944C82.3582 91.6286 80.8794 90.1498 80.8794 88.3136V57.6279H96.1113Z" fill="#00A9B8"/>
<path d="M97.8618 53.7461H79.1177V57.628H97.8618V53.7461Z" fill="#C5E6DD"/>
<path d="M96.1114 59.9072H85.624V84.2463H96.1114V59.9072Z" fill="#C5E6DD"/>
<path d="M96.1117 54.7441H80.8674V56.642H96.1117V54.7441Z" fill="white"/>
<path d="M11.93 68.1776C11.8314 68.1529 11.7698 68.1406 11.7698 68.1406C11.7698 68.1406 11.93 68.2392 11.93 68.1776Z" fill="#7762A9"/>
<path d="M19.8046 78.8237H11.9175V74.7323C11.9175 73.3767 13.0266 72.2676 14.3822 72.2676H17.3398C17.9683 72.2676 18.5599 72.5017 19.0282 72.9331C19.5211 73.4013 19.8046 74.0545 19.8046 74.7323V78.8237ZM12.7308 78.0227H19.0035V74.7323C19.0035 74.264 18.8187 73.8327 18.4736 73.5246C18.1655 73.2411 17.7588 73.0809 17.3398 73.0809H14.3822C13.4702 73.0809 12.7185 73.8204 12.7185 74.7446V78.0227H12.7308Z" fill="#C5E6DD"/>
<path d="M24.6724 76.9023V89.8297C24.6724 90.7909 23.896 91.5797 22.9224 91.5797H8.81196C7.85072 91.5797 7.06201 90.7909 7.06201 89.8297V76.9023C7.06201 75.9411 7.8384 75.1523 8.81196 75.1523H22.9224C23.4031 75.1523 23.8467 75.3495 24.1548 75.6699C24.4752 75.9903 24.6724 76.4217 24.6724 76.9023Z" fill="#00A9B8"/>
<path d="M24.6724 76.9023V81.3264H7.06201V76.9023C7.06201 75.9411 7.8384 75.1523 8.81196 75.1523H22.9224C23.4031 75.1523 23.8467 75.3495 24.1548 75.6699C24.4752 75.9903 24.6724 76.4217 24.6724 76.9023Z" fill="#008490"/>
<path d="M17.044 79.626H14.6902V83.0273H17.044V79.626Z" fill="#C5E6DD"/>
<path d="M69.8008 53.3498C68.7903 52.7706 68.0632 51.6492 68.2973 50.2689C68.4575 49.2707 69.0614 48.0261 69.8008 46.806C68.5561 46.2145 66.9664 45.7585 65.0069 45.4628C62.3327 45.0561 60.5951 43.9346 59.8557 42.1354C58.8575 39.6953 59.868 36.1461 62.6531 32.4121L63.3309 32.9174C60.7307 36.4173 59.7448 39.6584 60.6321 41.8273C61.2482 43.3431 62.764 44.292 65.1302 44.6494C67.2005 44.9575 68.9012 45.4504 70.2444 46.1036C71.7356 43.8114 73.5348 41.7534 73.6581 41.6178L74.2866 42.1724C74.2619 42.2093 72.4627 44.2674 70.9839 46.5103C71.7849 47.0032 72.4257 47.5578 72.8817 48.1986C73.6458 49.2584 73.9169 50.4785 73.6827 51.8464C73.4116 53.4484 72.0683 53.9537 70.873 53.7565C70.5032 53.6703 70.1335 53.547 69.8008 53.3498ZM70.5402 47.2004C69.8378 48.3465 69.2709 49.5049 69.123 50.4045C68.8889 51.7847 69.9364 52.7337 71.0208 52.9185C71.7849 53.0418 72.6722 52.7953 72.8694 51.6985C73.0665 50.5647 72.8447 49.5542 72.2162 48.6915C71.8095 48.1247 71.255 47.6317 70.5402 47.2004Z" fill="black"/>
<path d="M62.7773 31.5502L62.0391 32.8457L63.3346 33.584L64.0728 32.2885L62.7773 31.5502Z" fill="#2F2757"/>
<path d="M72.4995 32.7691L76.0733 23.5634C76.5047 22.4666 77.6877 21.8258 78.8461 22.0846L81.6929 22.7254L81.4711 23.6743L78.6243 23.0335C77.9342 22.8733 77.2318 23.2553 76.9853 23.9085L73.4115 33.1142L72.4995 32.7691Z" fill="#C5E6DD"/>
<path d="M82.5554 38.4996L88.6556 30.7358C89.3827 29.8115 89.3211 28.4559 88.5077 27.5933L86.499 25.4736L85.7842 26.1514L87.7929 28.2711C88.2736 28.7763 88.3105 29.5774 87.8792 30.1319L81.7791 37.8958L82.5554 38.4996Z" fill="#C5E6DD"/>
<path d="M81.4585 24.4143L80.7437 23.9214C80.6082 23.8228 80.5466 23.6503 80.6082 23.4901L80.9286 22.5658C80.9779 22.4179 81.1258 22.3193 81.286 22.3193H82.1979C82.3335 22.3193 82.4567 22.3933 82.5183 22.5042C82.5676 22.5905 82.5923 22.7137 82.543 22.8246L82.0254 24.2295C81.9391 24.4636 81.6557 24.5499 81.4585 24.4143Z" fill="#00A9B8"/>
<path d="M74.7795 40.4588L74.3728 40.2247C72.0437 38.8937 71.0331 36.1086 71.9697 33.5946L73.0912 30.6123L74.3975 31.1052L73.276 34.0875C72.5736 35.9607 73.3253 38.0311 75.063 39.017L75.4696 39.2511L74.7795 40.4588Z" fill="#00A9B8"/>
<path d="M85.1685 26.5327L85.9572 26.9024C86.1051 26.9764 86.2899 26.9271 86.4008 26.8038L87.0293 26.0644C87.1279 25.9412 87.1526 25.7687 87.0663 25.6331L86.598 24.8567C86.5241 24.7335 86.4008 24.6719 86.2776 24.6719C86.1667 24.6719 86.0681 24.7212 85.9942 24.8074L85.0452 25.9658C84.885 26.1384 84.9467 26.4218 85.1685 26.5327Z" fill="#00A9B8"/>
<path d="M74.7671 40.4472L75.1738 40.6814C77.5029 42.0123 80.4236 41.4578 82.0996 39.3627L84.096 36.8857L83.0116 36.0107L81.0151 38.4878C79.7705 40.0405 77.6015 40.4595 75.8639 39.4613L75.4572 39.2272L74.7671 40.4472Z" fill="#00A9B8"/>
<path d="M74.4097 43.8854L72.0312 42.5298L73.4485 39.0176L76.7019 40.8661L74.4097 43.8854Z" fill="#00A9B8"/>
<path d="M67.1635 25.3493C65.2287 24.2402 62.7517 24.918 61.6426 26.8651C60.5334 28.7999 61.2112 31.277 63.1584 32.3861C65.0932 33.4952 67.5702 32.8174 68.6793 30.8703C69.7761 28.9355 69.0983 26.4585 67.1635 25.3493ZM63.639 31.5358C62.1725 30.6978 61.6549 28.8246 62.4929 27.3458C63.3309 25.8793 65.2041 25.3617 66.6829 26.1997C68.1494 27.0377 68.667 28.9108 67.829 30.3897C66.991 31.8562 65.1055 32.3738 63.639 31.5358Z" fill="#606060"/>
<path d="M67.8291 30.3913C66.9911 31.8578 65.1179 32.3754 63.6391 31.5374C62.1726 30.6994 61.655 28.8262 62.493 27.3474C63.331 25.8809 65.2042 25.3633 66.683 26.2013C68.1495 27.0393 68.6671 28.9248 67.8291 30.3913Z" fill="#FFFBFC"/>
<path d="M67.0644 29.9636C67.6642 28.911 67.2972 27.5715 66.2446 26.9717C65.1921 26.3719 63.8526 26.7389 63.2528 27.7915C62.653 28.844 63.02 30.1835 64.0725 30.7833C65.1251 31.3831 66.4646 31.0161 67.0644 29.9636Z" fill="#A5A5A5"/>
<path d="M65.801 29.2431C66.0032 28.8883 65.8795 28.4368 65.5247 28.2346C65.1699 28.0324 64.7184 28.1561 64.5162 28.5109C64.314 28.8657 64.4378 29.3172 64.7925 29.5194C65.1473 29.7216 65.5989 29.5979 65.801 29.2431Z" fill="#4D4D4F"/>
<path d="M73.9049 69.63C75.4454 71.4909 69.9984 71.6757 69.8258 75.2003C69.6656 78.7371 67.3981 82.3233 64.539 82.2C62.3208 82.1015 61.6799 84.6401 61.5074 85.7862C61.4581 86.1189 61.4458 86.3408 61.4458 86.3408C61.4458 86.3408 61.2733 86.1682 61.0268 85.8725C60.0779 84.7387 57.9582 81.7317 59.4371 78.8111C61.3102 75.1017 63.6394 76.0752 64.9334 73.6105C66.2273 71.1458 72.3768 67.7692 73.9049 69.63Z" fill="#C5E6DD"/>
<path d="M69.9737 71.1338C69.3328 71.5405 68.7413 72.0457 68.2114 72.6003C67.6938 73.1549 67.2255 73.771 66.8928 74.4612C66.7203 74.8062 66.5847 75.1513 66.4861 75.521C66.4615 75.6072 66.4368 75.7058 66.4245 75.7921L66.3629 76.0755C66.3259 76.2727 66.252 76.4576 66.1534 76.6301C65.9685 76.9875 65.6851 77.2709 65.3893 77.5297C65.0935 77.7885 64.7731 77.998 64.4527 78.2075C63.8119 78.6265 63.1587 79.0209 62.5795 79.5138C62.0003 79.9944 61.5197 80.586 61.2486 81.2638C60.9775 81.9416 60.9035 82.6933 60.9775 83.4327C61.0391 84.1721 61.2363 84.9115 61.4704 85.614L61.5197 85.7742C61.4704 86.1069 61.4581 86.3287 61.4581 86.3287C61.4581 86.3287 61.2856 86.1562 61.0391 85.8604L61.0144 85.7742C60.7803 85.0348 60.6078 84.2584 60.5585 83.4697C60.5338 83.0753 60.5461 82.681 60.5954 82.2743C60.6447 81.8799 60.7556 81.4856 60.9158 81.1282C61.0761 80.7585 61.2856 80.4134 61.5444 80.1053C61.7908 79.7973 62.0866 79.5261 62.3947 79.2797C63.0109 78.7867 63.6763 78.4047 64.3295 77.998C64.6499 77.8008 64.9703 77.5913 65.2661 77.3572C65.5618 77.123 65.8206 76.8519 66.0055 76.5315C66.0917 76.3713 66.1657 76.1988 66.2027 76.0262L66.2643 75.7428C66.2889 75.6442 66.3136 75.558 66.3382 75.4594C66.4491 75.0897 66.597 74.7323 66.7819 74.3872C67.1392 73.6971 67.6322 73.0932 68.1621 72.5387C68.7043 72.0211 69.3082 71.5281 69.9737 71.1338Z" fill="white"/>
<path d="M50.9462 67.906C48.9252 69.2369 54.0764 71.0238 53.1768 74.4375C52.2772 77.8634 53.374 81.9548 56.1468 82.6819C58.2911 83.2488 58.1555 85.8491 57.9707 86.9952C57.9214 87.3279 57.8721 87.5374 57.8721 87.5374C57.8721 87.5374 58.0816 87.4265 58.4143 87.217C59.659 86.4159 62.5673 84.1731 62.0251 80.9443C61.3473 76.8529 58.821 77.0747 58.3157 74.3512C57.8351 71.64 52.9673 66.5873 50.9462 67.906Z" fill="#BAD3CA"/>
<path d="M54.2612 70.5186C54.7542 71.1101 55.1732 71.7509 55.5059 72.441C55.8386 73.1312 56.0974 73.8582 56.2207 74.61C56.2823 74.9797 56.3069 75.3617 56.2946 75.7437C56.2823 75.8423 56.2946 75.9286 56.2823 76.0272L56.2576 76.3106C56.233 76.5078 56.2453 76.7173 56.2823 76.9022C56.3562 77.2965 56.5411 77.6539 56.7506 77.9866C56.9601 78.3194 57.2066 78.6275 57.4407 78.9232C57.9337 79.5148 58.4389 80.094 58.8333 80.7225C59.2399 81.351 59.5234 82.0534 59.585 82.7928C59.6466 83.5199 59.4864 84.2593 59.203 84.9494C58.9195 85.6396 58.5252 86.2804 58.0815 86.8843L57.9829 87.0198C57.9337 87.3525 57.8844 87.562 57.8844 87.562C57.8844 87.562 58.0939 87.4511 58.4266 87.2416L58.4759 87.1677C58.9195 86.5269 59.3139 85.8491 59.5973 85.1097C59.7329 84.7399 59.8438 84.3579 59.9054 83.9636C59.967 83.5692 59.9794 83.1625 59.9424 82.7682C59.8931 82.3738 59.7945 81.9795 59.6466 81.6098C59.4987 81.2401 59.3016 80.895 59.0797 80.5746C58.6484 79.9214 58.1185 79.3545 57.6132 78.7753C57.3668 78.4919 57.1203 78.1961 56.9108 77.8881C56.7013 77.58 56.5288 77.2472 56.4425 76.8775C56.4055 76.6927 56.3932 76.5201 56.4055 76.3353L56.4302 76.0518C56.4425 75.9532 56.4425 75.8547 56.4425 75.7561C56.4425 75.3617 56.4055 74.9797 56.3439 74.5977C56.196 73.8336 55.9249 73.1065 55.5675 72.4287C55.2101 71.7263 54.7788 71.0854 54.2612 70.5186Z" fill="white"/>
<path d="M60.0038 92.5767C57.5021 92.5767 55.4688 90.5433 55.4688 88.0416V85.2441H64.5389V88.0416C64.5389 88.6701 64.4157 89.2616 64.1815 89.8039C63.4914 91.4429 61.877 92.5767 60.0038 92.5767Z" fill="#00A9B8"/>
<path d="M31.9552 21.3593C31.9552 22.2343 31.8073 23.0723 31.5239 23.8487C30.501 26.757 27.7282 28.8397 24.4748 28.8397C20.3464 28.8397 16.9944 25.4877 16.9944 21.3593C16.9944 19.6217 17.5859 18.0073 18.5841 16.738C19.952 15.0003 22.084 13.8789 24.4748 13.8789C28.6155 13.8789 31.9552 17.2309 31.9552 21.3593Z" fill="#00A9B8"/>
<path d="M27.827 19.572H26.262V18.0069C26.262 17.7728 26.1634 17.5633 26.0155 17.4154C25.8676 17.2675 25.6458 17.1689 25.424 17.1689H23.5384C23.0702 17.1689 22.6881 17.551 22.6881 18.0193V19.5844H21.123C20.6547 19.5844 20.2727 19.9664 20.2727 20.4347V22.3202C20.2727 22.7885 20.6547 23.1705 21.123 23.1705H22.6881V24.7356C22.6881 25.2039 23.0702 25.5859 23.5384 25.5859H25.424C25.8922 25.5859 26.2743 25.2039 26.2743 24.7356V23.1705H27.8394C28.0735 23.1705 28.283 23.0719 28.4309 22.924C28.5788 22.7762 28.6774 22.5543 28.6774 22.3325V20.447C28.6774 19.9541 28.2953 19.572 27.827 19.572Z" fill="white"/>
<path d="M84.0967 6.44762C84.0967 6.62015 84.0844 6.80501 84.072 6.97754C84.0227 7.49512 83.9118 8.00039 83.727 8.49333C83.6284 8.76445 83.5051 9.03557 83.3573 9.30669C83.1971 9.59013 83.0122 9.87357 82.815 10.1447L82.7781 10.1817C82.6425 10.3542 82.4946 10.5144 82.3344 10.6746L76.7395 16.2818L74.398 18.6233L74.3734 18.5987L74.3487 18.6233L66.4124 10.6869C66.2522 10.5267 66.1043 10.3665 65.9687 10.194L65.9317 10.157C65.6976 9.86125 65.4881 9.54084 65.3156 9.2081C65.18 8.9493 65.0691 8.67819 64.9705 8.39474C64.8103 7.93877 64.7117 7.47048 64.6747 6.98986C64.5392 5.49871 64.9705 3.95826 65.9441 2.72591C66.0796 2.55338 66.2398 2.38085 66.4 2.20832C66.8437 1.76467 67.349 1.39496 67.8789 1.12384C69.9369 0.0516929 72.5002 0.261193 74.3734 1.75234C76.7272 -0.120837 80.1655 0.0270457 82.3467 2.20832C83.5051 3.37905 84.0967 4.90718 84.0967 6.44762Z" fill="#00A9B8"/>
<path d="M64.958 8.38122C65.0566 8.65234 65.1675 8.92346 65.3031 9.19458H70.0476L70.7747 7.98687L72.9067 12.3001L74.3979 7.14887L76.308 12.3371L78.0949 7.6911L78.7974 9.31781H83.3448C83.4926 9.05902 83.6036 8.7879 83.7145 8.50446H79.3519L78.0703 5.55913L76.345 10.0449L74.3239 4.57324L72.7219 10.0819L70.861 6.31086L69.604 8.38122H64.958Z" fill="white"/>
<path d="M35.2951 77.1595C35.2951 77.1595 32.8181 78.4535 28.6897 77.6402C28.6897 77.6402 29.158 74.5962 29.5647 70.7636C29.7126 69.3587 29.8604 67.8429 29.959 66.3395C30.0699 64.8483 30.1439 63.3571 30.1562 61.9769C30.1562 61.6935 30.1562 61.3977 30.1562 61.1143C30.378 66.7831 31.3393 76.5557 35.2951 77.1595Z" fill="#EFEFEF"/>
<path d="M101.333 92.4512H0.666667C0.298477 92.4512 0 92.7496 0 93.1178C0 93.486 0.298477 93.7845 0.666667 93.7845H101.333C101.702 93.7845 102 93.486 102 93.1178C102 92.7496 101.702 92.4512 101.333 92.4512Z" fill="#B7B8B8"/>
</svg>
