<svg width="32" height="31" viewBox="0 0 32 31" fill="none" xmlns="http://www.w3.org/2000/svg">
<g clip-path="url(#clip0)">
<path d="M19.5109 4.79725H18.0236V1.43415H9.17273V4.79732H7.68555V1.2385C7.68555 0.555519 8.26164 0 8.96992 0H18.2265C18.9348 0 19.5109 0.555519 19.5109 1.2385V4.79725Z" fill="#64184F"/>
<path d="M26.0121 4.78723H1.2543C0.561562 4.78723 0 5.32866 0 5.99658V23.8894C0 24.5575 0.561562 25.0989 1.2543 25.0989H26.0121C26.7048 25.0989 27.2662 24.5576 27.2662 23.8894V5.99658C27.2662 5.32866 26.7048 4.78723 26.0121 4.78723Z" fill="#943A7B"/>
<path d="M23.349 4.79712H21.8079V25.0888H23.349V4.79712Z" fill="#64184F"/>
<path d="M5.4567 4.79712H3.91553V25.0888H5.4567V4.79712Z" fill="#64184F"/>
<path d="M5.43119 4.07385H2.63572C2.4683 4.07385 2.33252 4.20478 2.33252 4.3663V4.7973H5.73447V4.3663C5.73447 4.20478 5.59869 4.07385 5.43119 4.07385Z" fill="#64184F"/>
<path d="M24.6305 4.07385H21.8349C21.6675 4.07385 21.5317 4.20478 21.5317 4.3663V4.7973H24.9338V4.3663C24.9338 4.20478 24.798 4.07385 24.6305 4.07385Z" fill="#64184F"/>
<path d="M19.4987 14.2016C19.1665 11.6598 17.0379 9.60728 14.402 9.28688C10.5334 8.81672 7.27998 11.9538 7.76756 15.6844C8.09974 18.2262 10.2283 20.2788 12.8644 20.5991C16.733 21.0692 19.9863 17.9319 19.4987 14.2016Z" fill="white"/>
<path d="M17.1469 13.8603H14.7561V11.5549H12.5104V13.8603H10.1196V16.0258H12.5104V18.3312H14.7561V16.0258H17.1469V13.8603Z" fill="#64184F"/>
<path d="M24.1415 30.8572C22.7307 30.8572 21.583 29.7505 21.583 28.3901C21.583 27.136 20.5402 26.1304 19.2583 26.1304C17.9763 26.1304 16.9334 27.136 16.9334 28.3722C16.9334 29.7424 15.7773 30.8572 14.3564 30.8572H14.078C12.5038 30.8572 11.2227 29.6218 11.2227 28.1038V23.8303H12.0877V28.1038C12.0877 29.162 12.9806 30.0231 14.078 30.0231H14.3565C15.3005 30.0231 16.0684 29.2826 16.0684 28.3723C16.0684 26.6762 17.4995 25.2963 19.2583 25.2963C21.0171 25.2963 22.4481 26.6762 22.4481 28.3723C22.4481 29.2907 23.2077 30.0231 24.1416 30.0231C25.0751 30.0231 25.8345 29.2907 25.8345 28.3901V21.1743H26.6996V28.3901C26.6995 29.7505 25.5519 30.8572 24.1415 30.8572Z" fill="#64184F"/>
<path d="M21.4337 14.9241V9.3851C21.4337 9.20761 21.5737 9.0638 21.7464 9.0638H22.5871V8.22961H21.7464C21.1256 8.22961 20.6223 8.74686 20.6223 9.38518V14.9242C20.6223 17.156 21.9186 19.0752 23.7751 19.9461L24.1723 19.2216C22.5627 18.4949 21.4337 16.8441 21.4337 14.9241Z" fill="white"/>
<path d="M30.2535 8.22858H29.4127V9.06276H30.2535C30.4261 9.06276 30.5661 9.20665 30.5661 9.38406V14.7858C30.5661 16.7207 29.4597 18.4606 27.825 19.2161L28.2247 19.945C30.0812 19.0741 31.3774 17.1549 31.3774 14.9231V9.38406C31.3775 8.7459 30.8742 8.22858 30.2535 8.22858Z" fill="white"/>
<path d="M28.6124 19.8481L28.2258 19.1588C28.1929 19.1005 28.1203 19.0772 28.0568 19.103C27.6252 19.2776 27.178 19.3867 26.7262 19.4277C26.5746 19.4416 26.4243 19.4481 26.2751 19.4481C25.6544 19.4481 25.0486 19.333 24.4728 19.1054C24.4095 19.0806 24.3377 19.1039 24.3052 19.1619L23.9212 19.8482C23.8831 19.9161 23.9138 20.0032 23.9874 20.0336C24.5101 20.2487 25.051 20.3883 25.5979 20.4488C25.6711 20.4569 25.7259 20.5147 25.7259 20.5857V21.5913H26.8077V20.5857C26.8077 20.5146 26.8625 20.4569 26.9357 20.4488C27.4824 20.3888 28.0232 20.2489 28.546 20.0336C28.6197 20.0032 28.6504 19.916 28.6124 19.8481Z" fill="#330927"/>
<path d="M23.6506 9.19558C23.44 9.3626 22.5803 8.99301 22.5803 8.99301V8.16357C22.5803 8.16357 23.4399 7.79398 23.6506 7.961C23.8977 8.15717 23.8977 8.99949 23.6506 9.19558Z" fill="#330927"/>
<path d="M28.8745 7.961C29.085 7.79398 29.9447 8.16357 29.9447 8.16357V8.99301C29.9447 8.99301 29.0851 9.3626 28.8745 9.19558C28.6274 8.99949 28.6274 8.15717 28.8745 7.961Z" fill="#330927"/>
<path d="M15.0519 20.7802C14.8177 19.4039 13.6664 18.2938 12.239 18.0679C9.88142 17.6948 7.87205 19.6325 8.25892 21.9059C8.49322 23.2825 9.6447 24.3926 11.0723 24.6183C13.4297 24.9911 15.4388 23.0535 15.0519 20.7802Z" fill="#64184F"/>
<path d="M14.7484 20.748C14.5133 19.5518 13.513 18.5872 12.2725 18.3605C10.0519 17.9544 8.14124 19.7969 8.56226 21.9381C8.79749 23.1344 9.79796 24.0991 11.0386 24.3258C13.2591 24.7314 15.1694 22.8891 14.7484 20.748Z" fill="#FFEDFA"/>
<path d="M12.8844 20.4348C13.8409 21.9016 12.235 23.4504 10.7136 22.5282C10.5981 22.4582 10.4988 22.3624 10.4262 22.2511C9.46981 20.7839 11.076 19.2354 12.5972 20.1578C12.7126 20.2278 12.8118 20.3235 12.8844 20.4348Z" fill="#772560"/>
<path d="M12.7298 20.5648C13.5439 21.8323 12.1627 23.164 10.8482 22.3792C10.7405 22.3149 10.6474 22.2251 10.5808 22.1213C9.76679 20.8538 11.1479 19.5219 12.4624 20.3068C12.5701 20.3711 12.6632 20.4609 12.7298 20.5648Z" fill="#943A7B"/>
<path d="M11.8768 21.2109C12.0059 21.4453 11.7617 21.681 11.5185 21.5567C11.4835 21.5389 11.4524 21.5088 11.4338 21.475C11.3049 21.2405 11.5491 21.005 11.7922 21.1293C11.8271 21.1473 11.8582 21.1772 11.8768 21.2109Z" fill="#64184F"/>
</g>
<defs>
<clipPath id="clip0">
<rect width="32" height="30.8571" fill="white" transform="translate(0 0.0721436)"/>
</clipPath>
</defs>
</svg>
