<svg width="13" height="18" viewBox="0 0 13 18" fill="none" xmlns="http://www.w3.org/2000/svg">
<path d="M0.909816 18C1.33606 18 1.58196 17.782 2.40983 16.9352L6.38525 12.8775C6.42621 12.844 6.46723 12.8104 6.5 12.8104C6.54099 12.8104 6.57376 12.844 6.61475 12.8775L10.5984 16.9352C11.4098 17.7652 11.6721 18 12.0902 18C12.6066 18 13 17.6814 13 16.9185V2.62414C13 0.880319 12.1558 0 10.459 0H2.54098C0.852461 0 0 0.880319 0 2.62414V16.9185C0 17.6814 0.401627 18 0.909816 18ZM1.52457 15.9627C1.40982 16.0801 1.31966 16.0466 1.31966 15.8873V2.64929C1.31966 1.81093 1.76228 1.34981 2.61474 1.34981H10.3934C11.2459 1.34981 11.6803 1.81093 11.6803 2.64929V15.8873C11.6803 16.0466 11.5902 16.0717 11.4754 15.9627L6.90985 11.3433C6.77048 11.1924 6.62296 11.1505 6.5 11.1505C6.38525 11.1505 6.2377 11.1924 6.09015 11.3433L1.52457 15.9627Z" fill="white"/>
<path d="M0.909816 18C1.33606 18 1.58196 17.782 2.40983 16.9352L6.38525 12.8775C6.42621 12.844 6.46723 12.8104 6.5 12.8104C6.54099 12.8104 6.57376 12.844 6.61475 12.8775L10.5984 16.9352C11.4098 17.7652 11.6721 18 12.0902 18C12.6066 18 13 17.6814 13 16.9185V2.62414C13 0.880319 12.1558 0 10.459 0H2.54098C0.852461 0 0 0.880319 0 2.62414V16.9185C0 17.6814 0.401627 18 0.909816 18ZM1.52457 15.9627C1.40982 16.0801 1.31966 16.0466 1.31966 15.8873V2.64929C1.31966 1.81093 1.76228 1.34981 2.61474 1.34981H10.3934C11.2459 1.34981 11.6803 1.81093 11.6803 2.64929V15.8873C11.6803 16.0466 11.5902 16.0717 11.4754 15.9627L6.90985 11.3433C6.77048 11.1924 6.62296 11.1505 6.5 11.1505C6.38525 11.1505 6.2377 11.1924 6.09015 11.3433L1.52457 15.9627Z" fill="#C4C4C4"/>
</svg>
