<svg width="32" height="33" viewBox="0 0 32 33" fill="none" xmlns="http://www.w3.org/2000/svg">
<g clip-path="url(#clip0)">
<path d="M31.7364 12.9188V30.439C31.7397 30.876 31.5549 31.2934 31.2291 31.5848L31.1831 31.6308C30.9022 31.8703 30.5447 32.0013 30.1755 31.9999H2.34194C1.97536 31.9999 1.62083 31.869 1.34211 31.6308C1.32311 31.6196 1.30728 31.6038 1.29609 31.5848C0.967914 31.2944 0.780185 30.8771 0.780583 30.439V12.9188C0.776941 12.5293 0.925998 12.1539 1.19584 11.873C1.30583 11.7431 1.438 11.6337 1.58606 11.5498C1.8171 11.4234 2.07627 11.3573 2.33962 11.3575H30.1752C30.6121 11.3654 31.0276 11.5481 31.3287 11.8648C31.5904 12.1536 31.7358 12.5291 31.7364 12.9188Z" fill="#943A7B"/>
<path d="M31.3301 11.8633C31.2204 11.9987 16.2665 23.8911 16.2665 23.8911L1.19482 11.8765L1.20145 11.8703V11.8637L15.4131 0.302551C15.9091 -0.10085 16.6202 -0.10085 17.1162 0.302551L31.3301 11.8633Z" fill="#64184F"/>
<path d="M28.1509 3.80194V14.4237L16.2652 23.8911L4.3728 14.4108V3.80194H28.1509Z" fill="white"/>
<path d="M31.2271 31.584C31.2137 31.6007 31.1985 31.6158 31.1818 31.6293L17.7932 22.6981L19.0186 21.7112L31.2271 31.584Z" fill="#64184F"/>
<path d="M14.73 22.6915L1.34144 31.6281C1.32177 31.6184 1.30581 31.6025 1.29614 31.5828L13.4984 21.6982L14.73 22.6915Z" fill="#64184F"/>
<path d="M7.00708 6.58984H25.5098V7.39261H7.00708V6.58984Z" fill="#E4C5DC"/>
<path d="M7.00708 9.6861H25.5098V10.4889H7.00708V9.6861Z" fill="#E4C5DC"/>
<path d="M7.00708 12.7827H25.5098V13.5855H7.00708V12.7827Z" fill="#E4C5DC"/>
<path d="M10.1147 15.8789H22.4029V16.6817H10.1147V15.8789Z" fill="#E4C5DC"/>
</g>
<defs>
<clipPath id="clip0">
<rect width="32" height="32" fill="white" transform="translate(0 0.0721436)"/>
</clipPath>
</defs>
</svg>
