<svg width="32" height="33" viewBox="0 0 32 33" fill="none" xmlns="http://www.w3.org/2000/svg">
<path d="M31.9999 12.6994V27.8243C31.9999 28.066 31.804 28.2618 31.5624 28.2618H4.4375C4.19587 28.2618 4 28.066 4 27.8243V25.6368H29.3749V12.2619H31.5624C31.804 12.2619 31.9999 12.4578 31.9999 12.6994Z" fill="#64184F"/>
<path d="M2 23.6368V25.8243C2 26.066 2.19587 26.2618 2.4375 26.2618H29.5624C29.804 26.2618 29.9999 26.066 29.9999 25.8243V10.6994C29.9999 10.4578 29.804 10.2619 29.5624 10.2619H27.3749V23.6368H2Z" fill="#943A7B"/>
<path d="M27.5624 24.2618H7.829L7.35406 23.6368H6.39575L5.82906 24.2618H0.4375C0.195875 24.2618 0 24.066 0 23.8243V8.6994C0 8.45778 0.195875 8.2619 0.4375 8.2619H5.829L6.34612 8.8869H7.31193L7.829 8.2619H27.5624C27.804 8.2619 27.9999 8.45778 27.9999 8.6994V23.8243C27.9999 24.066 27.804 24.2618 27.5624 24.2618Z" fill="white"/>
<path d="M9.87921 3.7381C8.5799 3.7381 7.4429 4.44366 6.82921 5.49135C6.21552 4.44372 5.07852 3.7381 3.77921 3.7381C2.53202 3.7381 1.51733 4.75272 1.51733 5.99997C1.51733 7.24722 2.53202 8.26185 3.77921 8.26185L4.54177 8.88685H9.10427L9.87921 8.26185C11.1265 8.26185 12.1411 7.24722 12.1411 5.99997C12.1411 4.75272 11.1264 3.7381 9.87921 3.7381ZM2.48315 6.00003C2.48315 5.28535 3.06458 4.70391 3.77927 4.70391C5.19477 4.70391 6.3464 5.85553 6.3464 7.27103V7.2961H3.77921C3.06452 7.2961 2.48315 6.71466 2.48315 6.00003ZM9.87921 7.2961H7.31215V7.27103C7.31215 5.85553 8.46371 4.70391 9.87921 4.70391C10.5939 4.70391 11.1753 5.28535 11.1753 6.00003C11.1753 6.71472 10.5939 7.2961 9.87921 7.2961Z" fill="#64184F"/>
<path d="M27.5624 8.2619H7.829L7.31193 8.8869H6.34612L5.829 8.2619H0.4375C0.195875 8.2619 0 8.45778 0 8.6994V10.2619H27.9999V8.6994C27.9999 8.45778 27.804 8.2619 27.5624 8.2619Z" fill="#64184F"/>
<path d="M1.28775 8.26184V24.2619H0.4375C0.195875 24.2619 0 24.066 0 23.8244V8.69934C0 8.45772 0.195875 8.26184 0.4375 8.26184H1.28775Z" fill="#E4C5DC"/>
<path d="M1.28775 8.26184V10.2617H0V8.69934C0 8.45772 0.195875 8.26184 0.4375 8.26184H1.28775Z" fill="#64184F"/>
<path d="M5.8291 8.2619H7.8291V24.2618H5.8291V8.2619Z" fill="#64184F"/>
<path d="M21.9999 18.7448H14C13.7333 18.7448 13.5171 18.5286 13.5171 18.2619C13.5171 17.9952 13.7333 17.7791 14 17.7791H21.9999C22.2666 17.7791 22.4828 17.9952 22.4828 18.2619C22.4828 18.5286 22.2667 18.7448 21.9999 18.7448Z" fill="#64184F"/>
<path d="M22 20.7447H18C17.7333 20.7447 17.5171 20.5286 17.5171 20.2619C17.5171 19.9951 17.7333 19.779 18 19.779H22C22.2667 19.779 22.4828 19.9952 22.4828 20.2619C22.4829 20.5286 22.2667 20.7447 22 20.7447Z" fill="#64184F"/>
<path d="M21.5625 16.2618H14.4375C14.1959 16.2618 14 16.066 14 15.8243V14.6993C14 14.4577 14.1959 14.2618 14.4375 14.2618H21.5624C21.8041 14.2618 21.9999 14.4577 21.9999 14.6993V15.8243C22 16.066 21.8041 16.2618 21.5625 16.2618Z" fill="#943A7B"/>
</svg>
