<svg width="90" height="95" viewBox="0 0 90 95" fill="none" xmlns="http://www.w3.org/2000/svg">
<path d="M36.49 92.7432C36.49 92.7432 16.5367 82.9019 13.1039 77.7713C9.67109 72.6407 14.7177 72.3516 14.7177 72.3516C14.7177 72.3516 5.80917 63.6949 7.06849 60.0475C8.31848 56.4002 13.0013 59.889 13.0013 59.889C13.0013 59.889 7.19909 46.9972 9.90429 45.7099C14.9323 43.3219 21.9844 57.0345 21.9844 57.0345C21.9844 57.0345 20.4639 51.0737 23.9341 51.2696C29.1579 51.5588 28.9434 65.0382 28.9434 65.0382C28.9434 65.0382 29.5311 59.8703 32.684 61.5494C38.3183 64.5718 36.49 92.7432 36.49 92.7432Z" fill="#A3E4E1"/>
<path d="M33.8127 59.4692C31.3594 58.1073 28.9061 62.0905 28.9061 62.0905C28.9061 62.0905 29.1579 51.5682 23.9341 51.2697C20.4733 51.0738 21.9845 57.0346 21.9845 57.0346C21.9845 57.0346 14.9323 43.3313 9.9043 45.71L36.5179 92.5194C36.6952 89.2545 38.6821 62.1744 33.8127 59.4692Z" fill="#A3E4E1"/>
<path d="M35.9676 92.8645C35.9676 92.8645 19.6431 94.8888 15.4174 93.0884C11.1917 91.2787 14.2234 89.0493 14.2234 89.0493C14.2234 89.0493 5.14692 87.2676 4.4473 84.4784C3.74768 81.6986 8.07601 81.9691 8.07601 81.9691C8.07601 81.9691 -0.767224 76.2788 0.389486 74.3852C2.55365 70.8497 12.5256 76.54 12.5256 76.54C12.5256 76.54 9.15809 73.443 11.3969 72.1557C14.7737 70.2154 20.1189 78.7135 20.1189 78.7135C20.1189 78.7135 19.783 76.624 22.4323 76.3908C27.1897 75.971 35.9676 92.8645 35.9676 92.8645Z" fill="#00A9B8"/>
<path d="M22.1709 73.5546C19.5217 73.7878 19.5683 76.3531 19.5683 76.3531C19.5683 76.3531 14.699 68.648 11.3221 70.5882C9.08333 71.8755 11.7326 76.1013 11.7326 76.1013C11.7326 76.1013 2.57218 70.8588 0.398682 74.3942L36.0235 92.7803C34.8108 90.6627 26.6019 73.1628 22.1709 73.5546Z" fill="#00A9B8"/>
<path d="M76.1723 83.0969L53.7284 92.8637C52.3385 93.3021 50.846 92.5372 50.4076 91.1379L45.5102 75.6623C45.0718 74.2724 45.8367 72.7798 47.2359 72.3414L69.6798 62.5747C71.0698 62.1362 72.5623 62.9011 73.0007 64.3004L77.8981 79.7761C78.3365 81.166 77.5716 82.6585 76.1723 83.0969Z" fill="#00A9B8"/>
<path d="M57.1494 73.6958L48.3101 76.4961L49.9384 81.6361L58.7777 78.8358L57.1494 73.6958Z" fill="#F7CC7F"/>
<path d="M70.8044 65.274L55.1355 70.2378L55.4398 71.1982L71.1086 66.2344L70.8044 65.274Z" fill="#A3E4E1"/>
<path d="M53.3648 94.4869H77.3665C78.8311 94.4869 80.0158 93.3022 80.0158 91.8377V75.5784C80.0158 74.1139 78.8311 72.9292 77.3665 72.9292H53.3648C51.9003 72.9292 50.7156 74.1139 50.7156 75.5784V91.8377C50.7156 93.3022 51.9096 94.4869 53.3648 94.4869Z" fill="#C5E6DD"/>
<path d="M77.5995 77.2197H68.3179V82.6208H77.5995V77.2197Z" fill="#93BCBC"/>
<path d="M61.1723 75.8486H53.1033V76.8561H61.1723V75.8486Z" fill="#93BCBC"/>
<path d="M80.0155 85.9048H50.7153V90.1118H80.0155V85.9048Z" fill="#93BCBC"/>
<path d="M12.0403 94.4682C12.0403 94.7574 12.3668 95 12.7679 95H89.1667C89.5678 95 89.8943 94.7667 89.8943 94.4682C89.8943 94.1791 89.5678 93.9365 89.1667 93.9365H12.7679C12.3668 93.9459 12.0403 94.1791 12.0403 94.4682Z" fill="#B7B8B8"/>
<path d="M53.458 47.855H30.3611C29.2231 47.855 28.2996 48.7785 28.2996 49.9165V66.8288C28.2996 67.9668 29.2231 68.8903 30.3611 68.8903H53.4487C54.5867 68.8903 55.5102 67.9668 55.5102 66.8288V49.9165C55.5196 48.7785 54.5961 47.855 53.458 47.855Z" fill="#50BFA5"/>
<path d="M29.4378 94.1138H54.559C56.5366 94.1138 58.1504 92.5093 58.1504 90.5224V36.5675C58.1504 34.5899 56.5459 32.9761 54.559 32.9761H29.4378C27.4602 32.9761 25.8464 34.5805 25.8464 36.5675V90.5224C25.8558 92.5093 27.4602 94.1138 29.4378 94.1138Z" fill="#4D4D4F"/>
<path d="M56.5928 84.1792V38.9836C56.5928 37.09 55.0537 35.5508 53.16 35.5508H31.3225C29.4288 35.5508 27.8896 37.09 27.8896 38.9836V84.1792C27.8896 86.0729 29.4288 87.612 31.3225 87.612H53.16C55.0537 87.612 56.5928 86.0822 56.5928 84.1792Z" fill="#EDFDFC"/>
<path d="M55.1373 16.2323C55.1373 16.2323 55.2213 16.055 55.2213 15.6633C55.2119 15.1689 55.1187 14.4226 55.1 14.3573C55.0627 14.236 56.6672 13.7323 56.6672 13.7323C56.6672 13.7323 59.2324 13.6017 59.6149 13.3125C59.9974 13.0233 60.3145 12.9114 60.1373 13.2006C59.8108 13.7416 59.0645 14.5252 58.8966 14.6371C58.7287 14.7491 56.7325 15.2435 56.6951 15.2435C56.6578 15.2435 56.6672 16.4935 56.6672 16.4935L55.1373 16.2323Z" fill="#F7A491"/>
<path d="M56.8066 15.7007C56.8066 15.7007 55.1462 15.4209 55.1088 15.5888C54.4372 19.2642 54.3253 20.4862 54.2506 20.5235C53.9988 20.6541 50.3794 17.4731 49.7824 17.2679C49.4932 17.1653 49.1854 17.1839 48.8869 17.1933C48.1779 17.2119 48.038 17.2213 48.038 17.2213C48.0193 17.2213 48.01 17.2213 48.01 17.2213V17.8929C48.8122 18.6112 50.6499 29.5346 50.7992 29.5346C50.9764 29.5253 54.5958 30.4395 54.5305 30.1316C54.5212 30.085 52.0678 28.0794 51.3775 25.1876C51.1443 24.2175 51.0324 23.1727 50.9018 22.2585C51.704 22.6597 54.857 24.2082 55.3514 24.0029C56.9185 23.3593 56.8066 15.7007 56.8066 15.7007Z" fill="#00A9B8"/>
<path d="M63.0566 35.0948C63.0566 35.0948 66.4335 37.7347 66.5454 38.2105C66.704 38.8821 69.801 37.9959 69.0547 37.8653C68.8868 37.8373 68.3365 37.6974 68.2898 37.6694C68.0473 37.5388 65.0436 33.9194 65.0436 33.9194L63.0566 35.0948Z" fill="#F7A491"/>
<path d="M70.5004 37.8555L68.3456 37.6782C68.3456 37.6782 67.7299 38.1913 66.5452 38.2099C66.5452 38.2099 66.3587 38.751 66.4426 39.3853C66.4613 39.4972 66.4799 39.8237 66.5825 39.8144C66.9837 39.7864 68.0378 39.5252 69.2504 39.2827C69.2504 39.2827 70.8736 38.9375 71.8157 38.3778C72.7579 37.8181 70.5004 37.8555 70.5004 37.8555Z" fill="#161717"/>
<path d="M47.9357 28.4623C47.9357 28.4623 50.4077 28.882 53.1409 28.2384C56.3032 27.5014 59.8013 26.8111 60.8274 27.4082C61.6483 27.8839 66.8069 35.673 66.8069 35.673L64.8106 37.1282L59.139 30.7757C59.139 30.7757 51.9002 33.4436 50.2771 33.1451C46.5738 32.4734 46.5271 29.5257 47.9357 28.4623Z" fill="#161717"/>
<path d="M50.6312 26.8945L53.1032 29.8329L48.523 31.2322L47.9353 28.4617L50.6312 26.8945Z" fill="#0D0E0E"/>
<path d="M55.6593 40.3184C55.6593 40.3184 55.5101 44.4042 55.4168 45.0944C55.3235 45.7847 57.1518 47.8556 56.9186 47.1373C56.8627 46.9694 56.7227 46.4191 56.7227 46.3724C56.7227 46.1019 57.4037 41.4471 57.4037 41.4471L55.6593 40.3184Z" fill="#F7A491"/>
<path d="M58.0848 48.6203L56.7322 46.4282C56.7322 46.4282 55.9953 46.1297 55.4076 45.0942C55.4076 45.0942 54.8386 45.1875 54.3255 45.5607C54.2416 45.626 53.6352 46.0644 53.6726 46.167C53.8311 46.5401 54.652 47.3424 55.5475 48.2192C55.5475 48.2192 56.8255 49.2453 57.7583 49.805C58.7098 50.3741 58.0848 48.6203 58.0848 48.6203Z" fill="#161717"/>
<path d="M59.6616 32.2686C58.7941 31.1118 51.8258 30.0204 51.8258 30.0204L49.8856 26.2798L45.5852 28.929C45.5852 28.929 46.0143 32.3525 46.3408 33.2667C46.7699 34.4887 49.6617 34.5447 51.4247 34.526C53.0478 34.5073 56.0142 34.8432 56.0142 34.8432L55.0068 43.6957C55.0068 43.6957 56.9751 44.1435 57.5348 44.0689C57.6001 44.0689 60.7437 33.7051 59.6616 32.2686Z" fill="#1D1E1E"/>
<path d="M48.0288 17.2212L45.6035 17.3611C45.6035 17.3611 45.5475 17.3798 45.5288 17.3798C45.3329 17.4171 45.5102 24.4879 45.6874 27.1278C45.8647 29.7678 46.2191 30.8778 46.2191 30.8778C46.2191 30.8778 49.512 30.2901 50.5195 29.8984C50.9393 29.7398 51.956 28.4711 51.956 28.4711C51.956 28.4711 50.9206 27.0812 50.3982 24.8144C49.9971 23.07 49.5027 19.973 49.2135 19.3294C48.5699 17.8462 48.0288 17.2212 48.0288 17.2212Z" fill="#A3E4E1"/>
<path d="M45.6781 15.2153L45.6128 17.3608C45.6128 17.3608 47.1799 20.066 47.9915 19.6929C48.6725 19.3757 48.0661 17.3142 48.0661 17.3142C48.0661 17.3142 47.9449 16.8384 47.7863 16.2974C47.6744 15.9149 47.5811 15.5045 47.5811 15.206C47.5997 14.469 45.6781 15.2153 45.6781 15.2153Z" fill="#F7A491"/>
<path d="M47.5527 10.3271C47.5527 10.3271 48.3549 11.5305 48.4109 12.5473C48.4668 13.5641 48.2523 14.2544 48.2523 14.2544L45.687 11.1854L47.5527 10.3271Z" fill="#473B1E"/>
<path d="M48.3717 13.0201C48.5767 12.9992 48.7137 12.6955 48.6776 12.3419C48.6415 11.9883 48.4461 11.7186 48.2411 11.7395C48.0361 11.7604 47.8991 12.064 47.9352 12.4176C47.9713 12.7713 48.1667 13.041 48.3717 13.0201Z" fill="#F48C7F"/>
<path d="M44.8569 11.6796C44.8009 11.6703 44.8009 14.618 45.6591 15.3176C46.5173 16.0172 48.0098 16.0732 48.4389 15.3736C48.924 14.5993 48.4669 11.4837 47.189 10.8214C45.9203 10.1591 44.8569 11.6796 44.8569 11.6796Z" fill="#F7A491"/>
<path d="M44.6426 9.84189C43.9896 10.4109 43.6724 10.8307 43.234 11.8568C42.693 13.1068 43.7657 14.4128 44.6706 14.9258C45.5754 15.4389 45.65 16.0639 45.65 16.0639L45.6874 15.6814C45.706 15.5415 45.6967 15.4295 45.678 15.3269C45.65 15.215 45.5941 15.1124 45.5474 15.0191C45.4728 14.8512 45.2209 14.2915 45.1277 14.1422C44.8758 13.7504 44.8198 13.6665 44.9504 13.2934C45.0437 13.0042 44.9318 12.3699 45.081 11.8941L46.303 11.6329C46.303 11.6329 47.0679 11.4464 47.4504 11.0079C48.5511 9.72995 46.3683 8.30271 44.6426 9.84189Z" fill="#141A2D"/>
<path d="M45.1663 14.3543C45.3533 14.2677 45.3838 13.936 45.2345 13.6134C45.0852 13.2908 44.8125 13.0994 44.6255 13.186C44.4385 13.2726 44.4079 13.6043 44.5573 13.9269C44.7066 14.2495 44.9793 14.4408 45.1663 14.3543Z" fill="#F7A491"/>
<path d="M36.9375 5.45794C37.0775 6.02696 37.3293 6.92248 37.3293 6.92248C37.3107 7.16501 37.236 8.20046 37.1521 9.45978L39.0084 8.71351C39.0084 8.71351 38.9898 6.66129 39.0644 6.53069C39.1297 6.42808 39.251 6.55868 39.82 5.74711C39.9879 5.51391 40.0159 5.09413 40.0159 5.09413C40.0159 5.09413 40.0532 4.58107 39.9319 4.53443C39.82 4.48779 39.6801 4.56242 39.6427 4.6557C39.6054 4.74898 39.6148 4.95421 39.5681 5.03816C39.5215 5.13144 39.2603 5.23406 39.1483 5.22473C39.0364 5.2154 39.167 3.69489 39.167 3.69489C39.167 3.69489 39.2323 3.26578 39.2603 3.12586C39.2883 3.00459 39.4002 2.65012 39.4002 2.65012C39.4002 2.65012 39.5308 2.13706 39.3722 2.09975C39.2789 2.08109 39.0364 2.49153 38.8778 2.92996C38.7006 3.40571 38.598 3.90944 38.5513 3.90011C38.4301 3.88145 38.4954 3.05123 38.4954 3.05123C38.4954 3.05123 38.6166 2.66877 38.6073 2.49153C38.7192 2.26766 38.7939 1.85721 38.598 1.82923C38.5607 1.8199 38.2995 2.34228 38.2995 2.34228C38.2995 2.34228 38.1969 2.70609 38.1409 2.88332C38.0383 3.18183 38.0196 3.6669 37.9636 3.87212C37.917 4.04936 37.8797 3.97474 37.861 3.98406C37.8424 3.99339 37.8704 3.75086 37.8984 3.41504C37.917 3.24713 37.8984 3.05123 37.945 2.86467C37.9916 2.68743 38.0103 2.43556 38.0289 2.28631C38.0569 1.85721 37.7864 1.90385 37.6931 2.29564C37.6558 2.44489 37.6185 2.6128 37.5812 2.77138C37.4319 3.41504 37.4413 4.04003 37.3666 4.04936C37.2734 4.05869 37.3387 2.92064 37.3387 2.92064C37.3387 2.92064 37.1987 2.29564 37.0588 2.874C36.9002 3.54563 36.9189 4.10533 36.9189 4.12399C36.9095 4.30123 36.7976 4.88891 36.9375 5.45794Z" fill="#F8A492"/>
<path d="M45.6035 17.3519C45.6035 17.3519 43.1968 17.2399 42.5811 16.9601C42.208 16.7922 39.111 14.3015 39.111 14.3015L39.1483 7.63178L36.9748 7.46387C36.9748 7.46387 35.8461 14.8332 36.2379 15.6448C36.639 16.475 41.1632 19.9078 42.0681 21.4004C42.5905 22.2586 43.6726 33.9189 43.8405 34.0216C45.0065 34.6279 48.6259 35.2436 48.5419 34.8704C46.1912 24.6559 45.6035 17.3519 45.6035 17.3519Z" fill="#00A9B8"/>
<path d="M56.3405 14.4599C60.3332 14.4599 63.57 11.2231 63.57 7.23041C63.57 3.23771 60.3332 0.000976562 56.3405 0.000976562C52.3478 0.000976562 49.1111 3.23771 49.1111 7.23041C49.1111 11.2231 52.3478 14.4599 56.3405 14.4599Z" fill="#00A9B8"/>
<path d="M56.3398 13.2938C59.6885 13.2938 62.4032 10.5791 62.4032 7.23039C62.4032 3.88167 59.6885 1.16699 56.3398 1.16699C52.991 1.16699 50.2764 3.88167 50.2764 7.23039C50.2764 10.5791 52.991 13.2938 56.3398 13.2938Z" fill="#A3E4E1"/>
<path d="M54.465 11.1202L54.8102 10.1687C54.3904 9.9915 53.9986 9.75829 53.6908 9.51575C53.4389 9.31986 53.383 8.94673 53.5602 8.68554L53.5789 8.65755C53.7841 8.35905 54.1945 8.29375 54.4744 8.52695C54.7542 8.76016 55.0994 8.96538 55.4912 9.10531C56.0602 9.31053 56.5359 9.23591 56.6759 8.83479C56.8158 8.45233 56.5826 8.09785 55.9296 7.57547C54.9874 6.8292 54.4371 6.05495 54.7915 5.08481C55.1087 4.19862 55.9856 3.73221 57.1329 3.91877L57.4781 2.96729L58.4576 3.32176L58.1404 4.20795C58.4949 4.3572 58.7841 4.51578 59.0079 4.67436C59.2878 4.87026 59.3531 5.24339 59.1665 5.52324C58.9706 5.81242 58.5695 5.87772 58.2897 5.67249C58.0751 5.51391 57.8046 5.35533 57.4501 5.22473C56.7971 4.99153 56.4893 5.19675 56.3867 5.4766C56.2654 5.80309 56.5453 6.14824 57.2729 6.77323C58.3083 7.62211 58.5975 8.34972 58.271 9.25456C57.9445 10.1501 57.0397 10.6818 55.8177 10.4579L55.4445 11.484L54.465 11.1202Z" fill="#00A9B8"/>
<path d="M56.1636 14.497C56.1636 14.497 56.8352 14.2078 57.0124 14.1518C57.1897 14.0959 57.768 13.9839 57.768 13.9839C57.768 13.9839 58.6542 13.0697 58.8874 13.0418C59.1113 13.0138 58.3651 14.0399 58.3651 14.0399L58.0572 14.3384C58.0572 14.3384 58.5609 13.9093 58.6542 13.844C58.7475 13.788 59.5031 12.6966 59.6897 12.7712C59.8762 12.8459 59.3632 13.6108 59.1206 14.0119C58.8688 14.4223 57.7214 14.6649 57.7214 14.6649L56.1636 14.497Z" fill="#F7A491"/>
<path d="M33.5332 93.9559H13.3747C12.5631 93.9559 11.9102 93.303 11.9102 92.4914C11.9102 91.6798 12.5631 91.0269 13.3747 91.0269H33.5332C34.3447 91.0269 34.9977 91.6798 34.9977 92.4914C34.9977 93.303 34.3354 93.9559 33.5332 93.9559Z" fill="white"/>
<path d="M33.1228 91.036H12.9643C12.1527 91.036 11.4998 90.383 11.4998 89.5715C11.4998 88.7599 12.1527 88.1069 12.9643 88.1069H33.1228C33.9343 88.1069 34.5873 88.7599 34.5873 89.5715C34.5873 90.3737 33.925 91.036 33.1228 91.036Z" fill="#D8D9DA"/>
<path d="M35.4828 88.1068H15.3337C14.5221 88.1068 13.8691 87.4538 13.8691 86.6423C13.8691 85.8307 14.5221 85.1777 15.3337 85.1777H35.4922C36.3037 85.1777 36.9567 85.8307 36.9567 86.6423C36.9474 87.4445 36.2944 88.1068 35.4828 88.1068Z" fill="#D2EBDE"/>
<path d="M33.0481 85.1781H12.8896C12.078 85.1781 11.425 84.5251 11.425 83.7136C11.425 82.902 12.078 82.249 12.8896 82.249H33.0481C33.8596 82.249 34.5126 82.902 34.5126 83.7136C34.5033 84.5158 33.8503 85.1781 33.0481 85.1781Z" fill="white"/>
<path d="M32.6377 82.2484H12.4792C11.6676 82.2484 11.0146 81.5954 11.0146 80.7839C11.0146 79.9723 11.6676 79.3193 12.4792 79.3193H32.6377C33.4492 79.3193 34.1022 79.9723 34.1022 80.7839C34.1022 81.5861 33.4399 82.2484 32.6377 82.2484Z" fill="#D2EBDE"/>
<path d="M34.9977 79.3197H14.8486C14.037 79.3197 13.384 78.6667 13.384 77.8552C13.384 77.0436 14.037 76.3906 14.8486 76.3906H34.9977C35.8093 76.3906 36.4623 77.0436 36.4623 77.8552C36.4623 78.6574 35.8093 79.3197 34.9977 79.3197Z" fill="white"/>
<path d="M50.6877 61.9791H34.1766C33.4583 61.9791 32.8706 61.3914 32.8706 60.6732C32.8706 59.9549 33.4583 59.3672 34.1766 59.3672H50.6877C51.406 59.3672 51.9936 59.9549 51.9936 60.6732C51.9936 61.4008 51.406 61.9791 50.6877 61.9791Z" fill="#E5EFF0"/>
<path d="M42.8705 61.7733C46.8633 61.7733 50.1 58.5366 50.1 54.5439C50.1 50.5512 46.8633 47.3145 42.8705 47.3145C38.8778 47.3145 35.6411 50.5512 35.6411 54.5439C35.6411 58.5366 38.8778 61.7733 42.8705 61.7733Z" fill="#C5C6C7"/>
<path d="M42.8703 60.6078C46.219 60.6078 48.9337 57.8931 48.9337 54.5444C48.9337 51.1956 46.219 48.481 42.8703 48.481C39.5216 48.481 36.8069 51.1956 36.8069 54.5444C36.8069 57.8931 39.5216 60.6078 42.8703 60.6078Z" fill="#F3F4F4"/>
<path d="M42.3669 58.8356L42.3856 57.8188C41.9285 57.7909 41.4807 57.6976 41.1169 57.567C40.8091 57.4644 40.6412 57.1379 40.7252 56.8207L40.7345 56.7834C40.8278 56.4383 41.2009 56.2424 41.5367 56.3636C41.8819 56.4849 42.2737 56.5782 42.6934 56.5782C43.2998 56.5875 43.7195 56.3636 43.7289 55.9345C43.7382 55.5334 43.4024 55.2722 42.6188 54.9924C41.4807 54.5913 40.7158 54.0409 40.7345 53.0148C40.7531 52.0726 41.4248 51.3543 42.5628 51.1491L42.5815 50.1323L43.6263 50.151L43.6076 51.0931C43.9994 51.1211 44.3166 51.1771 44.5777 51.2517C44.9042 51.345 45.0908 51.6808 44.9975 52.0073C44.9042 52.3431 44.5498 52.539 44.2233 52.4364C43.9714 52.3618 43.6636 52.2965 43.2904 52.2872C42.6001 52.2778 42.3669 52.567 42.3669 52.8655C42.3576 53.22 42.7307 53.4439 43.6263 53.8077C44.8856 54.2741 45.3893 54.8711 45.3706 55.8319C45.352 56.7834 44.671 57.5763 43.4397 57.7722L43.421 58.8636L42.3669 58.8356Z" fill="#9C9EA0"/>
<path d="M52.572 70.1307H33.1784C32.143 70.1307 31.3127 69.2912 31.3127 68.2651C31.3127 67.239 32.1523 66.3994 33.1784 66.3994H52.572C53.6074 66.3994 54.4376 67.239 54.4376 68.2651C54.4376 69.3005 53.5981 70.1307 52.572 70.1307Z" fill="#E5EFF0"/>
<path d="M45.7996 68.2651C45.7996 67.239 44.9601 66.3994 43.9339 66.3994H33.1784C32.143 66.3994 31.3127 67.239 31.3127 68.2651C31.3127 69.3005 32.1523 70.1307 33.1784 70.1307H43.9339C44.9601 70.1307 45.7996 69.3005 45.7996 68.2651Z" fill="#A3E4E1"/>
<path d="M44.4284 78.5272V77.8089C44.4284 76.5496 43.4023 75.5234 42.143 75.5234C40.8836 75.5234 39.8575 76.5496 39.8575 77.8089V78.5272C39.4751 78.7417 39.2139 79.1428 39.2139 79.6186V82.2771C39.2139 82.9674 39.7736 83.5271 40.4639 83.5271H43.822C44.5123 83.5271 45.072 82.9674 45.072 82.2771V79.6186C45.0627 79.1428 44.8108 78.7324 44.4284 78.5272ZM40.4639 78.3686C40.4545 78.3686 40.4545 78.3686 40.4452 78.3686V77.8089C40.4452 76.876 41.2101 76.1111 42.143 76.1111C43.0758 76.1111 43.8407 76.876 43.8407 77.8089V78.3686C43.8314 78.3686 43.8314 78.3686 43.822 78.3686H40.4639Z" fill="#00A9B8"/>
<path d="M42.2637 81.026C42.4904 81.026 42.6742 80.8422 42.6742 80.6155C42.6742 80.3888 42.4904 80.2051 42.2637 80.2051C42.037 80.2051 41.8533 80.3888 41.8533 80.6155C41.8533 80.8422 42.037 81.026 42.2637 81.026Z" fill="#EDFDFC"/>
<path d="M42.2635 80.3354L41.7598 82.425H42.7579L42.2635 80.3354Z" fill="#EDFDFC"/>
<path d="M80.4169 94.329C84.5333 94.329 87.8703 90.992 87.8703 86.8757C87.8703 82.7593 84.5333 79.4224 80.4169 79.4224C76.3006 79.4224 72.9636 82.7593 72.9636 86.8757C72.9636 90.992 76.3006 94.329 80.4169 94.329Z" fill="#00A9B8"/>
<path d="M80.4165 93.1343C83.8734 93.1343 86.6758 90.3319 86.6758 86.875C86.6758 83.4181 83.8734 80.6157 80.4165 80.6157C76.9596 80.6157 74.1572 83.4181 74.1572 86.875C74.1572 90.3319 76.9596 93.1343 80.4165 93.1343Z" fill="#A3E4E1"/>
<path d="M81.135 91.269L80.8645 90.2616C80.4074 90.3642 79.9316 90.4015 79.5305 90.3829C79.1947 90.3642 78.9335 90.0937 78.9242 89.7579V89.7205C78.9149 89.3474 79.232 89.0489 79.5958 89.0769C79.969 89.1049 80.3887 89.0769 80.7992 88.9649C81.4055 88.797 81.7507 88.4519 81.6387 88.0321C81.5268 87.631 81.1257 87.4631 80.2675 87.4164C79.0268 87.3418 78.1126 87.0247 77.8328 85.9892C77.5809 85.0564 78.038 84.1422 79.1108 83.6198L78.8402 82.6124L79.8757 82.3325L80.1275 83.2654C80.5193 83.1814 80.8458 83.1441 81.135 83.1441C81.4801 83.1441 81.7693 83.4239 81.7693 83.7691C81.7693 84.1329 81.4801 84.4221 81.1163 84.4127C80.8458 84.4034 80.5193 84.4314 80.1462 84.534C79.4559 84.7206 79.316 85.075 79.3906 85.3736C79.4839 85.728 79.913 85.8493 80.9111 85.9426C82.2917 86.0452 82.9633 86.4929 83.2245 87.4444C83.4764 88.3866 83.0286 89.3754 81.8626 89.9164L82.1518 90.9985L81.135 91.269Z" fill="#00A9B8"/>
</svg>
