<svg width="34" height="32" viewBox="0 0 34 32" fill="none" xmlns="http://www.w3.org/2000/svg">
<path d="M33.1547 17.719H29.8799V14.4442H26.9852V17.719H23.7104V20.6137H26.9852V23.8885H29.8799V20.6137H33.1547V17.719Z" fill="#D995C6"/>
<path d="M9.70529 15.0582L7.57083 15.7891C7.68778 16.14 7.71702 16.5201 7.57083 16.9002C7.51235 17.0464 7.42463 17.1926 7.33691 17.3388L8.53572 19.0055C8.76964 18.947 9.00355 18.947 9.23746 19.0347L10.3778 15.6722C10.0854 15.526 9.85149 15.3213 9.70529 15.0582Z" fill="url(#paint0_linear)"/>
<path d="M6.02084 26.6078C5.8454 27.0463 5.37758 27.251 4.96823 27.0756C4.52964 26.9002 4.32496 26.4323 4.5004 26.023C4.55888 25.8475 4.67583 25.7013 4.85127 25.6136L3.47702 23.7131C3.06768 24.0055 2.57061 24.1517 2.0443 24.1517C1.83963 24.1517 1.63495 24.1224 1.45952 24.0932C1.43028 24.4733 1.40104 24.8534 1.3718 25.2335C0.991689 31.8123 7.07345 27.5727 8.53541 27.0463C9.09096 26.8417 9.9389 26.5493 10.7868 26.1107C10.5822 25.906 10.4652 25.6136 10.4652 25.3212L6.10856 26.3738C6.07932 26.4908 6.05008 26.5493 6.02084 26.6078Z" fill="url(#paint1_linear)"/>
<path d="M8.00911 11.8419L9.5588 10.6139C9.44184 10.3215 9.4126 9.9706 9.50032 9.64897L7.71672 9.2981C7.71672 9.38581 7.68748 9.47353 7.65824 9.56125C7.57053 9.76592 7.45357 9.91212 7.30737 10.0583L7.57053 11.6957C7.65824 11.6957 7.74596 11.725 7.83368 11.7542C7.89216 11.7834 7.95064 11.8127 8.00911 11.8419Z" fill="url(#paint2_linear)"/>
<path d="M5.55313 25.5552C5.55313 25.5552 5.58236 25.5552 5.55313 25.5552L7.95074 20.9061C7.80455 20.7599 7.71683 20.5553 7.65835 20.3798L4.55899 21.4617C4.55899 21.5202 4.55899 21.5786 4.55899 21.6371C4.55899 22.3681 4.2666 23.0114 3.76953 23.4792L5.26073 25.5259C5.37769 25.4967 5.46541 25.5259 5.55313 25.5552Z" fill="url(#paint3_linear)"/>
<path d="M9.79272 11.0232L8.30151 12.1928C8.38923 12.3682 8.38923 12.5729 8.33075 12.7775L9.58804 13.5962C9.82195 13.0115 10.3775 12.6606 10.9623 12.6314V11.608C10.8161 11.608 10.6407 11.5787 10.4945 11.5203C10.2021 11.4325 9.96815 11.2279 9.79272 11.0232Z" fill="url(#paint4_linear)"/>
<path d="M8.38932 21.1985L5.9917 25.8475L10.5823 24.7072C10.6407 24.5902 10.7285 24.5025 10.8454 24.4148L9.00334 21.2277C8.82791 21.2862 8.59399 21.2862 8.38932 21.1985Z" fill="url(#paint5_linear)"/>
<path d="M30.2603 25.2334C30.2603 25.058 30.231 24.9118 30.231 24.7363H26.2837V21.2276H22.7165V17.1634H26.2837V13.5962H27.9504C26.81 10.2337 25.3773 7.45594 23.8276 6.46181C20.5528 4.35658 19.0909 8.56703 17.9798 8.45007C16.8687 8.30388 16.5763 5.52615 16.5763 3.42092C16.5763 1.3157 17.4535 0.0584106 17.4535 0.0584106H16.2254H15.319H14.091C14.091 0.0584106 14.9681 1.28646 14.9681 3.42092C14.9681 5.55539 14.6757 8.33312 13.5647 8.45007C12.4536 8.56703 10.9916 4.35658 7.7168 6.46181C7.16126 6.81268 6.63495 7.39746 6.10864 8.15768C6.3718 8.04072 6.66419 8.01149 6.95658 8.12844C7.30745 8.2454 7.54137 8.53779 7.62908 8.85942L9.61735 9.26877C9.99746 8.62551 10.8162 8.33312 11.5179 8.59627C12.3366 8.9179 12.746 9.82432 12.4243 10.643C12.2196 11.1401 11.8103 11.491 11.3132 11.6079V12.6898C11.3717 12.719 11.4302 12.719 11.5179 12.7482C12.3366 13.0699 12.746 13.9763 12.4243 14.795C12.1612 15.4967 11.4302 15.9061 10.7284 15.7891L9.52963 19.2686C9.73431 19.4733 9.88051 19.7657 9.90974 20.0581L11.5471 20.3797C11.5764 20.292 11.5764 20.175 11.6349 20.0873C11.9565 19.2686 12.8629 18.8592 13.6816 19.1809C13.7401 19.2101 13.7693 19.2101 13.7986 19.2394C13.8278 15.3505 13.7693 10.146 14.2079 9.56117C14.8512 8.68399 15.6114 8.04072 15.6114 8.04072L15.7576 7.89453L15.9038 8.04072C15.9038 8.04072 16.6348 8.68399 17.3073 9.56117C17.9798 10.4383 17.5412 20.9645 17.8921 23.1574C18.2429 25.3504 21.6347 26.5492 23.0966 27.0755C24.5586 27.6018 30.6404 31.8122 30.2603 25.2334Z" fill="url(#paint6_linear)"/>
<path d="M9.90923 20.5259C9.82152 20.7599 9.64608 20.9645 9.44141 21.0815L11.2542 24.2101C11.4882 24.1224 11.7513 24.1224 12.0145 24.2393C12.3069 24.3563 12.5408 24.5902 12.6577 24.8534C13.184 24.3563 13.5934 23.7715 13.6811 23.099C13.7103 22.8651 13.7396 22.485 13.7688 22.0756C13.4179 22.2218 12.9794 22.2511 12.5992 22.1049C12.0145 21.9002 11.6636 21.3739 11.5759 20.7891L9.90923 20.4675C9.90923 20.4967 9.90923 20.4967 9.90923 20.5259Z" fill="url(#paint7_linear)"/>
<path d="M7.71665 19.678C7.80436 19.4734 7.95056 19.2979 8.12599 19.1517L7.0149 17.6021C6.66403 17.836 6.22544 17.9529 5.78686 17.8652L4.29565 20.4383C4.38337 20.6137 4.44185 20.7891 4.50033 20.9938L7.65817 19.8827C7.68741 19.8242 7.68741 19.7658 7.71665 19.678Z" fill="url(#paint8_linear)"/>
<path d="M4.61729 15.7892C4.82196 15.2337 5.31903 14.8828 5.84534 14.7951L6.19621 10.2338C5.78686 10.0583 5.5237 9.67821 5.49446 9.26886C4.09098 11.7834 2.92141 15.4676 2.19043 19.0932C2.95065 19.1517 3.59391 19.5026 4.0325 20.0581L5.34827 17.7775C4.64653 17.3681 4.32489 16.5494 4.61729 15.7892Z" fill="url(#paint9_linear)"/>
<path d="M6.63462 14.8536C6.92701 14.9705 7.16093 15.146 7.33636 15.4091L9.50007 14.6489C9.44159 14.4735 9.44159 14.2688 9.44159 14.0641L8.06734 13.1577C7.83343 13.3624 7.54104 13.4208 7.24864 13.3039C6.81006 13.1284 6.60538 12.6606 6.78082 12.2513C6.83929 12.0758 6.98549 11.9296 7.16093 11.8127L6.92701 10.263C6.83929 10.2922 6.75158 10.2922 6.66386 10.2922L6.31299 14.7658C6.40071 14.7951 6.51766 14.8243 6.63462 14.8536Z" fill="url(#paint10_linear)"/>
<path d="M5.96234 25.906L5.99158 25.8475H5.93311C5.96234 25.8767 5.96234 25.906 5.96234 25.906Z" fill="url(#paint11_linear)"/>
<path d="M15.7871 0.35084C15.7871 0.35084 15.7578 0.321601 15.7286 0.263123C15.6993 0.321601 15.6701 0.35084 15.6701 0.35084L15.6409 1.72508C15.6993 1.69585 15.7578 1.69585 15.8163 1.66661L15.7871 0.35084Z" fill="#C661A5"/>
<path d="M29.0905 6.84198C26.5759 2.89469 22.5701 0.555546 18.2427 0C18.3597 0.0584785 18.5059 0.116957 18.6228 0.204675C18.6228 0.204675 18.3304 0.614024 18.0088 1.28653C21.1374 0.994134 24.1198 1.81283 26.342 3.83034C28.915 6.19872 29.9969 9.70743 29.646 13.4793H30.4939V17.0465H31.3711C31.8097 13.567 31.108 9.97058 29.0905 6.84198Z" fill="#64184F"/>
<path d="M6.9272 28.8299C6.86872 28.8591 6.83948 28.8591 6.78101 28.8883C11.8102 32.1924 18.5937 32.3386 24.0906 28.7129C22.8041 28.2743 21.7515 27.865 20.8451 27.4849C16.2253 30.5257 10.8745 31.0813 6.9272 28.8299Z" fill="#64184F"/>
<path d="M9.50035 4.79527C10.8746 3.74266 12.3366 2.92396 13.8278 2.30993C13.4769 1.25732 12.9798 0.438622 12.8336 0.233948C10.9623 0.643297 9.091 1.40352 7.39512 2.54385C1.31336 6.54962 -1.28893 13.9472 0.611618 20.4383C1.25488 17.4851 2.39521 12.953 3.88641 9.59051C6.28403 4.18125 9.50035 4.79527 9.50035 4.79527Z" fill="#64184F"/>
<defs>
<linearGradient id="paint0_linear" x1="8.85735" y1="15.0582" x2="8.85735" y2="19.0347" gradientUnits="userSpaceOnUse">
<stop stop-color="#943A7B"/>
<stop offset="0.939894" stop-color="#AB3B86"/>
</linearGradient>
<linearGradient id="paint1_linear" x1="6.07079" y1="23.7131" x2="6.07079" y2="28.8748" gradientUnits="userSpaceOnUse">
<stop stop-color="#943A7B"/>
<stop offset="0.939894" stop-color="#AB3B86"/>
</linearGradient>
<linearGradient id="paint2_linear" x1="8.43308" y1="9.2981" x2="8.43308" y2="11.8419" gradientUnits="userSpaceOnUse">
<stop stop-color="#943A7B"/>
<stop offset="0.939894" stop-color="#AB3B86"/>
</linearGradient>
<linearGradient id="paint3_linear" x1="5.86014" y1="20.3798" x2="5.86014" y2="25.5552" gradientUnits="userSpaceOnUse">
<stop stop-color="#943A7B"/>
<stop offset="0.939894" stop-color="#AB3B86"/>
</linearGradient>
<linearGradient id="paint4_linear" x1="9.6319" y1="11.0232" x2="9.6319" y2="13.5962" gradientUnits="userSpaceOnUse">
<stop stop-color="#943A7B"/>
<stop offset="0.939894" stop-color="#AB3B86"/>
</linearGradient>
<linearGradient id="paint5_linear" x1="8.41856" y1="21.1985" x2="8.41856" y2="25.8475" gradientUnits="userSpaceOnUse">
<stop stop-color="#943A7B"/>
<stop offset="0.939894" stop-color="#AB3B86"/>
</linearGradient>
<linearGradient id="paint6_linear" x1="18.193" y1="0.0584106" x2="18.193" y2="28.8861" gradientUnits="userSpaceOnUse">
<stop stop-color="#943A7B"/>
<stop offset="0.939894" stop-color="#AB3B86"/>
</linearGradient>
<linearGradient id="paint7_linear" x1="11.6051" y1="20.4675" x2="11.6051" y2="24.8534" gradientUnits="userSpaceOnUse">
<stop stop-color="#943A7B"/>
<stop offset="0.939894" stop-color="#AB3B86"/>
</linearGradient>
<linearGradient id="paint8_linear" x1="6.21082" y1="17.6021" x2="6.21082" y2="20.9938" gradientUnits="userSpaceOnUse">
<stop stop-color="#943A7B"/>
<stop offset="0.939894" stop-color="#AB3B86"/>
</linearGradient>
<linearGradient id="paint9_linear" x1="4.19332" y1="9.26886" x2="4.19332" y2="20.0581" gradientUnits="userSpaceOnUse">
<stop stop-color="#943A7B"/>
<stop offset="0.939894" stop-color="#AB3B86"/>
</linearGradient>
<linearGradient id="paint10_linear" x1="7.90653" y1="10.263" x2="7.90653" y2="15.4091" gradientUnits="userSpaceOnUse">
<stop stop-color="#943A7B"/>
<stop offset="0.939894" stop-color="#AB3B86"/>
</linearGradient>
<linearGradient id="paint11_linear" x1="5.96234" y1="25.8475" x2="5.96234" y2="25.906" gradientUnits="userSpaceOnUse">
<stop stop-color="#943A7B"/>
<stop offset="0.939894" stop-color="#AB3B86"/>
</linearGradient>
</defs>
</svg>
