<svg width="30" height="32" viewBox="0 0 30 32" fill="none" xmlns="http://www.w3.org/2000/svg">
<path d="M27.6034 21.9507C27.3406 21.9507 27.1277 21.7378 27.1277 21.475V17.8954C27.1277 17.6326 27.3406 17.4196 27.6034 17.4196C27.8661 17.4196 28.0791 17.6326 28.0791 17.8954V21.475C28.0791 21.7378 27.8661 21.9507 27.6034 21.9507Z" fill="#561143"/>
<path d="M19.5989 32H10.9954C9.26176 32 7.85132 30.5895 7.85132 28.8559V25.7549C7.85132 25.4921 8.06426 25.2791 8.32701 25.2791C8.58976 25.2791 8.80269 25.492 8.80269 25.7549V28.8559C8.80269 30.065 9.78626 31.0485 10.9953 31.0485H19.5988C20.8078 31.0485 21.7914 30.065 21.7914 28.8559V12.8534C21.7914 11.1197 23.2018 9.70929 24.9354 9.70929C26.6691 9.70929 28.0795 11.1197 28.0795 12.8534V15.947C28.0795 16.2098 27.8666 16.4228 27.6038 16.4228C27.3409 16.4228 27.1281 16.2099 27.1281 15.947V12.8534C27.1281 11.6443 26.1445 10.6607 24.9354 10.6607C23.7264 10.6607 22.7428 11.6443 22.7428 12.8534V28.8559C22.7429 30.5895 21.3325 32 19.5989 32Z" fill="#64184F"/>
<path d="M12.2791 24.325H4.37438C2.56826 24.325 1.07276 22.922 0.95751 21.1196L0.00788454 6.26879C-0.131803 4.08416 1.60245 2.23547 3.79157 2.23547H12.8619C15.0511 2.23547 16.7853 4.08416 16.6456 6.26879L15.696 21.1195C15.5807 22.922 14.0852 24.325 12.2791 24.325Z" fill="#943A7B"/>
<path d="M11.0183 20.0232H5.63463C4.79776 20.0232 4.11938 19.3448 4.11938 18.508V8.05236C4.11938 7.21548 4.79782 6.53711 5.63463 6.53711H11.0183C11.8552 6.53711 12.5336 7.21555 12.5336 8.05236V18.508C12.5336 19.3449 11.8552 20.0232 11.0183 20.0232Z" fill="#F6F6F6"/>
<path d="M11.6176 2.23544H5.03662V1.31525C5.03662 0.588875 5.62543 0 6.35181 0H10.3024C11.0287 0 11.6176 0.588875 11.6176 1.31525V2.23544Z" fill="#64184F"/>
<path d="M9.76718 26.3892H6.88644C6.35444 26.3892 5.87856 26.0584 5.69325 25.5597L5.23438 24.325H11.4192L10.9604 25.5597C10.775 26.0584 10.2991 26.3892 9.76718 26.3892Z" fill="#64184F"/>
<path d="M6.87632 10.6607C6.61357 10.6607 6.40063 10.4477 6.40063 10.185V8.65867C6.40063 8.39592 6.61357 8.18292 6.87632 8.18292C7.13908 8.18292 7.35201 8.39586 7.35201 8.65867V10.185C7.35201 10.4477 7.13908 10.6607 6.87632 10.6607Z" fill="#64184F"/>
<path d="M7.63951 9.89754H6.1132C5.85045 9.89754 5.63745 9.6846 5.63745 9.42185C5.63745 9.1591 5.85039 8.94617 6.1132 8.94617H7.63951C7.90226 8.94617 8.1152 9.1591 8.1152 9.42185C8.1152 9.6846 7.90226 9.89754 7.63951 9.89754Z" fill="#64184F"/>
<path d="M10.5151 12.2196H7.90049C7.63774 12.2196 7.4248 12.0066 7.4248 11.7439C7.4248 11.4811 7.63774 11.2682 7.90049 11.2682H10.5151C10.7779 11.2682 10.9908 11.4811 10.9908 11.7439C10.9908 12.0066 10.7779 12.2196 10.5151 12.2196Z" fill="#943A7B"/>
<path d="M10.5151 14.5852H7.90049C7.63774 14.5852 7.4248 14.3722 7.4248 14.1095C7.4248 13.8467 7.63774 13.6338 7.90049 13.6338H10.5151C10.7779 13.6338 10.9908 13.8467 10.9908 14.1095C10.9908 14.3722 10.7779 14.5852 10.5151 14.5852Z" fill="#943A7B"/>
<path d="M10.5151 16.9506H7.90049C7.63774 16.9506 7.4248 16.7377 7.4248 16.475C7.4248 16.2122 7.63774 15.9992 7.90049 15.9992H10.5151C10.7779 15.9992 10.9908 16.2121 10.9908 16.475C10.9908 16.7378 10.7779 16.9506 10.5151 16.9506Z" fill="#943A7B"/>
<path d="M28.2653 18.5298H26.9417C26.7602 18.5298 26.6044 18.4009 26.5705 18.2227L26.1145 15.8294C26.0701 15.5965 26.2486 15.3808 26.4857 15.3808H28.7213C28.9584 15.3808 29.1369 15.5965 29.0925 15.8294L28.6365 18.2227C28.6025 18.4009 28.4467 18.5298 28.2653 18.5298Z" fill="#943A7B"/>
</svg>
