<svg width="32" height="32" viewBox="0 0 32 32" fill="none" xmlns="http://www.w3.org/2000/svg">
<path d="M16 32C24.8366 32 32 24.8366 32 16C32 7.16344 24.8366 0 16 0C7.16344 0 0 7.16344 0 16C0 24.8366 7.16344 32 16 32Z" fill="#943A7B"/>
<path d="M16.1216 29.2015C23.3454 29.2015 29.2014 23.3455 29.2014 16.1217C29.2014 8.89786 23.3454 3.04181 16.1216 3.04181C8.8978 3.04181 3.04175 8.89786 3.04175 16.1217C3.04175 23.3455 8.8978 29.2015 16.1216 29.2015Z" fill="#64184F"/>
<path d="M19.5001 9.12549H12.9258V22.9353H19.5001V9.12549Z" fill="#FFEDFA"/>
<path d="M23.1177 12.7433H9.30786V19.3176H23.1177V12.7433Z" fill="#FFEDFA"/>
</svg>
