<svg width="18" height="18" viewBox="0 0 18 18" fill="none" xmlns="http://www.w3.org/2000/svg">
<path d="M14.9766 17.4368H3.02344C2.13173 17.4368 1.40625 16.7114 1.40625 15.8196V7.3111C1.40625 7.00046 1.65807 6.7486 1.96875 6.7486C2.27943 6.7486 2.53125 7.00046 2.53125 7.3111V15.8196C2.53125 16.091 2.75203 16.3118 3.02344 16.3118H14.9766C15.248 16.3118 15.4688 16.091 15.4688 15.8196V7.3111C15.4688 7.00046 15.7206 6.7486 16.0312 6.7486C16.3419 6.7486 16.5938 7.00046 16.5938 7.3111V15.8196C16.5938 16.7113 15.8683 17.4368 14.9766 17.4368Z" fill="#943A7B"/>
<path d="M17.4375 9.27966C17.2935 9.27966 17.1496 9.22475 17.0398 9.11489L10.0441 2.11925C9.46838 1.54353 8.53164 1.54353 7.95592 2.11925L0.960249 9.11492C0.740593 9.33461 0.384425 9.33461 0.164769 9.11492C-0.0549229 8.89527 -0.0549229 8.5391 0.164769 8.31944L7.16044 1.32373C8.17477 0.309406 9.82525 0.309406 10.8395 1.32373L17.8352 8.31941C18.0549 8.5391 18.0549 8.89523 17.8352 9.11489C17.7254 9.22475 17.5815 9.27966 17.4375 9.27966Z" fill="#943A7B"/>
<path d="M11.25 17.4368H6.75C6.43932 17.4368 6.1875 17.1849 6.1875 16.8743V11.8821C6.1875 10.9129 6.97605 10.1243 7.94531 10.1243H10.0547C11.0239 10.1243 11.8125 10.9129 11.8125 11.8821V16.8743C11.8125 17.1849 11.5607 17.4368 11.25 17.4368ZM7.3125 16.3118H10.6875V11.8821C10.6875 11.5332 10.4036 11.2493 10.0547 11.2493H7.94531C7.59639 11.2493 7.3125 11.5332 7.3125 11.8821V16.3118Z" fill="#943A7B"/>
</svg>
