<svg width="22" height="22" viewBox="0 0 22 22" fill="none" xmlns="http://www.w3.org/2000/svg">
<g clip-path="url(#clip0)">
<path d="M20.4761 1.48742H1.52389C0.68366 1.48742 0 2.17108 0 3.01131V15.8693C0 16.7095 0.68366 17.3932 1.52389 17.3932H12.5752L12.2415 19.4282C12.1787 19.8113 12.3055 20.1583 12.5805 20.3563C12.8555 20.5543 13.2246 20.5649 13.5681 20.3839L15.9524 19.1289C16.019 19.0948 16.2023 19.0948 16.2688 19.1289L18.6531 20.3839C18.8162 20.4698 18.9851 20.5125 19.147 20.5125C19.3261 20.5125 19.4964 20.4602 19.6408 20.3562C19.9158 20.1582 20.0425 19.8111 19.9798 19.428L19.6462 17.3931H20.4762C21.3164 17.3931 22.0001 16.7094 22.0001 15.8692V3.01131C22 2.171 21.3163 1.48742 20.4761 1.48742ZM16.1106 14.7811C14.6462 14.7811 13.4547 13.5896 13.4547 12.1252C13.4547 10.6608 14.6462 9.46929 16.1106 9.46929C17.5751 9.46929 18.7666 10.6608 18.7666 12.1252C18.7666 13.5896 17.5751 14.7811 16.1106 14.7811ZM16.8772 17.9731C16.433 17.7392 15.7882 17.7392 15.3441 17.9731L13.6584 18.8604L14.1943 15.5915C14.7627 15.907 15.4159 16.0872 16.1107 16.0872C16.8055 16.0872 17.4587 15.9069 18.0272 15.5915L18.236 16.8659C18.2365 16.868 18.2367 16.8703 18.2371 16.8723L18.5631 18.8605L16.8772 17.9731ZM20.6938 15.8693C20.6938 15.9873 20.5941 16.087 20.4761 16.087H19.4319L19.1934 14.632C19.1925 14.6262 19.1909 14.6207 19.1898 14.615C19.7414 13.9342 20.0728 13.0678 20.0728 12.1252C20.0728 9.94048 18.2955 8.1631 16.1107 8.1631C13.926 8.1631 12.1486 9.94048 12.1486 12.1252C12.1486 13.0678 12.48 13.934 13.0317 14.615C13.0306 14.6206 13.029 14.6262 13.028 14.6319L12.7893 16.0881C12.782 16.0878 12.775 16.087 12.7677 16.087H1.52389C1.4059 16.087 1.30619 15.9873 1.30619 15.8693V3.01131C1.30619 2.89332 1.4059 2.79361 1.52389 2.79361H20.4761C20.5941 2.79361 20.6938 2.89332 20.6938 3.01131V15.8693Z" fill="#A5A5A5"/>
<path d="M18.1666 5.24595H3.36306C3.00229 5.24595 2.70996 5.53827 2.70996 5.89905C2.70996 6.25982 3.00229 6.55214 3.36306 6.55214H18.1666C18.5273 6.55214 18.8196 6.25982 18.8196 5.89905C18.8196 5.53827 18.5273 5.24595 18.1666 5.24595Z" fill="#A5A5A5"/>
<path d="M9.63277 8.78727H3.36306C3.00229 8.78727 2.70996 9.07959 2.70996 9.44036C2.70996 9.80113 3.00229 10.0935 3.36306 10.0935H9.63277C9.99354 10.0935 10.2859 9.80113 10.2859 9.44036C10.2859 9.07959 9.99354 8.78727 9.63277 8.78727Z" fill="#A5A5A5"/>
</g>
<defs>
<clipPath id="clip0">
<rect width="22" height="22" fill="white"/>
</clipPath>
</defs>
</svg>
