<svg width="18" height="20" viewBox="0 0 18 20" fill="none" xmlns="http://www.w3.org/2000/svg">
<path d="M15.2 10.0761V8.24144C15.2 5.565 13.3435 3.29654 10.8 2.55561V1.72495C10.8 0.773814 9.99252 0 9 0C8.00749 0 7.20001 0.773814 7.20001 1.72495V2.55561C4.65642 3.29654 2.80003 5.56497 2.80003 8.24144V10.0761C2.80003 12.4271 1.86492 14.6564 0.166966 16.3532C0.000566747 16.5195 -0.0461931 16.7649 0.0481265 16.9768C0.142446 17.1887 0.359645 17.3262 0.600044 17.3262H6.06038C6.3391 18.6369 7.55125 19.6261 9 19.6261C10.4488 19.6261 11.6609 18.6369 11.9396 17.3262H17.4C17.6404 17.3262 17.8575 17.1887 17.9518 16.9768C18.0462 16.7649 17.9994 16.5195 17.833 16.3532C16.1351 14.6564 15.2 12.4271 15.2 10.0761ZM8.40001 1.72495C8.40001 1.40791 8.66916 1.14997 9 1.14997C9.33084 1.14997 9.6 1.40791 9.6 1.72495V2.32784C9.40252 2.3096 9.2024 2.29994 9 2.29994C8.7976 2.29994 8.59748 2.3096 8.40001 2.32784V1.72495ZM9 18.4762C8.21781 18.4762 7.55089 17.9954 7.30321 17.3262H10.6968C10.4491 17.9954 9.7822 18.4762 9 18.4762ZM1.89324 16.1762C3.25967 14.4209 4.00003 12.2967 4.00003 10.0761V8.24144C4.00003 5.59939 6.24302 3.44991 9 3.44991C11.757 3.44991 14 5.59939 14 8.24144V10.0761C14 12.2967 14.7403 14.4209 16.1068 16.1762H1.89324Z" fill="#A5A5A5"/>
<path d="M16.8001 8.2414C16.8001 8.55894 17.0688 8.81638 17.4001 8.81638C17.7315 8.81638 18.0001 8.55894 18.0001 8.2414C18.0001 5.93763 17.064 3.77175 15.3641 2.14275C15.1298 1.91824 14.7499 1.9182 14.5156 2.14275C14.2813 2.3673 14.2813 2.73134 14.5156 2.95589C15.9888 4.3677 16.8001 6.24479 16.8001 8.2414Z" fill="#A5A5A5"/>
<path d="M0.600485 8.81638C0.931844 8.81638 1.20048 8.55894 1.20048 8.2414C1.20048 6.24482 2.01184 4.36772 3.48503 2.95591C3.71935 2.73136 3.71935 2.36731 3.48503 2.14276C3.25075 1.91821 2.87083 1.91821 2.63652 2.14276C0.936644 3.77177 0.000488281 5.93762 0.000488281 8.2414C0.000488281 8.55894 0.269127 8.81638 0.600485 8.81638Z" fill="#A5A5A5"/>
</svg>
