<svg width="15" height="17" viewBox="0 0 15 17" fill="none" xmlns="http://www.w3.org/2000/svg">
<path d="M6.12827 13.1719C7.44829 13.1719 8.68085 12.7425 9.68283 12.0268L13.4521 15.796C13.627 15.971 13.8576 16.0585 14.0962 16.0585C14.6131 16.0585 14.9868 15.6609 14.9868 15.1519C14.9868 14.9133 14.9074 14.6907 14.7323 14.5158L10.9869 10.7624C11.7742 9.72864 12.2433 8.44835 12.2433 7.05677C12.2433 3.69305 9.49195 0.94165 6.12827 0.94165C2.75661 0.94165 0.0131836 3.69305 0.0131836 7.05677C0.0131836 10.4204 2.75661 13.1719 6.12827 13.1719ZM6.12827 11.8518C3.49616 11.8518 1.33321 9.68094 1.33321 7.05677C1.33321 4.4326 3.49616 2.26171 6.12827 2.26171C8.75244 2.26171 10.9233 4.4326 10.9233 7.05677C10.9233 9.68094 8.75244 11.8518 6.12827 11.8518Z" fill="#A5A5A5"/>
</svg>
