<svg width="235" height="189" viewBox="0 0 235 189" fill="none" xmlns="http://www.w3.org/2000/svg">
<path fill-rule="evenodd" clip-rule="evenodd" d="M64.8621 31.8291L69.5203 39.147C69.5203 39.147 68.6922 45.0496 67.6915 52.8508L53.855 48.8122C54.8211 41.8394 55.5802 36.9723 55.5802 36.9723L64.8621 31.8291Z" fill="#EF9F79"/>
<path fill-rule="evenodd" clip-rule="evenodd" d="M74.9709 34.8701C77.2828 32.1086 80.1812 30.9005 81.3199 30.5898C82.7691 30.1411 79.9052 24.9978 75.592 28.6568C75.592 28.6568 73.0387 29.5197 72.4521 28.5187C71.8655 27.5177 78.0764 13.1925 78.7665 11.6047C79.4566 10.0514 77.8004 8.94676 77.1103 9.11935C76.4202 9.29195 75.454 11.5702 74.0393 14.3662C72.6246 17.1621 71.0029 20.3033 70.6233 20.4414C70.2438 20.5795 69.6227 20.2343 69.7952 18.4048C69.9677 16.5753 71.3134 6.46144 70.8303 5.633C70.3128 4.80455 68.553 4.80455 67.8974 6.25433C67.1728 7.7041 66.2067 17.9561 65.6546 19.2332C65.1025 20.5104 63.9638 19.7855 63.7913 18.819C63.6188 17.8525 63.1012 6.59951 62.6526 5.80559C62.2041 5.01166 60.4098 5.0807 60.0993 6.7721C59.8232 8.46351 59.8577 19.2678 59.4437 19.9236C59.0296 20.5795 57.8219 20.614 56.9248 18.681C55.9932 16.7479 54.5785 12.5367 54.0264 12.1915C53.4743 11.8463 51.7836 13.158 52.3356 15.2981C52.9222 17.4383 54.1299 22.7886 54.2334 23.6171C54.682 27.9319 53.8884 31.936 54.682 35.2498C54.958 36.4579 55.5791 37.597 56.4417 38.5981C58.443 40.9798 61.721 42.6367 64.93 42.6712C70.4508 42.7748 71.7965 38.6326 74.9709 34.8701Z" fill="#FAB382"/>
<path fill-rule="evenodd" clip-rule="evenodd" d="M54.8216 41.7715C54.8216 41.7715 60.86 45.3614 68.6927 44.9472C68.6927 44.9472 69.4173 45.7756 69.4173 46.3279C69.4173 46.8802 68.9342 49.0549 68.9342 49.0549C68.9342 49.0549 71.5566 51.4366 70.97 55.5098C70.3834 59.6175 68.2786 87.2322 68.2786 87.2322C68.2786 87.2322 89.3267 73.9426 92.6047 71.7335C92.6047 71.7335 93.9504 70.8705 95.4686 70.4563L95.1235 79.6727L89.4647 108.668L61.8607 113.915C61.8607 113.915 48.5762 115.952 47.6791 102.386C46.8164 88.7855 50.888 49.6072 50.888 49.6072C50.888 49.6072 51.3366 46.6041 53.4069 46.1898L53.6484 42.9796C53.6484 42.9106 53.7175 41.9096 54.8216 41.7715Z" fill="white"/>
<path fill-rule="evenodd" clip-rule="evenodd" d="M67.8383 76.5978C67.3553 82.7766 66.9412 87.9199 66.9412 87.9199L57.5903 93.4428L67.8383 76.5978ZM94.0277 73.5947L93.7862 80.3603L88.1273 109.356L76.7406 111.496L94.0277 73.5947Z" fill="#EDEDED"/>
<path fill-rule="evenodd" clip-rule="evenodd" d="M166.686 78.1534C168.48 92.8583 165.099 118.367 165.099 118.367L156.093 138.699C156.093 138.699 164.892 181.225 164.374 185.437H136.08C128.834 181.985 119.587 179.43 107.993 179.43H85.8063C85.8063 179.43 82.5283 177.049 82.2867 172.803C82.0107 168.592 89.4983 144.187 89.6708 139.7C90.3264 122.889 88.0836 103.455 91.1545 87.3008C91.3616 86.1617 91.6376 85.0916 91.9827 84.0561L95.4677 70.4558C95.4677 70.4558 103.3 67.6253 108.89 66.3136C112.651 68.2812 114.618 65.8304 120.415 65.071C126.074 64.9329 132.457 64.8293 140.704 65.7613C140.876 65.7959 150.02 67.4873 158.957 72.5615C161.579 74.1148 164.409 76.1169 166.686 78.1534Z" fill="white"/>
<path fill-rule="evenodd" clip-rule="evenodd" d="M141.223 72.3564L152.195 89.8573L121.072 136.802L112.307 137.665L99.5059 93.4817L107.131 84.1963L141.223 72.3564Z" fill="#C6C6C7"/>
<path fill-rule="evenodd" clip-rule="evenodd" d="M103.853 67.7305C105.578 67.2127 107.338 66.7295 108.925 66.3498C112.686 68.3173 114.653 65.8665 120.45 65.1071C126.109 64.969 132.492 64.8655 140.739 65.7975C140.843 65.832 144.155 66.4533 148.744 68.0066L152.367 79.087L146.363 82.0211L127.213 90.8233L115.964 90.3745L99.4709 84.0922L103.853 67.7305Z" fill="#DFDFDF"/>
<path fill-rule="evenodd" clip-rule="evenodd" d="M163.727 119.089L154.755 139.351C154.755 139.351 163.554 181.878 163.037 186.089H134.743C130.084 183.88 124.598 182.016 118.215 180.98L114.281 171.867L126.634 153.849C126.634 153.849 151.719 140.11 152.823 138.453C153.927 136.762 153.617 134.346 153.617 134.346L153.341 98.4121L163.727 119.089Z" fill="#EDEDED"/>
<path fill-rule="evenodd" clip-rule="evenodd" d="M121.312 67.4561L111.823 72.3577L116.93 133.352L133.493 87.2006L138.841 71.3912L121.312 67.4561Z" fill="#EDEDED"/>
<path fill-rule="evenodd" clip-rule="evenodd" d="M125.005 39.2529C118.967 39.2529 113.998 44.7068 113.998 51.3689V67.3854C113.998 74.0475 118.967 79.5014 125.005 79.5014C131.078 79.5014 136.012 74.0475 136.012 67.3854V51.3689C136.012 44.7068 131.078 39.2529 125.005 39.2529Z" fill="#EF9F79"/>
<path fill-rule="evenodd" clip-rule="evenodd" d="M158.957 72.6299C158.957 72.6299 172.173 79.8787 176.106 89.3713C180.04 98.8639 179.626 127.376 179.453 140.942C179.453 140.942 179.074 149.261 172.725 156.302C166.376 163.31 142.257 184.159 142.257 184.159L128.351 182.433L126.039 168.729L160.061 139.147L154.644 97.7938C154.713 97.7593 153.126 80.0859 158.957 72.6299Z" fill="white"/>
<path fill-rule="evenodd" clip-rule="evenodd" d="M60.1 185.441H143.913C145.466 185.441 146.777 184.164 146.777 182.576C146.777 181.023 145.5 179.711 143.913 179.711H60.1C58.5473 179.711 57.2361 180.988 57.2361 182.576C57.2706 184.164 58.5473 185.441 60.1 185.441Z" fill="#00343E"/>
<path fill-rule="evenodd" clip-rule="evenodd" d="M60.1011 185.44H143.914C144.915 185.44 145.812 184.888 146.329 184.094C145.812 183.3 144.915 182.748 143.914 182.748H60.1011C59.1005 182.748 58.2034 183.3 57.6858 184.094C58.2034 184.888 59.1005 185.44 60.1011 185.44Z" fill="#004651"/>
<path fill-rule="evenodd" clip-rule="evenodd" d="M57.8916 179.744H129.662C131.698 179.744 133.182 178.052 132.94 176.016L127.212 129.485C126.971 127.448 125.073 125.757 123.037 125.757H51.2667C49.2309 125.757 47.7471 127.448 47.9887 129.485L53.7165 176.016C53.958 178.052 55.8558 179.744 57.8916 179.744Z" fill="#002E34"/>
<path fill-rule="evenodd" clip-rule="evenodd" d="M57.8916 179.75H127.557C129.593 179.75 131.077 178.059 130.835 176.022L125.107 129.526C124.866 127.489 122.968 125.798 120.932 125.798H51.2667C49.2309 125.798 47.7471 127.489 47.9887 129.526L53.7165 176.022C53.958 178.059 55.8558 179.75 57.8916 179.75Z" fill="#004651"/>
<path fill-rule="evenodd" clip-rule="evenodd" d="M112.756 175.979H106.579L57.8582 135.075L58.1342 132.728C58.2377 132.037 58.5138 131.382 58.9968 130.864L112.756 175.979ZM66.0013 129.518L119.139 174.15C119.381 173.736 119.553 173.287 119.622 172.769L120.381 166.556L76.2839 129.518H66.0013Z" fill="#02373D"/>
<path fill-rule="evenodd" clip-rule="evenodd" d="M133.562 185.441H143.948C145.5 185.441 146.812 184.164 146.812 182.576C146.812 181.023 145.535 179.711 143.948 179.711H133.562C132.009 179.711 130.698 180.988 130.698 182.576C130.698 184.164 131.974 185.441 133.562 185.441Z" fill="#002E34"/>
<path fill-rule="evenodd" clip-rule="evenodd" d="M58.6867 181.158H133.356C134.149 181.158 134.77 180.502 134.77 179.742C134.77 178.948 134.115 178.327 133.356 178.327H58.6867C57.8931 178.327 57.272 178.983 57.272 179.742C57.272 180.536 57.8931 181.158 58.6867 181.158Z" fill="#003F4A"/>
<path fill-rule="evenodd" clip-rule="evenodd" d="M86.1523 145.57C82.1842 145.57 79.3893 148.781 79.8724 152.75C80.3555 156.72 83.9785 159.93 87.9466 159.93C91.9146 159.93 94.7095 156.72 94.2265 152.75C94.1575 152.129 93.9849 151.542 93.7779 150.955C93.2258 151.611 92.3632 152.06 91.3626 152.06C89.3958 152.06 87.636 150.472 87.3945 148.504C87.2565 147.469 87.6015 146.502 88.2226 145.881C87.5325 145.674 86.8424 145.57 86.1523 145.57Z" fill="#00A9B8"/>
<path d="M136.012 65.4144L122.589 79.1873L133.493 87.1955L140.739 65.8287L136.012 61.8936V65.4144Z" fill="white"/>
<path d="M113.997 65.4158L122.588 79.1887L112.754 83.3309L108.924 66.3478L113.997 62.5508V65.4158Z" fill="white"/>
<path fill-rule="evenodd" clip-rule="evenodd" d="M100.747 104.179C101.989 104.179 103.024 103.178 103.024 101.901C103.024 100.659 102.024 99.623 100.747 99.623C99.5046 99.623 98.4695 100.624 98.4695 101.901C98.4695 103.178 99.5046 104.179 100.747 104.179Z" fill="#00A9B8"/>
<path fill-rule="evenodd" clip-rule="evenodd" d="M135.252 115.607C136.218 115.607 137.012 114.813 137.012 113.846C137.012 112.88 136.218 112.086 135.252 112.086C134.286 112.086 133.492 112.88 133.492 113.846C133.527 114.813 134.286 115.607 135.252 115.607Z" fill="#00A9B8"/>
<path fill-rule="evenodd" clip-rule="evenodd" d="M153.954 115.607C154.92 115.607 155.713 114.813 155.713 113.846C155.713 112.88 154.92 112.086 153.954 112.086C152.987 112.086 152.194 112.88 152.194 113.846C152.194 114.813 152.987 115.607 153.954 115.607Z" fill="#00A9B8"/>
<path fill-rule="evenodd" clip-rule="evenodd" d="M154.369 113.568C154.369 113.81 154.196 113.983 153.954 113.983C153.713 113.983 153.54 113.81 153.54 113.568V94.5832C153.54 92.1324 152.54 89.8887 150.918 88.2663C149.296 86.6439 147.053 85.6429 144.604 85.6429C142.154 85.6429 139.911 86.6439 138.289 88.2663C136.667 89.8887 135.667 92.1324 135.667 94.5832V113.568C135.667 113.81 135.494 113.983 135.253 113.983C135.011 113.983 134.839 113.81 134.839 113.568V94.5832C134.839 91.8907 135.943 89.4399 137.703 87.6795C139.462 85.919 141.912 84.8145 144.604 84.8145C147.295 84.8145 149.745 85.919 151.505 87.6795C153.264 89.4399 154.369 91.8907 154.369 94.5832V113.568Z" fill="#A3E4E1"/>
<path fill-rule="evenodd" clip-rule="evenodd" d="M155.196 94.5845C155.196 95.2749 154.644 95.8272 153.954 95.8272C153.264 95.8272 152.712 95.2749 152.712 94.5845C152.712 92.3408 151.815 90.3387 150.331 88.8544C148.847 87.3701 146.846 86.4726 144.603 86.4726C142.36 86.4726 140.359 87.3701 138.875 88.8544C137.392 90.3387 136.495 92.3408 136.495 94.5845C136.495 95.2749 135.943 95.8272 135.252 95.8272C134.562 95.8272 134.01 95.2749 134.01 94.5845C134.01 91.6849 135.218 89.027 137.116 87.094C139.048 85.1609 141.67 83.9873 144.603 83.9873C147.502 83.9873 150.159 85.1955 152.091 87.094C154.023 88.9925 155.196 91.6504 155.196 94.5845Z" fill="#00A9B8"/>
<path fill-rule="evenodd" clip-rule="evenodd" d="M113.997 62.6553H113.721C110.271 62.6553 107.131 64.0705 104.853 66.3487C102.576 68.6269 101.161 71.7681 101.161 75.2199V101.592C101.161 101.834 100.989 102.006 100.747 102.006C100.506 102.006 100.333 101.834 100.333 101.592V75.2545C100.333 71.561 101.851 68.2127 104.267 65.7964C106.682 63.3801 110.029 61.8613 113.721 61.8613H113.997V62.6553Z" fill="#141A2D"/>
<path fill-rule="evenodd" clip-rule="evenodd" d="M136.012 61.8262H136.84C139.083 61.8262 141.153 62.7582 142.637 64.2425C144.12 65.7268 145.052 67.7633 145.052 70.0415V85.851C145.052 86.0926 144.88 86.2652 144.638 86.2652C144.396 86.2652 144.224 86.0926 144.224 85.851V70.0415C144.224 68.005 143.396 66.1755 142.05 64.8293C140.704 63.4831 138.876 62.6546 136.84 62.6546H136.012V61.8262Z" fill="#141A2D"/>
<path fill-rule="evenodd" clip-rule="evenodd" d="M102.265 35.3202C102.127 35.3547 101.989 35.3892 101.851 35.4237C99.2635 36.1141 97.3657 38.4959 97.4347 41.2919C97.5382 44.5366 100.23 47.1255 103.508 47.0219C106.751 46.9183 109.339 44.2259 109.235 40.9467C109.166 39.0482 108.235 37.3913 106.82 36.3557C107.062 38.0816 106.889 40.2563 104.681 40.567L104.577 37.1496C104.508 35.8034 103.197 35.2511 102.265 35.3202Z" fill="#EF9F79"/>
<path fill-rule="evenodd" clip-rule="evenodd" d="M144.777 33.3164C144.915 33.3164 145.053 33.3509 145.225 33.3854C147.882 33.7997 149.987 36.0088 150.159 38.8048C150.366 42.0496 147.917 44.8801 144.673 45.0872C141.43 45.2943 138.6 42.8435 138.393 39.5988C138.255 37.7002 139.049 35.9743 140.36 34.8007C140.291 36.5611 140.671 38.7013 142.913 38.8048L142.706 35.422C142.568 34.0413 143.811 33.3164 144.777 33.3164Z" fill="#EF9F79"/>
<path fill-rule="evenodd" clip-rule="evenodd" d="M122.141 4.9069C111.065 5.42468 102.404 14.9172 102.921 26.0322L103.784 44.3959C104.302 55.4764 113.791 64.1405 124.901 63.6227C135.977 63.1049 144.638 53.6124 144.12 42.4974L143.258 24.1336C142.706 13.0187 133.217 4.38912 122.141 4.9069Z" fill="#FAB382"/>
<path fill-rule="evenodd" clip-rule="evenodd" d="M114.584 20.0264C112.41 20.13 108.269 21.3381 108.476 25.6874C108.683 30.0367 108.028 33.4886 105.267 33.6267C105.267 33.6267 105.336 35.1109 105.44 37.044C105.543 38.9425 105.44 40.8755 103.646 40.9791C103.439 36.8714 102.127 35.3526 102.127 35.3526C102.127 35.3526 101.886 29.8641 101.644 25.1006C101.437 20.3026 102.473 13.8131 108.545 9.11859C116.413 3.04336 127.73 2.49106 136.115 7.84141C142.602 11.9491 144.258 18.335 144.465 23.0985C144.672 27.8966 144.948 33.3505 144.948 33.3505C144.948 33.3505 143.775 35.0074 143.982 39.1151C142.188 39.1841 141.912 37.2856 141.808 35.3871C141.705 33.4886 141.636 31.9698 141.636 31.9698C138.875 32.1078 137.875 28.6905 137.668 24.3757C137.461 20.0264 133.217 19.198 131.043 19.3015C125.556 19.5086 120.07 19.7848 114.584 20.0264Z" fill="#141A2D"/>
<path fill-rule="evenodd" clip-rule="evenodd" d="M110.236 21.5794C109.167 22.4423 108.373 23.754 108.476 25.7216C108.684 30.0709 108.028 33.5227 105.268 33.6608L105.302 34.0405L105.337 34.6618L105.406 36.0771C105.44 36.9746 104.75 37.734 103.853 37.7685C102.956 37.803 102.197 37.1126 102.162 36.2151L102.024 34.1786V34.1095L101.61 25.0657C101.541 23.8576 101.575 22.5459 101.748 21.1651C105.406 19.1631 110.236 21.5794 110.236 21.5794ZM141.636 32.2455V32.3146L141.739 34.3512C141.774 35.2486 142.533 35.939 143.43 35.9045C144.327 35.87 145.017 35.1106 144.983 34.2131L144.914 32.7978L144.879 32.1765L144.465 23.0636C144.396 21.8555 144.258 20.5438 143.982 19.1976C140.187 17.5407 135.597 20.3712 135.563 20.4057C136.736 21.1651 137.633 22.4078 137.702 24.3408C137.909 28.6901 138.875 32.0729 141.67 31.9349L141.636 32.2455Z" fill="#141A2D"/>
<path fill-rule="evenodd" clip-rule="evenodd" d="M118.172 14.8475L120.622 19.7491C120.622 19.7491 110.857 26.5492 103.163 21.7166C95.4335 16.9186 97.7799 6.07981 102.68 2.17923C107.545 -1.72135 114.48 0.142641 116.93 3.629C116.93 3.629 129.939 1.69597 134.39 2.38634C138.841 3.0767 141.567 6.42499 141.981 12.2586C141.981 12.2586 145.466 13.8464 145.88 19.7146C146.294 25.6172 144.914 33.4874 144.914 33.4874L140.808 23.9603C140.842 23.9603 142.153 9.18646 118.172 14.8475Z" fill="#141A2D"/>
<path fill-rule="evenodd" clip-rule="evenodd" d="M89.6025 109.115L61.9295 114.327C61.895 114.327 48.1964 116.433 47.2993 102.384C46.4367 88.7492 50.4738 49.6399 50.5083 49.5363V49.5018C50.5083 49.5018 50.9569 46.4987 53.0617 45.8083L53.2687 42.8743C53.2687 42.7707 53.4067 41.4935 54.8214 41.3555L54.9249 42.1839C54.1313 42.2875 54.0968 42.9433 54.0968 42.9433C54.0968 44.0134 53.9243 45.3596 53.8208 46.4642L53.5102 46.5332C51.716 46.9129 51.3019 49.6054 51.3019 49.6399C51.2329 50.4338 47.2303 88.9218 48.0929 102.349C48.9556 115.466 61.7224 113.533 61.7914 113.499L89.43 108.287L89.6025 109.115Z" fill="#C5D2EB"/>
<path fill-rule="evenodd" clip-rule="evenodd" d="M175.727 89.5099C175.623 89.3028 175.727 89.0612 175.934 88.9576C176.141 88.8541 176.382 88.9576 176.486 89.1647C180.351 98.4502 180.04 125.616 179.902 139.665V140.942C179.902 140.977 179.522 149.434 173.07 156.545C170.724 159.133 165.996 163.586 160.959 168.143C155.955 172.699 150.573 177.428 146.915 180.638C146.743 180.776 146.467 180.776 146.329 180.604C146.191 180.431 146.191 180.155 146.363 180.017C149.986 176.876 155.334 172.147 160.372 167.556C165.41 162.965 170.137 158.547 172.449 155.992C178.694 149.089 179.074 140.942 179.074 140.908V139.665C179.246 125.685 179.522 98.6573 175.727 89.5099Z" fill="#C5D2EB"/>
<path d="M230.361 178.724H-0.361794C-2.96371 178.724 -5 180.823 -5 183.376C-5 185.986 -2.90715 188.028 -0.361794 188.028H230.361C232.963 188.028 234.999 185.929 234.999 183.376C235.055 180.823 232.963 178.724 230.361 178.724Z" fill="#DADADA"/>
</svg>
