<svg width="247" height="209" viewBox="0 0 247 209" fill="none" xmlns="http://www.w3.org/2000/svg">
<mask id="mask0" mask-type="alpha" maskUnits="userSpaceOnUse" x="0" y="0" width="247" height="209">
<rect y="0.705811" width="247" height="208.255" fill="#C4C4C4"/>
</mask>
<g mask="url(#mask0)">
<path d="M17.652 84.3845L16.0376 86.0527L81.5814 127.488L83.0881 125.444L80.5051 84.3845H17.652Z" fill="#8A7E7C"/>
<path d="M16.0361 86.0528L79.1045 85.999L81.5799 127.489L18.0272 127.596L16.0361 86.0528Z" fill="#B2A19F"/>
<path d="M42.0286 112.851H55.1051L51.4458 140.081L35.4097 139.489L42.0286 112.851Z" fill="#8A7E7C"/>
<path d="M36.3234 107.309C43.319 107.093 50.3147 106.878 57.3103 106.609C58.2789 106.555 59.3014 106.555 60.27 106.502C60.2162 106.448 60.1086 106.34 60.0547 106.286C60.3776 111.506 60.6467 116.726 60.9696 121.946C61.0234 121.892 61.131 121.784 61.1848 121.731C53.9739 121.731 46.763 121.731 39.5521 121.731C38.5297 121.731 37.4534 121.731 36.431 121.731C36.4848 121.784 36.5924 121.892 36.6463 121.946C36.6463 116.995 36.5924 112.044 36.5924 107.04C36.5924 106.771 36.1619 106.771 36.1619 107.04C36.1619 111.99 36.2158 116.941 36.2158 121.946C36.2158 122.053 36.3234 122.161 36.431 122.161C43.6419 122.161 50.8528 122.161 58.0637 122.161C59.0861 122.161 60.1624 122.161 61.1848 122.161C61.2924 122.161 61.4001 122.053 61.4001 121.946C61.0772 116.726 60.8081 111.506 60.4853 106.286C60.4853 106.179 60.3776 106.071 60.27 106.071C53.2744 106.286 46.2787 106.502 39.2831 106.771C38.3144 106.824 37.292 106.824 36.3234 106.878C36.0543 106.878 36.0543 107.309 36.3234 107.309Z" fill="#8A7E7C"/>
<path d="M18.8341 89.0662C21.9553 89.0124 25.0226 89.0124 28.1437 88.9586C28.0899 88.9048 27.9823 88.7971 27.9285 88.7433C28.0361 91.4878 28.1975 94.2322 28.3052 96.9767C28.359 96.9228 28.4666 96.8152 28.5204 96.7614C25.4531 96.9228 22.3858 97.0843 19.3185 97.2457C19.3723 97.2995 19.4799 97.4072 19.5337 97.461C19.3723 94.6089 19.2108 91.703 19.0494 88.851C19.0494 88.5819 18.6189 88.5819 18.6189 88.851C18.7803 91.703 18.9418 94.6089 19.1032 97.461C19.1032 97.5686 19.2108 97.6762 19.3185 97.6762C22.3858 97.5148 25.4531 97.3534 28.5204 97.1919C28.628 97.1919 28.7357 97.0843 28.7357 96.9767C28.628 94.2322 28.4666 91.4878 28.359 88.7433C28.359 88.6357 28.2514 88.5281 28.1437 88.5281C25.0226 88.5819 21.9553 88.5819 18.8341 88.6357C18.5651 88.6357 18.5651 89.0662 18.8341 89.0662Z" fill="#8A7E7C"/>
<path d="M247.054 131.847H0V146.323H247.054V131.847Z" fill="#004651"/>
<path d="M247.054 146.323H0V208.907H247.054V146.323Z" fill="#F1F2F2"/>
<path d="M120.378 78.1422C121.239 76.2587 121.077 73.9448 120.001 72.169C119.678 71.6847 119.301 71.2004 119.355 70.6084C119.409 69.9627 119.947 69.4783 120.378 68.994C121.454 67.7025 121.562 65.6576 120.647 64.2585C120.324 63.7742 119.893 63.3437 119.624 62.8056C118.817 61.3526 119.301 59.5768 119.732 57.9624C120.109 56.7786 120.485 55.5409 121.185 54.4646C121.615 53.8189 122.154 53.2807 122.315 52.5274C122.53 51.7202 122.261 50.8592 122.584 50.1596C122.961 49.2986 123.929 48.9219 124.414 48.1147C125.059 47.0923 124.683 45.6932 124.037 44.6707C123.606 44.025 123.068 43.3792 122.907 42.6258C122.745 41.9801 122.907 41.2805 122.907 40.6348C123.068 37.9441 121.4 35.2535 118.979 34.1773C117.579 33.5315 115.965 33.3701 114.781 32.3476C113.974 31.6481 113.49 30.5718 112.629 29.8723C111.552 29.0112 109.992 28.9036 108.647 29.2265C107.301 29.6032 106.117 30.3566 104.933 31.1099C103.965 30.7871 102.889 30.8947 101.866 31.2176C98.9603 32.1862 96.4849 34.3925 95.1934 37.1908C94.7629 38.1056 94.4938 39.0742 93.9557 39.9352C93.2561 41.1191 92.2337 42.0877 91.4265 43.164C90.6193 44.294 90.0274 45.6932 90.4041 46.9847C90.7269 48.0609 91.6417 48.9219 91.857 50.052C92.3413 52.5274 89.1664 54.3032 88.7359 56.8324C88.3592 58.9311 90.0274 61.0298 89.4892 63.0746C89.1126 64.6352 87.6058 65.6038 86.3143 66.5725C85.0228 67.5411 83.7851 68.994 84.108 70.5546C84.377 71.6847 85.3995 72.5457 85.5071 73.7295C85.7762 76.1511 81.9017 77.7117 82.4398 80.0794C82.7627 81.5862 84.6461 82.1243 86.2067 82.2858C96.4849 83.5234 106.978 82.4472 117.041 79.8642C118.44 79.5413 119.84 79.3799 120.378 78.1422Z" fill="#2D3133"/>
<path d="M125.652 114.035C126.244 115.65 127.213 117.156 127.482 118.878C127.751 120.439 128.02 121.623 128.773 122.591C129.042 122.914 129.473 122.645 129.85 122.753C130.388 122.914 130.98 122.753 131.464 122.484C135.823 120.331 138.298 114.896 137.06 110.161C136.845 109.3 136.468 108.439 135.93 107.739C134.693 106.179 132.54 105.533 130.603 105.856C128.666 106.179 126.944 107.416 125.706 108.977C124.468 110.484 124.953 112.206 125.652 114.035Z" fill="#FF9C6E"/>
<path d="M116.342 73.7833C116.127 73.5681 115.804 73.4604 115.481 73.4066C114.243 73.0838 113.059 72.5456 111.983 71.8461C111.714 71.6308 111.391 71.4156 111.23 71.1465C110.961 70.716 110.907 70.1779 110.907 69.6398C110.907 68.5635 111.015 67.1106 111.553 66.1957C113.221 66.8415 115.212 66.3572 116.611 65.2271C118.01 64.1509 118.979 62.4827 119.678 60.8145C120.163 59.6306 120.539 58.3929 120.593 57.1014C120.647 55.7023 120.378 54.3032 120.378 52.9578C120.27 49.6753 121.4 46.3389 120.378 43.2178C120.217 42.8411 120.109 42.6796 120.001 42.3029C119.732 41.3881 119.033 40.5809 118.118 40.2581C117.634 40.0966 117.042 40.0428 116.611 39.7199C116.019 39.3432 115.75 38.5899 115.158 38.2132C114.566 37.8365 113.867 37.9441 113.167 37.9441C112.468 37.9441 111.714 37.675 111.499 37.0293C111.015 38.6437 110.1 40.0966 108.647 40.9576C107.571 41.6572 106.171 42.1415 105.849 43.3792C105.633 44.2402 106.064 45.2088 105.687 46.016C105.31 46.877 104.234 47.1461 103.535 47.7918C102.727 48.5452 102.458 49.7829 102.943 50.8053C102.297 50.2672 101.221 49.8905 100.413 49.9981C99.2296 50.1596 98.4762 51.4511 98.53 52.5811C98.5838 53.765 99.2834 54.7875 100.144 55.6485C100.79 56.348 101.705 56.9938 102.674 56.7785C102.62 56.7785 102.512 56.7785 102.458 56.7785C102.781 60.384 102.727 64.5276 101.597 67.9177C100.467 71.3079 98.0457 74.4829 94.7093 75.882C92.503 79.2184 92.1263 83.7387 92.234 87.7208C92.2878 89.6042 92.503 91.5953 93.364 93.3173C94.4941 95.5236 96.539 97.0842 98.6377 98.3757C102.566 100.851 106.763 102.788 111.176 104.241C112.737 104.726 114.351 105.21 115.965 104.887C118.333 104.403 120.055 102.304 120.755 99.9901C121.454 97.6761 121.293 95.2546 121.131 92.833C120.808 88.6356 120.324 84.4382 119.678 80.2947C119.194 77.9269 117.956 75.613 116.342 73.7833Z" fill="#FAB382"/>
<path d="M126.89 130.879C122.154 132.816 116.881 132.601 111.822 132.224C105.849 131.74 100.037 131.148 94.1179 130.125C94.2255 127.489 94.2793 124.852 93.9565 122.215C93.7412 120.654 93.4183 119.148 93.0416 117.587C92.5573 115.381 92.073 113.174 91.5887 110.968C87.6604 111.345 83.8935 110.591 80.3419 108.869C79.4271 102.627 79.4271 96.2772 80.3419 90.0349C80.88 86.3219 81.9024 82.3935 84.7545 79.9181C85.8308 79.0033 87.1761 78.3038 88.4676 77.7118C91.3735 76.3127 94.387 75.2364 97.3467 73.9449C101.436 79.5415 106.549 84.3846 112.414 88.0977C115.105 83.7927 116.127 78.6805 115.966 73.6221C120.002 74.3216 123.446 76.3127 126.997 78.3576C128.181 79.0571 129.419 79.7567 130.388 80.7253C132.486 82.824 133.186 85.8375 133.778 88.6896C135.231 95.5238 136.522 102.412 137.276 109.354C134.962 108.923 131.948 109.623 129.849 110.807C129.096 111.237 128.343 111.829 128.127 112.69C126.944 117.426 127.697 122.322 128.127 127.166C128.181 128.027 128.289 128.888 128.02 129.641C127.805 130.448 127.697 130.556 126.89 130.879Z" fill="#00A9B8"/>
<path d="M126.621 92.7792C124.953 96.0079 127.428 99.129 128.45 102.089C129.15 104.026 128.935 105.856 128.397 107.793C127.912 109.461 127.159 111.237 127.159 112.959C127.159 113.067 127.32 113.067 127.32 112.959C127.643 111.237 128.128 109.623 128.612 107.954C129.042 106.448 129.365 104.887 129.042 103.326C128.397 99.8286 124.845 96.3846 126.675 92.7253C126.782 92.7792 126.675 92.7253 126.621 92.7792Z" fill="#309BE4"/>
<path d="M85.4002 81.3711C87.8218 82.2859 90.4048 83.2545 92.3959 84.9765C94.4407 86.7523 95.3556 89.0125 96.4856 91.3802C96.5394 91.434 96.6471 91.3802 96.5933 91.3264C95.8937 88.851 94.3869 86.3756 92.3959 84.7613C90.351 83.0393 87.8756 82.1783 85.4002 81.2634C85.3464 81.2096 85.3464 81.3173 85.4002 81.3711Z" fill="#309BE4"/>
<path d="M96.217 92.8868C96.8628 98.0528 97.2933 103.219 97.67 108.385C97.67 108.492 97.8314 108.492 97.8314 108.385C97.5085 103.219 96.9704 98.0528 96.3785 92.8868C96.3247 92.833 96.217 92.833 96.217 92.8868Z" fill="#309BE4"/>
<path d="M80.9877 105.318C83.5169 105.856 86.0461 106.232 88.6291 106.34C90.7278 106.448 93.2032 106.663 95.1405 105.587C95.2481 105.533 95.1405 105.371 95.0328 105.425C92.8803 106.34 90.5126 106.232 88.2524 106.071C85.8309 105.909 83.4093 105.587 81.0416 105.102C80.9339 105.156 80.9339 105.318 80.9877 105.318Z" fill="#309BE4"/>
<path d="M129.31 106.609C131.247 105.425 133.185 105.318 135.391 105.64C135.499 105.64 135.499 105.533 135.445 105.533C133.4 104.833 131.032 105.371 129.256 106.501C129.203 106.555 129.256 106.663 129.31 106.609Z" fill="#309BE4"/>
<path d="M137.868 135.668C136.468 133.031 134.154 130.556 131.141 130.125C127.858 129.641 124.307 132.762 121.186 131.686C116.773 130.179 112.629 128.134 108.271 126.466C103.912 124.798 99.3915 123.668 94.7636 123.829C93.9026 119.578 94.3869 114.735 94.2255 110.376C90.5124 110.699 84.3778 110.591 81.741 109.515C82.1177 114.843 83.0325 120.062 84.1625 125.336C84.4316 126.735 84.9697 128.296 85.5617 129.587C85.9384 130.448 86.4765 131.363 87.3375 131.794C87.8218 132.063 88.3599 132.116 88.898 132.17C97.4004 133.247 106.01 133.946 114.567 134.269C117.096 134.377 118.818 137.444 121.239 138.197C122.316 138.52 123.446 138.52 124.576 138.466C129.15 138.305 133.563 137.282 137.868 135.668Z" fill="#FF9C6E"/>
<path d="M94.1174 124.744C93.0949 125.605 92.2878 126.735 92.0725 128.08C92.0725 128.134 92.1263 128.188 92.1801 128.08C92.5568 126.789 93.2026 125.659 94.225 124.798C94.225 124.744 94.1712 124.69 94.1174 124.744Z" fill="#FF8051"/>
<path d="M101.059 73.5144C100.951 73.5144 100.844 73.5144 100.79 73.6758C100.844 73.6758 100.951 73.622 101.059 73.5144C101.059 73.5682 101.059 73.5682 101.059 73.5144Z" fill="#996E60"/>
<path d="M101.382 73.7835C102.512 73.8373 103.589 73.8373 104.719 73.8911C105.042 73.8911 105.257 73.8911 105.526 73.9988C105.849 74.1064 105.849 74.2678 106.118 74.4293C106.279 74.5369 106.279 74.5907 106.495 74.5907C106.548 74.5907 106.548 74.5369 106.495 74.4831C106.118 74.3216 106.064 73.9988 105.741 73.8373C105.472 73.6759 105.149 73.7297 104.826 73.7297C103.643 73.6759 102.512 73.6221 101.329 73.6221C101.329 73.6221 101.329 73.7835 101.382 73.7835Z" fill="#FF8051"/>
<path d="M109.078 74.106C110.37 73.1373 111.984 73.9445 113.437 73.5678C113.491 73.5678 113.491 73.4602 113.383 73.4602C111.93 73.6755 110.208 72.9759 108.917 73.9983C108.917 74.0522 109.024 74.1598 109.078 74.106Z" fill="#FF8051"/>
<path d="M103.481 62.4289C103.589 65.8191 104.45 69.2093 106.172 72.2228C106.172 72.2766 106.279 72.2228 106.226 72.169C104.665 69.1016 103.75 65.8729 103.589 62.4289C103.589 62.3212 103.481 62.3212 103.481 62.4289Z" fill="#FF8051"/>
<path d="M102.62 53.1731C102.405 52.4736 102.136 51.5049 101.328 51.2897C100.79 51.1282 100.091 51.2897 99.9832 51.9354C99.9832 51.9892 100.037 51.9892 100.037 51.9892C100.306 51.3973 101.059 51.2359 101.598 51.6125C102.136 51.9892 102.351 52.6888 102.512 53.2269C102.566 53.2807 102.674 53.2807 102.62 53.1731Z" fill="#FF8051"/>
<path d="M101.867 51.72C101.329 51.72 100.737 51.8814 100.306 52.2581C100.253 52.3119 100.306 52.4195 100.36 52.3657C100.791 52.0428 101.275 51.8814 101.813 51.8814C101.975 51.8814 101.975 51.72 101.867 51.72Z" fill="#FF8051"/>
<path d="M106.925 62.1596C108.001 63.8278 109.562 65.5498 111.445 66.3032C111.499 66.3032 111.553 66.2494 111.499 66.1956C109.777 64.9579 108.27 63.8816 107.086 62.052C106.979 62.052 106.871 62.1058 106.925 62.1596Z" fill="#FF8051"/>
<path d="M109.508 96.9765C109.185 95.0392 108.27 90.3575 108.27 90.3037C105.364 90.4113 101.759 90.8418 98.9065 91.3261C99.337 93.3172 99.5522 96.2769 99.8213 98.268C102.727 97.8375 106.548 97.2994 109.508 96.9765Z" fill="white"/>
<path d="M104.72 91.7567C104.128 91.8643 103.59 91.8643 102.89 92.0257C102.567 92.0795 102.244 91.8643 102.137 91.5414C102.029 91.2185 101.975 90.8956 101.922 90.519C101.814 90.1423 102.083 89.7656 102.46 89.7118C103.052 89.658 103.697 89.5503 104.289 89.4965C104.612 89.4427 104.881 89.658 104.989 89.9808C105.097 90.3575 105.15 90.6266 105.258 90.9495C105.366 91.3262 105.097 91.7028 104.72 91.7567Z" fill="#007FD1"/>
<path d="M92.5582 55.3253C91.6434 56.1863 91.5357 57.424 91.6972 58.6079C91.9124 60.4375 92.2353 61.9981 91.5895 63.7739C90.9976 65.3345 89.9213 66.4646 88.6837 67.487C87.715 68.2404 86.7464 69.0476 86.585 70.3391C86.585 70.4467 86.6926 70.4467 86.6926 70.3929C86.9617 68.8323 88.307 68.0251 89.3832 67.1103C90.3519 66.3031 91.1052 65.2807 91.5895 64.1506C92.02 63.0744 92.2353 61.8367 92.1277 60.6528C91.9662 58.877 91.159 56.8859 92.612 55.433C92.7196 55.3253 92.612 55.2177 92.5582 55.3253Z" fill="#1D1D1B"/>
<path d="M98.7466 64.2047C98.5314 66.411 98.4776 68.725 97.1323 70.6084C95.9484 72.3304 93.9573 73.0838 92.5582 74.5367C92.5044 74.5905 92.5582 74.6443 92.612 74.5905C94.2264 73.1914 96.2713 72.2766 97.4551 70.3931C98.639 68.5097 98.6928 66.3034 98.9081 64.1509C98.9081 64.1509 98.7466 64.1509 98.7466 64.2047Z" fill="#1D1D1B"/>
<path d="M114.782 67.8638C114.513 68.9939 114.567 70.2316 115.213 71.254C115.267 71.3079 115.321 71.254 115.321 71.2002C114.836 70.124 114.675 69.0477 114.944 67.8638C114.998 67.81 114.836 67.81 114.782 67.8638Z" fill="#1D1D1B"/>
<path d="M96.1634 45.7468C95.7329 46.554 95.5177 47.4688 95.6791 48.3836C95.7329 48.868 95.8943 49.3523 96.1096 49.8366C96.4325 50.4823 96.9168 51.0743 96.9706 51.8276C97.0244 52.4734 96.7015 53.0653 96.7553 53.6573C96.8092 54.0878 96.9706 54.4645 97.1858 54.7873C97.6702 55.5407 98.5312 56.025 99.3922 56.3479C99.4998 56.4017 99.5536 56.2403 99.446 56.1865C98.5312 55.7022 97.5087 55.2178 97.132 54.1416C96.7553 53.173 97.4011 52.312 97.132 51.3433C96.9168 50.5361 96.3248 49.9442 96.0558 49.1908C95.6791 48.0608 95.7867 46.8231 96.3248 45.7468C96.271 45.7468 96.1634 45.693 96.1634 45.7468Z" fill="#1D1D1B"/>
<path d="M106.872 39.2895C104.881 39.9352 103.697 41.5496 103.428 43.5945C103.266 44.9398 103.266 46.6618 101.975 47.5228C101.221 48.0071 100.199 48.0071 99.7146 48.8143C99.6608 48.8681 99.7684 48.9219 99.8222 48.8681C100.522 48.1147 101.544 48.1147 102.351 47.469C102.997 46.9309 103.266 46.1775 103.428 45.3703C103.643 44.1326 103.589 42.8411 104.127 41.711C104.719 40.581 105.742 39.72 106.926 39.3433C106.979 39.3971 106.926 39.2357 106.872 39.2895Z" fill="#1D1D1B"/>
<path d="M103.373 39.5583C102.458 40.4193 101.866 41.657 102.027 42.9485C102.027 43.0023 102.081 43.0023 102.081 42.9485C102.135 41.657 102.512 40.5269 103.426 39.6121C103.48 39.6121 103.426 39.5045 103.373 39.5583Z" fill="#1D1D1B"/>
<path d="M101.007 34.0696C99.662 34.5539 98.1552 35.1996 97.6171 36.5988C97.2942 37.3522 97.4018 38.2132 97.1328 38.9665C96.7561 40.0966 95.7875 40.9038 94.6036 41.2267C94.496 41.2267 94.5498 41.3881 94.6574 41.3881C95.9489 41.0652 97.0252 40.0966 97.348 38.8051C97.6171 37.7827 97.5095 36.7064 98.2628 35.8454C98.9624 35.0382 100.039 34.6077 101.007 34.231C101.115 34.1772 101.115 34.0696 101.007 34.0696Z" fill="#1D1D1B"/>
<path d="M106.173 32.3475C108.272 32.6703 109.671 33.908 110.694 35.6839C110.694 35.7377 110.801 35.6839 110.801 35.63C110.102 33.7466 108.164 32.4551 106.227 32.186C106.12 32.186 106.066 32.2937 106.173 32.3475Z" fill="#1D1D1B"/>
<path d="M112.845 35.5762C114.729 36.1681 116.935 35.5223 117.85 37.7287C118.065 38.1592 118.227 38.6435 118.603 38.9664C119.141 39.3969 119.841 39.5583 120.379 39.9888C123.231 42.2489 121.294 46.6078 121.886 49.6213C121.886 49.6751 121.993 49.6751 121.993 49.6213C121.671 46.6616 123.339 42.3566 120.702 40.0426C120.218 39.6121 119.572 39.4507 118.98 39.074C118.065 38.5359 118.119 37.5672 117.473 36.8138C116.397 35.4685 114.298 35.9528 112.845 35.5223C112.792 35.4147 112.738 35.5762 112.845 35.5762Z" fill="#1D1D1B"/>
<path d="M111.123 33.7465C112.361 33.2622 113.598 33.3699 114.782 33.8542C114.836 33.8542 114.836 33.8004 114.836 33.7465C113.706 33.047 112.307 33.047 111.069 33.5851C111.015 33.6927 111.069 33.8004 111.123 33.7465Z" fill="#1D1D1B"/>
<path d="M118.011 65.8188C118.818 66.7336 119.033 67.9713 118.495 69.1014C118.226 69.6933 117.742 70.2315 117.634 70.931C117.419 72.1149 118.334 73.1912 119.195 73.9445C119.249 73.9983 119.356 73.8907 119.302 73.8369C118.657 73.0835 117.796 72.2763 117.796 71.2001C117.796 70.3391 118.441 69.6933 118.764 68.8861C119.195 67.7561 118.926 66.5722 118.118 65.7112C118.065 65.6574 117.957 65.765 118.011 65.8188Z" fill="#1D1D1B"/>
<path d="M99.1761 63.0207C99.2837 62.4826 99.2299 61.9983 99.0685 61.4602C98.7994 60.2225 99.0147 59.4691 99.5528 58.339C99.5528 58.2852 99.499 58.2314 99.499 58.2852C99.1223 58.8772 98.7456 59.5767 98.7456 60.3301C98.7456 61.2449 99.2299 62.0521 99.0685 63.0207C99.0685 63.0207 99.1761 63.0746 99.1761 63.0207Z" fill="#1D1D1B"/>
<path d="M86.5852 71.3616C86.4237 72.5993 87.1233 73.6218 87.3385 74.7518C87.7152 76.4738 86.639 78.0882 84.9708 78.5725C84.8631 78.5725 84.917 78.734 85.0246 78.734C86.2085 78.4111 87.1771 77.4963 87.5 76.3124C87.9843 74.5904 86.4775 73.1375 86.7466 71.4155C86.8004 71.3078 86.639 71.254 86.5852 71.3616Z" fill="#1D1D1B"/>
<path d="M81.3636 109.461C84.4309 110.699 87.8211 111.022 91.1037 110.806C92.2876 110.699 93.4715 110.537 94.6553 110.268C95.3011 110.107 96.0545 109.945 96.6464 109.515C96.7002 109.461 96.6464 109.353 96.5926 109.407C94.9244 110.322 92.6105 110.484 90.7808 110.591C87.6059 110.753 84.4309 110.376 81.4712 109.246C81.3098 109.246 81.256 109.407 81.3636 109.461Z" fill="#309BE4"/>
<path d="M134.584 112.851C138.512 106.017 142.495 99.2366 146.531 92.51C147.553 90.7342 148.683 88.9045 148.629 86.8597C148.629 85.3529 147.984 83.8461 148.253 82.3394C148.629 79.8102 151.374 77.7115 150.782 75.1823C151.966 75.1823 152.396 76.7429 152.235 77.8729C152.073 79.003 151.643 80.3483 152.289 81.2631C154.925 78.0882 157.67 74.698 160.307 71.5231C160.791 70.9311 161.49 70.2854 162.244 70.4468C162.513 71.0926 162.082 71.7921 161.652 72.3841C159.984 74.698 158.262 77.0658 156.594 79.3797C157.132 79.1106 157.562 78.734 157.939 78.2496C159.715 75.8819 161.49 73.4603 163.266 71.0926C163.482 70.8235 163.697 70.5006 164.02 70.3392C164.343 70.1777 164.773 70.1777 164.988 70.4468C165.311 70.8235 165.096 71.3616 164.827 71.7921C162.89 75.1823 160.038 77.9806 158.154 81.317C160.145 79.2721 162.567 77.4963 164.773 75.6666C164.881 75.559 164.988 75.4514 165.15 75.4514C165.473 75.3976 165.688 75.7204 165.742 76.0433C165.849 76.6353 165.473 77.2272 165.096 77.6577C164.719 78.142 164.235 78.5187 164.02 79.1106C164.181 78.7339 164.827 78.8416 165.096 79.1645C165.365 79.4873 165.365 79.9716 165.204 80.3483C165.042 80.725 164.665 81.0479 164.396 81.317C160.522 84.761 156.701 88.205 152.827 91.649C152.289 92.1333 151.75 92.6714 151.643 93.371C150.297 102.412 146.154 110.537 143.087 119.147C142.226 121.569 141.203 124.044 139.373 125.82C137.544 127.596 134.638 128.564 132.324 127.488C130.064 126.466 129.149 124.152 128.288 121.838C128.342 121.623 128.396 121.3 128.503 121.138C130.279 118.286 132.216 115.542 134.261 112.851C134.477 112.69 134.423 113.066 134.584 112.851Z" fill="#FF9C6E"/>
<path d="M136.469 110.268C134.155 112.797 132.648 116.295 132.81 119.793C132.81 119.847 132.917 119.847 132.917 119.793C133.133 116.241 134.209 113.066 136.523 110.322C136.577 110.268 136.523 110.214 136.469 110.268Z" fill="#FF8051"/>
<path d="M164.183 79.1108C162.192 80.3485 159.985 81.7477 158.425 83.4697C158.371 83.5235 158.425 83.5773 158.478 83.5235C160.416 82.0167 162.192 80.4562 164.236 79.1647C164.344 79.1647 164.29 79.1108 164.183 79.1108Z" fill="#FF8051"/>
<path d="M157.24 84.3306C155.948 85.7298 154.011 85.8912 152.451 86.806C151.428 87.398 150.513 88.3666 150.621 89.6043C150.621 89.6581 150.729 89.6581 150.729 89.6043C150.998 86.2141 155.464 86.537 157.294 84.3845C157.401 84.3306 157.294 84.2768 157.24 84.3306Z" fill="#FF8051"/>
<path d="M154.872 80.6714C156.056 81.4247 156.809 82.4472 157.563 83.5772C157.616 83.631 157.67 83.5772 157.67 83.5234C157.186 82.2857 156.056 81.2633 154.926 80.5637C154.872 80.5637 154.818 80.6714 154.872 80.6714Z" fill="#FF8051"/>
<path d="M151.966 81.048C152.558 82.0167 152.666 82.9853 152.504 84.1153C152.504 84.1692 152.558 84.223 152.612 84.1153C152.935 83.0391 152.666 81.909 152.074 80.9942C152.02 80.9404 151.966 80.9942 151.966 81.048Z" fill="#FF8051"/>
<path d="M114.513 50.9667C114.405 51.9891 114.728 52.8501 115.266 53.7111C115.643 54.3569 116.181 54.7874 115.912 55.5946C115.751 56.0251 115.32 56.2403 115.213 56.7247C115.213 56.8323 115.32 56.8861 115.374 56.7785C115.697 56.1865 116.45 55.5946 116.235 54.8412C116.074 54.3031 115.535 53.765 115.266 53.3345C114.836 52.5811 114.567 51.8277 114.621 50.9667C114.674 50.8591 114.513 50.8591 114.513 50.9667Z" fill="#CB684E"/>
<path d="M120.539 55.218C119.732 55.4333 118.817 55.3256 118.064 54.8951C117.526 54.5723 117.095 54.088 116.557 53.8727C115.642 53.496 114.62 53.8727 113.651 54.0341C111.714 54.4108 109.669 54.1956 107.786 53.5498C105.902 52.9041 104.18 51.8816 102.62 50.6978C103.104 51.8278 104.18 52.4736 105.203 53.2269C105.58 53.496 105.956 53.8189 106.064 54.3032C106.171 54.949 105.687 55.5409 105.203 55.9176C104.342 56.6171 103.266 56.8862 102.135 56.9938C102.566 57.2629 103.104 57.4781 103.588 57.6934C104.88 58.2853 105.418 59.8459 106.01 61.1374C106.71 62.7518 107.786 64.3123 109.239 65.3348C110.692 66.411 112.575 66.9492 114.297 66.5725C115.858 66.2496 117.203 65.1734 118.225 63.9895C119.678 62.2675 120.647 60.115 120.97 57.8548C121.078 56.94 121.185 55.81 120.539 55.218Z" fill="white"/>
<path d="M115.697 54.5721C116.665 58.8771 115.428 62.9669 112.791 66.4109C112.737 66.5185 112.845 66.6261 112.952 66.5723C115.912 63.4512 116.881 58.6619 115.912 54.5721C115.858 54.4107 115.643 54.4645 115.697 54.5721Z" fill="#E2E4E5"/>
<path d="M169.993 153.426C159.338 195.561 163.158 241.033 147.176 281.393C152.988 290.003 161.436 294.953 171.715 296.137C185.222 297.698 198.729 291.617 212.289 292.747C219.393 293.339 226.227 295.922 233.276 296.891C240.326 297.913 248.29 296.998 253.295 291.94C250.281 250.666 244.146 204.602 233.868 164.511C227.088 159.937 219.339 159.991 212.558 155.417C209.491 153.318 206.37 151.22 202.872 150.036C199.105 148.744 195.015 148.583 190.98 148.691C184.522 148.744 176.342 152.188 169.993 153.426Z" fill="#A3E4E1"/>
<path d="M175.214 42.0339C174.245 41.9801 173.277 42.2492 172.47 42.6797C170.586 43.6483 169.133 45.4241 168.487 47.469C167.842 49.5139 168.057 51.774 168.972 53.7113C169.564 54.949 170.479 56.0252 171.017 57.3167C171.609 58.5544 171.824 60.115 171.07 61.2988" fill="#2D3133"/>
<path d="M167.573 62.1599C168.219 63.0747 169.134 63.8819 170.264 64.151C171.34 64.4739 172.632 64.2048 173.439 63.3976" fill="#2D3133"/>
<path d="M126.136 128.457C126.352 126.735 126.244 124.959 125.76 123.291C125.544 122.537 125.222 121.784 124.737 121.192C123.715 120.062 121.993 119.739 121.024 118.502C120.863 119.201 120.594 119.739 120.647 120.493C120.701 121.246 120.378 121.73 119.733 122.053C119.087 122.376 118.334 122.43 117.58 122.43C117.15 122.43 116.665 122.43 116.235 122.43C114.567 122.43 112.845 122.43 111.23 121.892C109.67 121.3 108.217 120.008 108.002 118.34C107.732 118.125 107.141 118.179 106.979 118.502C106.818 118.824 106.818 119.201 106.818 119.578C106.818 120.439 106.871 121.3 106.871 122.161C106.871 122.699 106.925 123.237 107.087 123.721C107.194 124.044 107.41 124.367 107.463 124.744C107.571 125.228 107.41 125.712 107.41 126.251C107.463 127.542 108.486 128.511 109.508 129.264C111.499 130.663 113.759 131.686 116.127 132.278C119.141 133.031 122.585 133.192 124.737 135.453C125.975 134.592 127.105 133.515 127.482 132.116C127.966 130.556 127.589 128.834 126.136 128.457Z" fill="#FF9C6E"/>
<path d="M107.572 125.551C108.917 126.412 110.262 127.273 111.661 128.026C112.792 128.672 114.029 129.479 115.375 129.425C115.428 129.425 115.428 129.318 115.375 129.318C113.868 129.103 112.576 128.349 111.285 127.596C110.047 126.896 108.809 126.143 107.626 125.336C107.572 125.336 107.464 125.443 107.572 125.551Z" fill="#FF8051"/>
<path d="M106.979 122.538C109.239 124.152 112.145 125.659 114.997 125.766C115.051 125.766 115.105 125.659 114.997 125.659C113.652 125.282 112.306 125.013 110.961 124.529C109.562 123.99 108.27 123.237 107.087 122.376C106.979 122.268 106.871 122.43 106.979 122.538Z" fill="#FF8051"/>
<path d="M136.092 134.968C132.11 133.085 128.289 130.287 126.567 126.197C125.007 128.672 122.854 130.394 122.155 133.246C122.047 133.784 121.94 134.322 121.993 134.807C126.406 137.444 128.128 142.663 132.002 146.054C132.11 146.161 132.272 146.269 132.433 146.323C132.702 146.377 132.971 146.161 133.186 146C135.662 143.847 137.115 140.619 137.061 137.336C137.061 136.044 137.168 135.453 136.092 134.968Z" fill="white"/>
<path d="M175.375 41.98C173.061 42.4643 170.317 44.3477 169.402 46.5002C168.487 48.7066 168.541 51.1819 169.24 53.4421C169.617 54.6259 170.209 55.8098 170.532 57.0475C170.855 58.2852 170.855 59.6843 170.155 60.7606C169.456 61.8368 167.949 62.4288 166.873 61.7292C167.895 63.2898 169.563 63.8817 171.393 63.7741C173.222 63.6665 174.998 62.4826 175.805 60.8144C176.559 59.3076 176.505 57.5318 177.097 55.9175C177.743 54.0878 179.142 52.4734 179.411 50.59C179.626 49.0832 179.088 47.5227 178.227 46.2312C177.474 44.9397 176.613 42.8948 175.375 41.98Z" fill="#2D3133"/>
<path d="M190.334 90.9494C188.882 87.613 187.429 84.3304 185.976 80.9941C185.599 80.0793 185.115 79.1106 184.146 78.7878C182.585 78.3034 181.186 79.9716 179.572 79.9716C178.442 79.9716 177.473 79.0568 176.935 78.0882C176.397 77.0657 176.182 75.9357 175.751 74.8594C174.783 72.3302 172.792 70.1777 170.316 69.0477C171.661 67.2718 172.792 65.1732 172.845 62.913C172.845 60.9758 171.984 59.0923 171.608 57.2089C171.177 55.0564 171.285 52.7962 171.984 50.6976C172.253 49.9442 172.953 49.2984 173.706 48.9755C177.527 47.415 182.047 47.415 185.814 49.0294C189.635 50.6976 192.648 54.0878 193.778 58.0699C195.608 64.7427 192.056 71.7921 192.864 78.6263C193.133 80.8864 193.886 83.0928 193.832 85.3529C193.778 87.7206 192.487 90.196 190.334 90.9494Z" fill="#FAB382"/>
<path d="M238.713 201.857C235.807 202.664 231.771 202.772 228.866 203.579C226.659 204.171 224.399 204.817 222.139 205.086C219.771 205.355 210.677 205.947 208.255 205.893C204.596 205.786 180.542 203.794 168.219 201.104C168.165 198.467 170.264 158.108 170.748 154.664C169.672 158.538 166.335 164.942 163.16 166.61C159.394 168.601 154.766 167.632 150.783 166.072C142.066 162.574 134.801 156.816 127.644 150.735C127.752 145.838 129.689 141.21 131.626 136.69C132.38 134.914 133.617 133.461 134.424 131.686C138.138 134.753 142.658 137.766 147.07 139.65C147.232 138.896 148.147 138.358 148.846 138.089C152.021 130.932 155.196 123.721 158.317 116.564C160.577 111.398 162.945 106.178 166.766 102.035C172.847 95.4697 182.102 92.4023 187.753 85.5143C195.825 85.03 203.897 83.8461 211.968 83.3618C216.112 85.7296 219.717 88.0435 223.807 90.5189C227.305 92.6176 230.857 94.8239 233.278 98.1065C236.077 101.873 237.045 106.609 237.96 111.183C240.866 125.981 243.395 140.834 245.548 155.74C246.139 159.83 246.355 164.78 242.965 167.148C240.489 168.87 237.153 168.332 234.193 167.74C235.592 172.583 237.153 190.072 238.713 201.857Z" fill="#A3E4E1"/>
<path d="M132.379 155.309C132.918 153.803 133.456 152.296 133.994 150.789C134.263 150.036 134.532 149.282 134.586 148.475C134.64 147.668 134.371 146.861 133.725 146.323C133.24 145.892 132.487 145.785 131.895 145.946C131.249 146.107 130.711 146.592 130.442 147.13C130.227 147.56 130.119 148.045 130.012 148.529C129.689 149.982 129.42 151.489 129.097 152.942C130.335 153.749 131.142 154.448 132.379 155.309Z" fill="#00A9B8"/>
<path d="M131.841 147.883C131.572 148.206 131.625 148.798 132.056 149.013C132.433 149.175 132.971 148.852 132.971 148.422C132.971 147.991 132.325 147.722 132.002 147.991" fill="#008692"/>
<path d="M170.962 153.426C172.415 149.874 173.814 146.269 175.16 142.663C175.913 140.726 176.666 138.843 177.42 136.905C178.227 134.861 179.088 132.87 179.572 130.717C180.379 127.381 180.541 123.829 180.164 120.439C180.164 120.385 180.11 120.385 180.11 120.439C180.326 123.668 180.272 126.843 179.572 130.017C179.088 132.224 178.281 134.322 177.42 136.421C175.913 140.296 174.406 144.17 172.899 148.045C172.2 149.82 171.554 151.596 170.801 153.372C170.855 153.48 170.962 153.48 170.962 153.426Z" fill="#00A9B8"/>
<path d="M234.892 106.125C235.322 114.089 233.224 121.784 231.825 129.533C230.479 137.282 230.372 145.085 231.287 152.942C231.771 157.301 232.417 161.713 233.331 166.018C233.331 166.126 233.493 166.072 233.439 165.964C232.148 158 230.856 150.09 230.91 142.018C230.964 138.036 231.34 134.107 231.986 130.179C232.632 126.358 233.493 122.591 234.139 118.771C234.838 114.627 235.322 110.43 235.053 106.179C235.053 106.017 234.892 106.017 234.892 106.125Z" fill="#00A9B8"/>
<path d="M168.972 103.38C173.277 106.394 176.506 110.645 178.335 115.596C178.335 115.65 178.443 115.65 178.443 115.596C176.775 110.591 173.438 106.232 169.079 103.219C168.972 103.111 168.864 103.273 168.972 103.38Z" fill="#00A9B8"/>
<path d="M216.327 98.86C217.672 96.1694 217.403 92.7254 215.681 90.25C214.713 88.9047 213.367 87.7746 212.775 86.214C211.538 82.9315 214.174 79.4875 214.282 75.9358C214.39 72.6533 212.183 69.7474 211.322 66.5724C210.085 61.9445 211.645 56.9938 211.053 52.2045C210.3 46.3389 206.156 41.2267 200.883 38.5361C195.609 35.8992 189.367 35.5225 183.609 36.7602C180.003 37.5136 176.29 39.1818 174.784 42.572C172.954 43.4868 172.577 46.0698 171.985 48.0609C171.662 49.1371 172.254 50.321 173.169 51.0744C174.03 51.8278 175.16 52.2045 176.183 52.7426C177.205 53.2807 178.228 53.9803 178.658 55.0027C178.927 55.5947 178.927 56.2942 179.142 56.94C179.573 58.07 180.595 58.931 181.779 59.3077C182.64 59.5768 183.609 59.6306 184.201 60.3302C184.846 59.0387 186.622 58.3929 187.914 59.0387C188.882 59.523 189.474 60.5992 189.69 61.6755C189.905 62.7517 189.797 63.8818 189.69 64.9581C189.636 65.7114 189.528 66.4648 189.152 67.1106C188.775 67.7563 188.021 68.2406 187.268 68.0792C187.914 70.4469 187.914 73.3528 187.429 75.7744C186.999 77.9269 185.654 79.918 185.492 82.1243C185.331 84.6535 186.73 87.0212 186.945 89.4966C187.107 91.4877 186.569 93.4788 186.299 95.4698C186.03 97.4609 186.138 99.6672 187.483 101.174C188.075 101.228 188.506 101.12 189.098 101.013C188.667 99.721 189.044 98.1604 189.367 96.8689C189.582 96.0618 189.905 95.2546 190.013 94.4474C190.228 92.6177 189.313 90.6267 190.12 88.9585C190.012 90.6805 191.465 92.1334 191.788 93.8554C192.219 96.1156 190.604 98.5371 191.519 100.69C194.479 100.421 197.546 100.367 200.506 100.474C201.905 100.528 203.304 100.69 204.703 100.582C208.901 100.205 212.237 98.1604 216.327 98.86Z" fill="#2D3133"/>
<path d="M186.245 64.3661C186.407 63.7741 186.299 63.2898 186.138 62.6979C185.922 61.9983 185.6 61.3526 186.353 60.7068C186.945 60.2225 187.806 60.384 188.236 60.9759C188.29 61.0835 188.398 60.9759 188.344 60.9221C187.913 60.1149 186.945 60.0611 186.245 60.5454C184.954 61.4602 186.461 63.0746 186.084 64.2585C186.03 64.4199 186.191 64.4737 186.245 64.3661Z" fill="#FF8051"/>
<path d="M186.192 63.1283C186.192 62.5363 186.245 61.7291 186.945 61.5677C187.053 61.5677 186.999 61.4062 186.945 61.4062C186.084 61.4601 186.03 62.4825 186.084 63.1283C186.084 63.2359 186.192 63.2359 186.192 63.1283Z" fill="#FF8051"/>
<path d="M172.308 49.2984C172.2 47.8455 172.684 46.5002 173.653 45.4239C173.707 45.3163 173.599 45.2087 173.545 45.3163C172.523 46.3926 172.038 47.8455 172.146 49.3523C172.146 49.4061 172.308 49.4061 172.308 49.2984Z" fill="black"/>
<path d="M175.698 50.1057C176.667 50.6438 177.636 51.1281 178.497 51.8815C179.465 52.6887 179.95 53.6573 180.38 54.895C181.026 56.7246 182.533 58.0161 184.147 58.9309C184.201 58.9848 184.255 58.8771 184.201 58.8233C183.34 58.1238 182.425 57.5318 181.672 56.7246C180.757 55.756 180.595 54.5721 180.003 53.4421C179.142 51.7739 177.367 50.859 175.752 49.998C175.698 49.9442 175.591 50.1057 175.698 50.1057Z" fill="black"/>
<path d="M183.663 56.4018C184.201 57.1014 185.008 58.0162 185.869 58.3929C185.923 58.3929 185.976 58.3391 185.923 58.2853C185.546 57.9624 185.115 57.6933 184.793 57.3705C184.416 57.0476 184.093 56.6709 183.824 56.2942C183.716 56.2404 183.609 56.348 183.663 56.4018Z" fill="black"/>
<path d="M188.291 69.1555C189.582 71.0389 190.336 73.03 189.744 75.3439C189.26 77.1198 188.399 78.7341 187.807 80.4561C187.268 82.0705 187.161 83.6311 187.753 85.2993C188.183 86.537 188.668 87.6132 188.614 88.9585C188.614 90.3577 188.291 91.703 188.022 93.0483C188.022 93.1021 188.076 93.1021 188.076 93.0483C188.614 90.7882 188.99 88.4742 188.237 86.1603C187.86 85.0302 187.484 83.954 187.538 82.7701C187.591 81.6938 187.914 80.6714 188.291 79.7028C188.937 77.9808 189.851 76.3664 190.121 74.5367C190.443 72.4381 189.636 70.6622 188.452 68.994C188.399 68.9402 188.237 69.0479 188.291 69.1555Z" fill="black"/>
<path d="M191.572 80.5638C190.55 83.8464 192.918 86.6985 194.263 89.4429C195.124 91.2188 195.339 92.9408 195.07 94.878C194.909 96.331 194.64 97.8915 195.393 99.2368C195.447 99.2907 195.501 99.2368 195.501 99.183C194.909 97.5686 195.178 96.0619 195.339 94.3937C195.501 92.8331 195.393 91.4878 194.801 90.0349C193.564 86.9676 190.711 84.1155 191.68 80.5638C191.734 80.51 191.626 80.4562 191.572 80.5638Z" fill="black"/>
<path d="M208.363 62.967C208.202 64.2585 208.256 65.5501 208.632 66.8416C209.009 68.0792 209.762 69.1555 210.354 70.2856C212.076 73.5681 210.946 76.6893 209.762 79.918C208.847 82.3396 208.04 85.1378 209.17 87.6132C209.816 89.0124 210.892 90.0886 211.43 91.5416C211.969 93.0483 212.022 94.5551 211.861 96.1694C211.861 96.2771 211.969 96.2771 212.022 96.1694C212.668 93.5864 211.646 91.0572 210.247 88.9047C209.278 87.398 208.794 85.945 208.901 84.1692C209.009 82.6087 209.547 81.1019 210.085 79.649C211 77.066 212.13 74.2677 211.108 71.5233C210.677 70.2856 209.87 69.1555 209.278 67.9716C208.525 66.4111 208.256 64.7429 208.471 63.0209C208.417 62.967 208.363 62.967 208.363 62.967Z" fill="black"/>
<path d="M205.296 90.1422C205.78 91.5413 206.426 92.9405 206.857 94.3934C207.341 96.0616 207.233 97.4607 206.588 99.0751C206.588 99.1289 206.641 99.1289 206.695 99.1289C208.471 96.3845 206.426 92.779 205.457 90.1422C205.35 90.0346 205.242 90.0884 205.296 90.1422Z" fill="black"/>
<path d="M187.161 68.4559C187.591 70.1241 187.591 71.8461 187.215 73.5143C186.838 75.021 186.085 76.3125 185.385 77.6578C184.147 80.0256 183.663 82.6086 184.47 85.1916C184.901 86.5907 185.815 87.7746 186.192 89.1737C186.676 90.8958 186.192 92.6716 185.815 94.3398C185.385 96.5461 185.17 99.2367 187.161 100.743C187.268 100.797 187.376 100.636 187.268 100.582C184.632 98.3219 186.138 94.8241 186.515 91.9182C186.676 90.6267 186.569 89.389 186.085 88.1513C185.546 86.8598 184.793 85.6759 184.47 84.2768C184.147 82.77 184.201 81.1557 184.685 79.7027C185.17 78.3036 186.031 77.0659 186.676 75.7206C187.753 73.4066 187.968 70.8236 187.268 68.3483C187.322 68.2944 187.161 68.3483 187.161 68.4559Z" fill="black"/>
<path d="M190.227 87.9898C189.312 90.3576 191.088 92.4562 191.034 94.824C190.98 96.546 189.42 98.8061 190.872 100.367C190.98 100.474 191.088 100.367 191.034 100.259C189.958 98.2142 191.464 96.3846 191.303 94.2859C191.142 92.1334 189.635 90.1961 190.388 88.0436C190.442 87.8822 190.281 87.8822 190.227 87.9898Z" fill="black"/>
<path d="M210.408 63.3436C210.515 65.9804 211.968 68.1329 213.26 70.3392C214.013 71.6845 214.767 73.1375 215.036 74.6442C215.358 76.4739 215.036 78.2497 214.39 79.9717C213.852 81.317 213.152 82.6623 213.206 84.1691C213.26 85.353 213.852 86.2678 214.605 87.1288C215.681 88.3126 216.758 89.3351 217.296 90.9495C217.78 92.51 217.726 94.1244 217.619 95.7388C217.619 95.7926 217.726 95.7926 217.726 95.7388C218.103 93.1558 217.834 90.4113 216.004 88.3665C215.036 87.2902 213.798 86.3216 213.475 84.8148C213.045 82.9852 214.121 81.2632 214.713 79.595C215.735 76.9044 215.412 74.1061 214.121 71.5231C212.775 68.8863 210.731 66.4109 210.515 63.3436C210.462 63.2898 210.408 63.2898 210.408 63.3436Z" fill="black"/>
<path d="M189.958 89.2274C189.797 90.1422 189.797 91.1108 189.904 92.0795C190.066 93.3172 190.388 94.4472 190.066 95.7387C189.635 97.3531 188.666 99.0751 189.635 100.636C189.743 100.797 189.958 100.636 189.85 100.474C188.828 98.5908 190.281 96.7612 190.442 94.8777C190.496 94.1243 190.335 93.371 190.173 92.6176C189.958 91.4875 189.904 90.3575 190.066 89.1736C190.066 89.2274 189.958 89.1736 189.958 89.2274Z" fill="black"/>
<path d="M147.016 139.757C148.522 142.125 149.276 144.87 149.007 147.668H149.061C149.33 144.87 148.684 142.071 147.177 139.704C147.123 139.596 146.962 139.65 147.016 139.757Z" fill="#00A9B8"/>
<path d="M148.685 138.574C149.654 139.004 150.353 139.757 150.838 140.726C150.838 140.78 150.891 140.726 150.891 140.726C150.461 139.757 149.708 138.95 148.739 138.52C148.685 138.466 148.631 138.574 148.685 138.574Z" fill="#00A9B8"/>
<path d="M137.707 135.237C136.254 138.036 135.017 141.103 134.532 144.224C134.532 144.278 134.586 144.278 134.586 144.224C135.447 141.103 136.308 138.143 137.815 135.291C137.869 135.237 137.707 135.184 137.707 135.237Z" fill="#00A9B8"/>
<path d="M176.398 73.0298C177.582 73.0298 178.497 72.2765 179.142 71.3078C179.196 71.254 179.089 71.1464 179.035 71.2002C178.228 71.9536 177.636 72.7608 176.398 72.7608C176.236 72.7608 176.236 73.0298 176.398 73.0298Z" fill="#93442C"/>
<path d="M230.05 173.283C235.7 167.31 236.723 157.946 234.193 150.143C233.494 148.045 232.525 145.946 231.18 144.17C228.328 140.35 223.915 138.089 219.718 135.775C214.229 132.762 208.794 129.479 204.327 125.067C201.906 122.645 199.753 119.901 197.493 117.318C195.502 115.111 193.403 113.067 191.52 110.753C190.067 108.923 188.775 106.986 187.484 105.048C185.17 101.497 182.802 97.999 180.488 94.4474C180.219 94.0707 180.004 93.694 179.574 93.4787C179.197 93.2635 178.82 93.1021 178.39 93.1021C177.044 93.1559 176.237 93.9631 174.784 95.5236C175.322 98.86 176.668 100.098 178.551 102.896C184.309 111.398 191.305 119.04 199.269 125.497C200.453 126.466 201.744 127.488 202.336 128.941C202.767 129.964 202.821 131.148 202.659 132.224C201.852 139.219 194.802 144.87 195.663 151.919C196.094 155.309 198.354 158.215 200.776 160.691C204.058 164.027 207.718 166.987 211.753 169.408C217.35 172.799 225.53 178.072 230.05 173.283Z" fill="#004651"/>
<path d="M207.125 132.869C208.04 135.668 207.986 138.358 207.394 141.21C207.018 142.932 206.533 144.816 207.287 146.538C208.094 148.314 209.87 149.767 211.323 151.004C212.937 152.403 214.659 153.641 216.435 154.771C220.04 157.031 224.184 159.076 228.381 159.937C232.094 160.744 233.924 158.377 234.624 154.986C234.677 154.664 234.247 154.502 234.139 154.825C233.224 157.623 232.094 159.991 228.596 159.238C226.982 158.915 225.422 158.323 223.915 157.731C220.578 156.439 217.403 154.717 214.498 152.619C212.937 151.489 211.376 150.251 209.977 148.852C207.879 146.807 207.233 144.977 207.717 142.018C208.309 138.735 208.578 135.937 207.502 132.708C207.448 132.493 207.071 132.6 207.125 132.869Z" fill="#012023"/>
<path d="M218.156 154.018C217.349 154.771 216.703 155.686 216.434 156.762C216.272 157.408 216.326 158.323 217.133 158.484C217.994 158.592 218.64 157.408 218.963 156.762C219.232 156.17 219.824 154.825 219.393 154.233C218.532 152.995 216.541 156.978 216.595 157.731C216.649 158.377 217.295 158.377 217.725 158.054C218.532 157.354 218.694 155.955 218.64 154.986C218.64 154.771 218.371 154.61 218.21 154.771C217.402 155.578 216.972 156.547 216.918 157.677C216.918 157.946 217.295 158 217.402 157.839C217.887 157.139 218.479 156.278 218.586 155.363C218.64 155.148 218.317 154.986 218.21 155.202C217.779 156.009 217.456 156.816 216.918 157.569C217.08 157.623 217.241 157.677 217.402 157.731C217.456 156.762 217.833 155.901 218.532 155.202C218.371 155.148 218.21 155.094 218.102 154.986C218.156 155.578 218.102 156.17 217.887 156.708C217.833 156.87 217.456 157.785 217.187 157.569C217.133 157.569 217.349 156.978 217.349 156.978C217.51 156.493 217.779 156.009 218.048 155.578C218.263 155.309 218.909 154.179 218.963 154.986C218.963 155.525 218.694 156.17 218.479 156.655C218.371 156.816 218.263 157.031 218.156 157.193C218.048 157.354 217.887 157.569 217.725 157.731C217.456 157.731 217.241 157.785 216.972 157.785C216.541 157.569 217.349 156.009 217.51 155.794C217.779 155.309 218.156 154.879 218.586 154.502C218.802 154.125 218.425 153.749 218.156 154.018Z" fill="#012023"/>
<path d="M178.981 80.0257C178.281 79.9181 176.828 79.0033 176.021 78.1961C175.053 77.2274 174.622 75.8821 174.03 74.6444C173.169 72.9224 172.039 71.3081 170.694 69.9627C170.479 69.7475 170.263 69.5322 170.156 69.2632C169.94 68.7251 170.21 68.0793 170.532 67.5412C171.124 66.5187 171.77 65.4963 172.416 64.5277C173.815 64.9044 174.676 66.2497 176.021 66.7878C177.797 67.4874 179.896 66.6264 181.241 65.2272C182.586 63.8281 183.34 61.9985 184.039 60.2227C183.77 61.9985 183.125 63.6667 182.156 65.1734C181.672 65.9268 181.133 66.6264 180.703 67.4336C180.595 67.6488 180.434 67.9179 180.488 68.1331C180.488 68.5098 180.811 68.8327 181.026 69.1556C181.833 70.0704 182.479 71.1466 182.855 72.3305C183.986 71.3081 185.116 70.2856 186.246 69.2632C186.676 68.8865 187.107 68.5098 187.43 68.0255C187.322 68.2946 187.268 68.6174 187.376 68.9403C186.192 69.8551 185.277 70.9852 184.362 72.1152C183.986 72.5996 183.555 73.1377 183.232 73.6758C182.909 74.2678 182.694 74.8597 182.479 75.5054C182.102 76.4741 181.725 77.4427 181.08 78.3037C180.488 79.1647 180.003 79.649 178.981 80.0257Z" fill="white"/>
</g>
</svg>
