<svg width="224" height="167" viewBox="0 0 224 167" fill="none" xmlns="http://www.w3.org/2000/svg">
<path d="M218.114 2.29785H85.656V165.448H218.114V2.29785Z" fill="white"/>
<path d="M218.131 10.2754H98.8826V28.0437H218.131V10.2754Z" fill="#CCCCCC"/>
<path d="M150.276 39.543H9.06812V166H150.276V39.543Z" fill="#ECF8F7"/>
<path d="M152.623 34.9492H5.36353V39.5422H152.623V34.9492Z" fill="white"/>
<path d="M220.579 0H82.9919V4.59294H220.579V0Z" fill="#E2E2E2"/>
<path d="M105.855 50.9736H9.06812V74.4747H105.855V50.9736Z" fill="#00A9B8"/>
<path d="M22.2271 71.1729C19.9641 71.1729 17.8353 70.2844 16.2428 68.692C14.6504 67.0996 13.762 64.9707 13.762 62.7078C13.762 60.4448 14.6504 58.316 16.2428 56.7235C17.8353 55.1311 19.9641 54.2427 22.2271 54.2427C24.49 54.2427 26.6188 55.1311 28.2113 56.7235C29.8037 58.316 30.6922 60.4448 30.6922 62.7078C30.6922 64.9707 29.8037 67.0996 28.2113 68.692C26.6188 70.2844 24.49 71.1729 22.2271 71.1729ZM22.2271 54.997C20.1653 54.997 18.2376 55.8016 16.796 57.2432C15.3544 58.6848 14.533 60.646 14.533 62.691C14.533 64.736 15.3376 66.6805 16.7792 68.1221C18.2376 69.5804 20.1653 70.3683 22.2103 70.3683C24.2721 70.3683 26.1998 69.5637 27.6414 68.1221C29.0997 66.6637 29.8875 64.736 29.8875 62.691C29.8875 60.646 29.0829 58.7015 27.6414 57.2599C26.2165 55.8016 24.2889 54.997 22.2271 54.997Z" fill="white"/>
<path d="M27.7086 61.3176H23.6186V57.2275H20.8528V61.3176H16.7627V64.0834H20.8528V68.1735H23.6186V64.0834H27.7086V61.3176Z" fill="white"/>
<path d="M37.4133 58.6343H39.2237V61.8695H42.5427V58.6343H44.3363V66.8144H42.5427V63.5289H39.2237V66.8144H37.4301V58.6343H37.4133Z" fill="white"/>
<path d="M45.9292 62.7222C45.9292 60.3922 47.7563 58.498 50.2875 58.498C52.8186 58.498 54.629 60.3755 54.629 62.7222C54.629 65.0522 52.8018 66.9464 50.2707 66.9464C47.7396 66.9464 45.9292 65.069 45.9292 62.7222ZM52.7516 62.7222C52.7516 61.3142 51.729 60.1575 50.2707 60.1575C48.8291 60.1575 47.8234 61.2974 47.8234 62.7222C47.8234 64.1303 48.8459 65.2869 50.3042 65.2869C51.7458 65.2869 52.7516 64.147 52.7516 62.7222Z" fill="white"/>
<path d="M55.6008 65.6229L56.6569 64.349C57.3944 64.9524 58.1655 65.338 59.1042 65.338C59.8418 65.338 60.2776 65.053 60.2776 64.5501C60.2776 64.0976 59.9926 63.8629 58.6348 63.5109C56.9921 63.0918 55.9193 62.6392 55.9193 60.9797C55.9193 59.5046 57.1095 58.5156 58.7857 58.5156C59.9759 58.5156 60.9984 58.8844 61.8197 59.5549L60.881 60.9127C60.1602 60.4098 59.4395 60.1081 58.7522 60.1081C58.0649 60.1081 57.6962 60.4266 57.6962 60.8456C57.6962 61.382 58.0482 61.5496 59.4562 61.9184C61.1157 62.3542 62.0544 62.9409 62.0544 64.3993C62.0544 66.0253 60.814 66.9304 59.0539 66.9304C57.8302 66.9304 56.5898 66.4946 55.6008 65.6229Z" fill="white"/>
<path d="M63.6465 58.6318H66.9822C68.9267 58.6318 70.1168 59.7885 70.1168 61.4815C70.1168 63.3756 68.6417 64.3479 66.8146 64.3479H65.4401V66.7952H63.6465V58.6318ZM66.8649 62.7554C67.7701 62.7554 68.2897 62.219 68.2897 61.4982C68.2897 60.6936 67.7365 60.2578 66.8314 60.2578H65.4401V62.7554H66.8649Z" fill="white"/>
<path d="M71.5251 58.6318H73.3187V66.812H71.5251V58.6318Z" fill="white"/>
<path d="M77.2755 60.2913H74.7947V58.6318H81.5668V60.2913H79.0859V66.812H77.2755V60.2913Z" fill="white"/>
<path d="M84.6843 58.5825H86.3438L89.8472 66.8129H87.9697L87.2154 64.9858H83.7623L83.008 66.8129H81.1809L84.6843 58.5825ZM86.5785 63.3934L85.4889 60.7449L84.3993 63.3934H86.5785Z" fill="white"/>
<path d="M91.1213 58.6318H92.9149V65.1692H96.9882V66.812H91.1213V58.6318Z" fill="white"/>
<path d="M218.131 105.521H157.803V145.332H218.131V105.521Z" fill="#ECF8F7"/>
<path d="M218.131 46.8999H157.803V86.711H218.131V46.8999Z" fill="#ECF8F7"/>
<path d="M218.114 11.2139H100.123V26.9036H218.114V11.2139Z" fill="white"/>
<path d="M150.276 39.543H9.06812V45.6278H150.276V39.543Z" fill="#E1E4E8"/>
<path d="M129.089 109.794H23.9707V164.708H129.089V109.794Z" fill="#ABDDDA"/>
<path d="M126.038 113.631H27.4912V164.891H126.038V113.631Z" fill="white"/>
<path d="M122.501 116.868H31.2285V128.652H122.501V116.868Z" fill="#ABDDDA"/>
<path d="M57.9145 131.854H31.2285V164.675H57.9145V131.854Z" fill="#ABDDDA"/>
<path d="M93.2842 131.854H60.4631V164.675H93.2842V131.854Z" fill="#ABDDDA"/>
<path d="M122.501 131.854H95.53V164.675H122.501V131.854Z" fill="#AFCDFB"/>
<path d="M71.2078 131.854H93.2674V143.99L89.3449 164.658H64.9722L71.2078 131.854Z" fill="#CBEEEC"/>
<path d="M89.3118 138.09H64.7546V164.692H89.3118V138.09Z" fill="white"/>
<path d="M88.1381 139.296H65.9277V164.708H88.1381V139.296Z" fill="#ABDDDA"/>
<path d="M77.4442 139.296H76.6228V164.708H77.4442V139.296Z" fill="white"/>
<path d="M75.1644 152.523C75.4514 152.523 75.6841 152.29 75.6841 152.003C75.6841 151.716 75.4514 151.483 75.1644 151.483C74.8774 151.483 74.6448 151.716 74.6448 152.003C74.6448 152.29 74.8774 152.523 75.1644 152.523Z" fill="white"/>
<path d="M78.9022 152.522C79.1892 152.522 79.4218 152.29 79.4218 152.003C79.4218 151.716 79.1892 151.483 78.9022 151.483C78.6152 151.483 78.3826 151.716 78.3826 152.003C78.3826 152.29 78.6152 152.522 78.9022 152.522Z" fill="white"/>
<path d="M39.7271 131.854H53.2377L48.913 164.658H35.4023L39.7271 131.854Z" fill="#CBEEEC"/>
<path d="M55.2002 116.868L53.6581 128.652H40.1475L41.6896 116.868H55.2002Z" fill="#CBEEEC"/>
<path d="M101.917 131.854H115.428L111.12 164.658H97.6091L101.917 131.854Z" fill="#CCE1FF"/>
<path d="M117.406 116.868L115.847 128.652H102.336L103.879 116.868H117.406Z" fill="#CCE1FF"/>
<path d="M98.4296 116.868L96.2002 128.652H71.8274L74.0568 116.868H98.4296Z" fill="#CBEEEC"/>
<path d="M95.5464 134.268H95.5967L95.5464 134.519V134.268Z" fill="#CCE1FF"/>
<path d="M185.997 86.711H166.032L174.766 46.8999H194.73L185.997 86.711Z" fill="#D2E6E4"/>
<path d="M203.682 145.332H183.718L192.451 105.521H212.415L203.682 145.332Z" fill="#D0DDDC"/>
<path d="M175.286 105.521L166.553 145.332H157.803V105.521H175.286Z" fill="#D2E6E4"/>
<path d="M218.115 46.8999V86.711H196.172L205.928 46.8999H218.115Z" fill="#D0DDDC"/>
<path d="M130.68 11.2139H129.021V26.9036H130.68V11.2139Z" fill="#CCCCCC"/>
<path d="M164.256 11.2139H162.597V26.9036H164.256V11.2139Z" fill="#CCCCCC"/>
<path d="M197.01 11.2139H195.351V26.9036H197.01V11.2139Z" fill="#CCCCCC"/>
<path d="M154.685 93.1826H6.73877V98.6807H154.685V93.1826Z" fill="#E1E3E8"/>
<path d="M194.06 134.386V138.124C194.06 138.46 193.976 138.778 193.842 139.063C193.507 139.75 192.786 140.22 191.965 140.22H191.294C190.154 140.22 189.199 139.281 189.199 138.124V134.403C189.199 134.017 189.316 133.649 189.5 133.33C189.869 132.727 190.54 132.324 191.277 132.324H191.948C193.121 132.308 194.06 133.246 194.06 134.386Z" fill="#4F4F4F"/>
<path opacity="0.3" d="M193.842 139.048C193.506 139.735 192.786 140.204 191.964 140.204H191.294C190.154 140.204 189.198 139.266 189.198 138.109V134.388C189.198 134.002 189.316 133.633 189.5 133.315C189.551 133.55 190.439 138.662 193.842 139.048Z" fill="#4F4F4F"/>
<path d="M160.954 161.674H171.28V151.248H160.502L160.954 161.674Z" fill="#313131"/>
<path d="M193.506 139.648L142.8 140.905V114.152H176.09C179.258 114.152 182.175 115.929 183.616 118.762L185.796 123.019L193.506 139.648Z" fill="white"/>
<path d="M164.691 159.965C164.691 162.798 166.149 165.916 166.149 165.916C166.149 165.916 168.312 165.916 168.613 165.916C170.776 165.916 172.536 163.25 172.536 159.965C172.536 156.679 168.312 154.014 166.132 154.014C163.987 154.031 164.691 156.696 164.691 159.965Z" fill="#4F4F4F"/>
<path d="M166.15 165.916C168.317 165.916 170.073 163.251 170.073 159.965C170.073 156.678 168.317 154.014 166.15 154.014C163.984 154.014 162.228 156.678 162.228 159.965C162.228 163.251 163.984 165.916 166.15 165.916Z" fill="black"/>
<path d="M166.2 164.441C167.839 164.441 169.167 162.438 169.167 159.966C169.167 157.494 167.839 155.49 166.2 155.49C164.562 155.49 163.233 157.494 163.233 159.966C163.233 162.438 164.562 164.441 166.2 164.441Z" fill="#121212"/>
<path d="M193.087 159.965C193.087 162.798 194.546 165.916 194.546 165.916C194.546 165.916 196.708 165.916 197.01 165.916C199.172 165.916 200.932 163.25 200.932 159.965C200.932 156.679 196.708 154.014 194.529 154.014C192.367 154.031 193.087 156.696 193.087 159.965Z" fill="#4F4F4F"/>
<path d="M194.545 165.916C196.712 165.916 198.468 163.251 198.468 159.965C198.468 156.678 196.712 154.014 194.545 154.014C192.379 154.014 190.623 156.678 190.623 159.965C190.623 163.251 192.379 165.916 194.545 165.916Z" fill="black"/>
<path d="M127.882 159.965C127.882 162.798 129.34 165.916 129.34 165.916C129.34 165.916 131.502 165.916 131.804 165.916C133.966 165.916 135.726 163.25 135.726 159.965C135.726 156.679 131.502 154.014 129.323 154.014C127.177 154.031 127.882 156.696 127.882 159.965Z" fill="#4F4F4F"/>
<path d="M129.339 165.916C131.506 165.916 133.262 163.251 133.262 159.965C133.262 156.678 131.506 154.014 129.339 154.014C127.173 154.014 125.417 156.678 125.417 159.965C125.417 163.251 127.173 165.916 129.339 165.916Z" fill="black"/>
<path d="M204.855 157.165C204.855 159.646 202.844 161.674 200.363 161.674H171.28C171.363 161.188 171.414 160.685 171.414 160.166C171.414 156.327 169.101 153.192 166.268 153.192C163.418 153.192 161.122 156.31 161.122 160.166C161.122 160.685 161.155 161.188 161.239 161.674H144.225C144.225 161.674 143.538 154.081 143.621 150.276C143.688 146.957 143.688 140.47 143.487 138.894C143.487 138.659 159.881 138.626 164.021 138.609C164.575 138.609 164.927 138.609 164.96 138.609L165.01 138.642L165.077 138.693C165.849 139.229 170.123 142.23 172.771 143.973C175.118 145.515 192.384 146.152 199.156 146.336C200.832 146.387 201.871 146.403 201.871 146.403C201.871 146.403 202.793 147.359 203.615 148.851C204.252 150.007 204.805 151.499 204.822 153.142C204.822 154.165 204.838 155.388 204.838 156.578C204.855 156.779 204.855 156.964 204.855 157.165Z" fill="white"/>
<path d="M189.417 138.611H166.62C166.1 138.611 165.614 138.309 165.396 137.823L159.747 125.268C159.563 124.866 159.864 124.396 160.317 124.396H184.355C184.874 124.396 185.36 124.715 185.578 125.201L189.618 134.437L190.624 136.75C191.026 137.622 190.372 138.611 189.417 138.611Z" fill="#F7F7F7"/>
<path d="M178.789 156.578C178.789 156.98 178.773 157.349 178.739 157.667C178.572 159.847 176.376 161.657 176.376 161.657H171.263C171.347 161.171 171.397 160.668 171.397 160.148C171.397 158.841 171.129 157.617 170.676 156.578C169.771 154.55 168.128 153.192 166.251 153.192C164.374 153.192 162.731 154.55 161.826 156.578C161.373 157.617 161.105 158.841 161.105 160.148C161.105 160.668 161.138 161.171 161.222 161.657H142.783V114.152H157.585L157.652 123.002C157.652 123.002 157.903 124.327 158.406 125.517C158.859 126.573 159.462 127.981 160.116 129.523C161.457 132.674 163.033 136.345 164.022 138.608C164.508 139.748 164.86 140.536 164.96 140.704C165.245 141.223 169.352 143.453 172.822 145.431C173.694 145.917 174.515 146.403 175.236 146.839C176.258 147.459 177.063 147.979 177.432 148.314C178.37 149.169 178.84 153.594 178.789 156.578Z" fill="#EEEEEE"/>
<path d="M201.889 146.403H174.884L165.011 138.642L164.961 138.609H192.2L199.961 144.845L201.889 146.403Z" fill="white"/>
<path d="M178.37 150.965L175.923 150.731C175.068 150.647 174.38 150.01 174.23 149.172L173.676 146.087C173.66 146.037 173.66 145.987 173.66 145.937C175.403 146.942 176.861 147.831 177.414 148.334C177.834 148.669 178.152 149.691 178.37 150.965Z" fill="#A8302D"/>
<path d="M185.795 123.021H157.668C157.668 123.021 157.567 121.227 156.847 119.165C156.21 117.355 155.137 115.327 153.226 114.17H176.224C179.979 114.17 183.298 116.165 184.605 119.165C184.672 119.283 184.723 119.417 184.773 119.534C185.175 120.573 185.527 121.73 185.795 123.021Z" fill="white"/>
<path d="M178.387 150.965L175.94 150.731C175.085 150.647 174.398 150.01 174.247 149.172L173.694 146.087C173.677 146.037 173.677 145.987 173.677 145.937C175.42 146.942 176.878 147.831 177.432 148.334C177.834 148.669 178.152 149.691 178.387 150.965Z" fill="#A2C2DD"/>
<path d="M204.854 157.167C204.854 159.647 202.742 161.676 200.144 161.676H171.279C171.363 161.19 171.413 160.687 171.413 160.167C171.413 158.86 171.145 157.636 170.675 156.597H204.837C204.854 156.781 204.854 156.965 204.854 157.167Z" fill="#9C9C9C"/>
<path d="M161.105 160.148C161.105 160.668 161.138 161.171 161.222 161.657H142.783V156.561H161.826C161.373 157.617 161.105 158.841 161.105 160.148Z" fill="#9C9C9C"/>
<path d="M185.83 146.621H196.876C197.228 146.621 197.496 147.09 197.446 147.627L197.061 151.465C197.01 152.035 196.675 152.454 196.306 152.454H187.204C186.617 152.454 186.098 151.885 185.93 151.03L185.276 147.761C185.159 147.191 185.444 146.621 185.83 146.621Z" fill="#4F4F4F"/>
<path d="M189.635 134.437C176.61 133.767 167.793 126.794 165.128 124.396H184.371C184.891 124.396 185.377 124.715 185.595 125.201L189.635 134.437Z" fill="#E9E9E9"/>
<path d="M149.295 114.814H100.013V162.336H149.295V114.814Z" fill="white"/>
<path d="M185.796 123.021H157.668C157.668 123.021 157.567 121.227 156.847 119.166H184.605C184.673 119.283 184.723 119.417 184.773 119.534C185.175 120.574 185.527 121.73 185.796 123.021Z" fill="#EEEEEE"/>
<path d="M203.631 148.852C203.48 149.104 203.279 149.272 203.061 149.322L199.273 150.026C198.954 150.093 198.703 149.54 198.787 148.953L199.156 146.405L199.172 146.338L199.239 145.818C199.306 145.366 199.508 145.031 199.742 144.93L199.96 144.846L201.888 146.405C201.888 146.405 202.81 147.344 203.631 148.852Z" fill="#4F4F4F"/>
<path d="M177.431 145.432H98.7307V149.438H177.431V145.432Z" fill="#B3B3B3"/>
<path d="M147.996 122.385H98.7144V126.392H147.996V122.385Z" fill="#B3B3B3"/>
<path d="M123.355 142.834C127.225 142.834 130.362 139.697 130.362 135.827C130.362 131.957 127.225 128.82 123.355 128.82C119.486 128.82 116.349 131.957 116.349 135.827C116.349 139.697 119.486 142.834 123.355 142.834Z" fill="#00A9B8"/>
<path d="M123.356 142.029C121.696 142.029 120.137 141.375 118.964 140.202C117.791 139.029 117.137 137.47 117.137 135.81C117.137 134.151 117.791 132.592 118.964 131.418C120.137 130.245 121.696 129.591 123.356 129.591C125.015 129.591 126.574 130.245 127.748 131.418C128.921 132.592 129.575 134.151 129.575 135.81C129.575 137.47 128.921 139.029 127.748 140.202C126.574 141.392 125.015 142.029 123.356 142.029ZM123.356 130.178C121.847 130.178 120.439 130.765 119.366 131.837C118.294 132.91 117.707 134.318 117.707 135.827C117.707 137.336 118.294 138.744 119.366 139.816C120.439 140.889 121.847 141.476 123.356 141.476C124.865 141.476 126.273 140.889 127.345 139.816C128.418 138.744 129.005 137.336 129.005 135.827C129.005 134.318 128.418 132.91 127.345 131.837C126.289 130.765 124.865 130.178 123.356 130.178Z" fill="white"/>
<path d="M127.378 134.805H124.378V131.804H122.35V134.805H119.349V136.833H122.35V139.833H124.378V136.833H127.378V134.805Z" fill="white"/>
<path d="M183.013 151.416L178.387 150.964L175.94 150.729C175.085 150.645 174.397 150.008 174.247 149.17L173.693 146.086C173.677 146.036 173.677 145.985 173.677 145.935C173.643 145.281 174.247 144.762 174.917 144.896L182.125 146.354C182.578 146.455 182.946 146.79 183.08 147.242L183.935 150.377C184.069 150.93 183.6 151.483 183.013 151.416Z" fill="#4F4F4F"/>
<path d="M157.753 126.658L162.614 138.61H154.283C154.283 138.61 152.573 138.325 152.355 134.838C152.12 131.117 152.12 124.68 152.12 124.68L155.775 124.664C157.166 124.865 157.384 125.619 157.753 126.658Z" fill="#F7F7F7"/>
<path d="M160.132 132.476C160.132 132.476 160.551 137.303 158.171 138.627H162.63L160.132 132.476Z" fill="#4F4F4F"/>
<path d="M160.786 135.693C160.786 135.693 159.78 134.972 159.697 134.385V137.771H161.021L160.786 135.693Z" fill="#4F4F4F"/>
<path d="M159.696 134.386V138.124C159.696 138.46 159.612 138.778 159.478 139.063C159.143 139.75 158.422 140.22 157.601 140.22H156.93C155.79 140.22 154.835 139.281 154.835 138.124V134.403C154.835 134.017 154.952 133.649 155.137 133.33C155.505 132.727 156.176 132.324 156.914 132.324H157.584C158.757 132.308 159.696 133.246 159.696 134.386Z" fill="#4F4F4F"/>
<path d="M148.046 160.148C148.046 160.668 148.113 161.171 148.281 161.657H114.354V156.561H149.404C148.549 157.617 148.046 158.841 148.046 160.148Z" fill="#9C9C9C"/>
<path d="M132.424 160.148C132.424 160.668 132.491 161.171 132.659 161.657H98.7144V156.561H133.765C132.927 157.617 132.424 158.841 132.424 160.148Z" fill="#9C9C9C"/>
<path d="M114.824 161.673H102.704C102.453 160.584 101.682 152.789 108.471 152.789C114.639 152.789 115.092 159.896 114.824 161.673Z" fill="#313131"/>
<path d="M106.492 159.965C106.492 162.798 107.95 165.916 107.95 165.916C107.95 165.916 110.113 165.916 110.415 165.916C112.577 165.916 114.337 163.25 114.337 159.965C114.337 156.679 110.113 154.014 107.934 154.014C105.788 154.031 106.492 156.696 106.492 159.965Z" fill="#4F4F4F"/>
<path d="M107.95 165.916C110.116 165.916 111.872 163.252 111.872 159.965C111.872 156.679 110.116 154.015 107.95 154.015C105.784 154.015 104.028 156.679 104.028 159.965C104.028 163.252 105.784 165.916 107.95 165.916Z" fill="black"/>
<path d="M108.001 164.441C109.639 164.441 110.968 162.438 110.968 159.966C110.968 157.494 109.639 155.49 108.001 155.49C106.362 155.49 105.034 157.494 105.034 159.966C105.034 162.438 106.362 164.441 108.001 164.441Z" fill="#121212"/>
<path d="M41.3602 111.136C41.1088 110.65 46.8416 108.906 46.9254 113.684C46.9254 113.684 57.6534 113.415 52.5408 107.431C50.764 105.353 50.9484 103.643 50.9987 102.05C51.049 100.458 49.8923 95.8148 45.9196 96.2841C45.9196 96.2841 44.8803 95.8651 43.5729 96.5356C40.6226 98.0945 34.0182 112.896 41.3602 111.136Z" fill="black"/>
<path d="M58.9102 116.484C58.9102 116.484 59.6142 115.428 60.1673 115.395C60.7373 115.378 61.7766 115.076 61.6927 115.294C61.6089 115.495 60.9552 115.529 60.9049 115.646C60.8378 115.763 61.8604 115.965 62.1621 115.981C62.4471 115.998 63.1343 115.981 63.1176 116.132C63.1008 116.283 61.8771 116.887 61.0222 116.803C60.1673 116.719 59.0945 117.054 59.0945 117.054L58.9102 116.484Z" fill="#FFB27D"/>
<path d="M48.8025 116.836C48.8025 116.836 49.188 117.59 49.8753 118.445C50.7134 119.485 51.9874 120.691 53.5966 120.926C54.3677 121.043 55.122 120.876 55.8092 120.574C57.7537 119.702 59.2288 117.708 59.2288 117.708C59.5808 116.769 59.0109 116.132 59.0109 116.132C59.0109 116.132 55.0717 117.02 54.6861 116.836C54.3174 116.652 52.1215 110.332 51.6018 109.544C51.0822 108.756 49.3054 108.337 49.3054 108.337L48.8025 116.836Z" fill="#00A9B8"/>
<path d="M34.1014 159.379C34.1014 159.379 32.8945 160.468 33.1291 161.256C33.3638 162.044 34.4534 162.564 34.6043 163.502C34.7551 164.458 35.3418 164.977 35.8614 164.977C36.3811 164.977 38.3758 164.977 38.3758 164.977C38.3758 164.977 38.7614 164.307 37.8227 164.106C36.884 163.905 36.5319 162.781 36.5822 161.742C36.6325 160.703 36.4984 159.312 36.4984 159.312L34.5037 158.842L34.1014 159.379Z" fill="black"/>
<path d="M44.2771 159.849C44.2771 159.849 43.8413 164.492 44.3777 164.761L51.133 164.744C51.133 164.744 51.133 163.956 50.0434 163.788C48.9539 163.621 47.0597 162.984 46.7245 161.559C46.406 160.151 44.2771 159.849 44.2771 159.849Z" fill="black"/>
<path d="M39.4651 126.473C40.8564 123.355 41.7113 122.467 41.5437 121.495C41.4263 120.774 41.9125 108.068 41.9125 108.068C42.0801 108.018 42.4153 107.967 42.583 107.934C43.1529 107.8 43.6222 107.414 43.8234 106.861C44.0581 106.191 44.2425 105.218 44.2425 103.995L44.4268 104.028L47.4273 104.615C47.4273 104.615 47.3603 105.554 47.3603 106.442V106.459C47.3603 107.23 47.8632 107.917 48.6007 108.118C48.9863 108.236 49.3048 108.319 49.3048 108.319C49.3048 108.319 50.4111 111.454 50.6122 114.689C50.8301 117.908 48.6175 119.316 50.629 125.769C52.674 132.357 38.6941 128.2 39.4651 126.473Z" fill="#FFB27D"/>
<path d="M47.411 104.616C47.411 104.616 47.3439 105.555 47.3439 106.443C45.6677 106.393 44.7793 104.868 44.4272 104.013L47.411 104.616Z" fill="#E8945B"/>
<path d="M47.9816 105.454C47.9816 105.454 44.0089 105.521 44.0089 103.057C44.0089 100.593 43.4892 98.9331 46.0204 98.7822C48.5515 98.6313 49.0376 99.57 49.2388 100.408C49.4567 101.23 49.0041 105.37 47.9816 105.454Z" fill="#FFB27D"/>
<path d="M47.8304 98.7151C47.8304 98.7151 46.7409 101.615 45.0814 102.034C43.4219 102.47 42.6843 102.017 42.6843 102.017C42.6843 102.017 43.9583 100.995 44.2265 99.2347C44.2265 99.2347 47.0091 97.3405 47.8304 98.7151Z" fill="black"/>
<path d="M47.5615 98.95C47.5615 98.95 48.3661 99.2517 48.7014 99.8384C49.0199 100.408 49.3048 101.179 49.2378 102.101C49.2378 102.101 50.0591 100.123 49.1372 99.017C48.165 97.8436 47.5615 98.95 47.5615 98.95Z" fill="black"/>
<path d="M47.1101 103.926C47.1101 103.926 47.3783 104.278 47.9315 104.261C48.3673 104.245 48.5349 103.859 48.5349 103.859C48.5349 103.859 47.7303 103.658 47.1101 103.926Z" fill="#EBF3FA"/>
<path d="M40.0017 113.683C40.0017 113.683 40.0185 115.56 40.119 117.27C40.1861 118.393 40.2867 119.449 40.4543 119.818C40.8566 120.757 41.3259 120.908 41.3259 120.908L44.8796 121.779L46.12 122.081L50.0592 120.908C50.0592 120.908 51.8528 115.912 51.132 113.096C50.4113 110.28 49.3049 108.319 49.3049 108.319C49.3049 108.319 46.0865 111.47 41.9126 108.051L40.0017 113.683Z" fill="#00A9B8"/>
<path d="M49.7913 121.68C49.7913 121.68 51.7358 127.748 51.8699 129.81C51.9872 131.871 48.1486 159.144 47.9977 160.083C47.8469 160.971 46.7405 161.558 46.7405 161.558C46.7405 161.558 46.2209 161.86 45.5001 161.658C44.4944 161.373 44.1591 161.021 44.1591 161.021C44.1591 161.021 42.6505 141.577 43.5892 134.637C44.5279 127.697 44.5446 121.68 44.5446 121.68H49.7913Z" fill="#2C2C2C"/>
<path d="M41.5447 121.496C41.5447 121.496 38.5777 125.485 38.2927 128.184C38.0078 130.883 37.8569 140.353 37.2702 142.968C36.6835 145.6 34.5044 150.646 34.5044 158.843C34.5044 158.843 34.7223 159.312 35.4263 159.563C35.6442 159.647 35.946 159.714 36.2309 159.781C36.8009 159.915 37.3876 159.63 37.6558 159.111C39.1141 156.161 43.7909 146.639 44.0255 144.661C44.1932 143.27 45.6683 134 48.8867 128.569C49.6578 127.262 48.4173 122.082 48.4173 122.082L41.5447 121.496Z" fill="#363636"/>
<path d="M47.2097 103.994C47.2097 103.994 47.2768 104.279 47.9975 104.246C47.9975 104.246 48.601 104.212 48.5842 103.894C48.5842 103.877 47.9976 103.642 47.2097 103.994Z" fill="white"/>
<path d="M50.1097 120.739C50.1097 120.739 49.3219 121.359 47.7797 121.393C45.9191 121.427 41.3262 120.924 41.3262 120.924C41.3262 120.924 41.125 121.494 41.125 122.097C41.125 122.097 46.7405 123.522 49.9924 122.298C49.9924 122.298 50.4115 121.51 50.1097 120.739Z" fill="black"/>
<path d="M47.3606 122.032C47.3606 121.496 47.7461 121.077 48.2155 121.077C48.6848 121.077 49.0704 121.512 49.0704 122.032C49.0704 122.569 48.6848 122.988 48.2155 122.988C47.7461 122.988 47.3606 122.569 47.3606 122.032ZM47.6456 122.032C47.6456 122.401 47.897 122.703 48.2155 122.703C48.534 122.703 48.7854 122.401 48.7854 122.032C48.7854 121.663 48.534 121.362 48.2155 121.362C47.897 121.362 47.6456 121.663 47.6456 122.032Z" fill="white"/>
<path d="M34.1453 131.084L42.9771 132.989L44.0442 128.04L35.2124 126.136L34.1453 131.084Z" fill="#38CBD8"/>
<path d="M44.0424 128.034C44.0424 128.034 41.5783 130.096 38.8292 129.392C36.0802 128.671 35.2085 126.14 35.2085 126.14L44.0424 128.034Z" fill="#12929D"/>
<path d="M42.3147 127.713C42.3147 127.444 42.5326 127.227 42.8008 127.227C43.069 127.227 43.2869 127.444 43.2869 127.713C43.2869 127.981 43.069 128.199 42.8008 128.199C42.5326 128.199 42.3147 127.981 42.3147 127.713ZM42.4823 127.713C42.4823 127.897 42.6332 128.048 42.8176 128.048C43.002 128.048 43.1528 127.897 43.1528 127.713C43.1528 127.528 43.002 127.377 42.8176 127.377C42.6164 127.377 42.4823 127.528 42.4823 127.713Z" fill="#17467F"/>
<path d="M35.6098 128.335C35.6098 128.335 35.6098 129.056 35.4757 129.391C35.3416 129.743 34.9393 130.196 34.7884 130.196C34.6376 130.196 34.9058 129.475 34.8387 129.492C34.7717 129.508 34.4364 130.698 34.2018 130.715C33.9671 130.749 33.7492 129.391 33.8665 128.855C33.9838 128.318 34.537 127.681 34.537 127.681L35.6098 128.335Z" fill="#FFB27D"/>
<path d="M41.9131 108.069C41.9131 108.069 39.7172 108.371 38.5439 110.701C37.6387 112.494 37.0017 118.16 36.3647 119.937C35.7445 121.647 34.9064 124.932 34.4203 127.58C34.3867 127.782 34.5041 127.983 34.6885 128.067L35.4931 128.385C35.6607 128.452 35.8618 128.385 35.9624 128.234C36.6832 127.027 39.4993 122.216 40.4883 119.417C41.6282 116.165 43.7738 114.137 43.7738 114.137L41.9131 108.069Z" fill="#00A9B8"/>
<path d="M42.9692 127.329C42.9692 127.245 43.4888 119.182 43.3882 114.657C43.338 112.276 42.9692 110.6 42.6675 109.611C42.349 108.538 41.8461 108.086 41.8461 108.069L41.6785 108.119C41.6952 108.136 43.0362 110.181 43.1368 114.657C43.2374 119.182 42.7177 127.228 42.7177 127.312L42.9692 127.329Z" fill="#0C2442"/>
<path d="M223.423 167H0.560866C0.247441 167 0 166.625 0 166.15V165.85C0 165.375 0.247441 165 0.560866 165H223.439C223.753 165 224 165.375 224 165.85V166.15C223.983 166.625 223.736 167 223.423 167Z" fill="#C1C1C1"/>
<path d="M83.6841 165.144H79.4097C79.4432 164.926 79.5438 164.238 79.7449 163.618C79.812 163.4 79.8958 163.182 79.9796 162.998C80.3987 162.177 83.0304 162.696 83.0304 162.696C83.0304 162.696 83.2818 162.914 83.4662 163.702C83.5835 164.071 83.6506 164.54 83.6841 165.144Z" fill="black"/>
<path d="M75.857 99.9551C75.857 99.9551 72.4542 100.559 71.6831 102.553C70.9121 104.565 66.5706 136.984 66.5706 136.984C66.5706 136.984 68.7162 138.693 73.3426 138.073C77.9523 137.486 75.857 99.9551 75.857 99.9551Z" fill="#F1EDF2"/>
<path d="M70.794 163.803C70.7772 164.39 70.7102 164.927 70.4923 165.144H62.0439C62.1445 164.843 62.463 164.373 63.3179 164.239C64.3069 164.072 65.8323 163.602 66.7375 162.664C67.056 162.328 67.2906 161.926 67.3912 161.473C67.7935 159.713 70.6767 162.01 70.6767 162.01C70.6767 162.01 70.8108 162.949 70.794 163.803Z" fill="black"/>
<path d="M67.1576 162.95C68.0963 163.252 69.9066 164.174 71.0465 163.738C71.784 163.453 75.9244 151.484 76.1926 146.254C76.2094 145.869 76.2932 145.349 76.4105 144.695C76.6619 143.338 77.081 141.494 77.5839 139.432C78.9081 133.951 80.7017 127.078 80.6682 124.882C80.6012 121.479 70.5101 124.161 70.5101 124.161C70.5101 124.161 69.8228 126.961 69.672 131C69.4038 139.03 68.6494 152.591 66.5877 162.011C66.5038 162.43 66.772 162.816 67.1576 162.95Z" fill="#232222"/>
<path d="M74.1633 124.897L79.4938 163.568C79.4938 163.568 81.8406 164.138 83.6509 163.685C83.6509 163.685 85.2099 143.118 85.0758 138.156C84.9417 133.177 86.1988 124.846 84.7908 123.941C83.3995 123.003 74.1633 124.897 74.1633 124.897Z" fill="black"/>
<path d="M85.4777 101.731C85.4777 101.731 79.879 98.1106 75.856 99.9545C75.2191 100.256 74.4815 101.078 73.9619 101.648C72.5035 103.257 69.6707 128.702 69.6707 128.702C69.6707 128.702 77.7334 131.435 85.4945 127.78V101.731H85.4777Z" fill="white"/>
<path d="M75.5373 99.8706C75.5373 99.8706 69.8548 102.201 69.1005 103.977C68.3294 105.771 65.8318 116.734 65.8318 118.024C65.8318 119.315 70.19 118.309 70.8773 116.231C71.464 114.504 73.4252 109.207 74.4477 105.855L75.5373 99.8706Z" fill="#F1EDF2"/>
<path d="M76.7116 101.648C77.952 101.899 79.7791 101.631 81.1034 100.759C80.4999 99.3177 80.2485 98.1947 80.1647 97.4571C80.1647 97.4236 80.1479 97.3733 80.1479 97.3398C80.1144 96.9542 80.1144 96.7028 80.1312 96.5854H76.9295C76.9295 96.5854 76.0579 96.9878 76.0579 97.256C76.0579 97.4068 76.0579 97.5409 76.0579 97.675C76.0579 98.0438 76.0411 98.3623 76.0243 98.6472C75.9573 99.5524 75.8567 99.9715 75.8567 99.9715C75.8567 99.9715 75.4712 101.396 76.7116 101.648Z" fill="#FFB27D"/>
<path d="M76.0244 98.6475C78.455 99.1169 79.863 97.7926 80.1815 97.4574C80.2318 97.4071 80.2486 97.3736 80.2486 97.3736C80.2151 97.3568 80.1983 97.3568 80.1648 97.34C79.2596 96.9712 77.2146 97.273 76.0579 97.692C76.0579 98.044 76.0412 98.3625 76.0244 98.6475Z" fill="#E2915A"/>
<path d="M80.9698 96.0478C80.534 98.3778 77.5167 98.3107 76.226 98.1599C75.8572 98.1263 75.6225 98.0761 75.6225 98.0761C75.2035 97.9587 74.9856 97.3217 74.8682 96.4669C74.6503 94.7738 74.9185 92.3097 75.2035 91.6728C75.6393 90.7173 76.4439 89.6948 79.4779 90.4323C82.512 91.1699 81.523 93.0473 80.9698 96.0478Z" fill="#FFB27D"/>
<path d="M75.1021 90.3664C75.5212 89.7965 76.3928 89.0924 77.1974 88.6566C78.9072 87.7347 81.1031 88.6901 81.1199 88.6901C83.6007 89.7797 84.2377 91.6739 82.9302 94.6241C81.5389 97.7419 80.2147 97.3899 80.2147 97.3899C80.2147 97.3899 80.4996 97.2223 80.4661 96.25C80.4661 96.1998 80.4661 96.1495 80.4661 96.116C80.4494 95.9148 80.5164 95.7136 80.6673 95.5795C80.969 95.3113 81.1199 94.4732 80.8684 94.2385C80.5499 93.9536 80.1141 94.3056 79.98 94.557C79.8627 94.7414 79.6448 94.8085 79.4436 94.6744C78.6725 94.1882 79.1754 93.216 78.4379 92.6126C77.7003 92.0091 76.2084 92.512 75.1021 92.0426C73.6438 91.5062 74.7836 90.7854 75.1021 90.3664Z" fill="black"/>
<path d="M74.7497 139.38C75.2358 139.497 75.7219 139.615 76.208 139.682C76.6271 139.749 77.0629 139.816 77.4819 139.849C79.879 140.05 82.2928 139.715 85.1089 138.911C85.7459 138.726 86.3996 138.525 87.0869 138.29C87.1539 138.274 86.9025 130.814 86.6008 123.137C86.5673 122.349 86.5337 121.545 86.5002 120.757C86.4834 120.422 86.4667 120.086 86.4667 119.751C86.1985 112.962 85.9303 106.81 85.88 106.492C85.7459 105.738 85.6286 105.101 85.4945 104.547C85.1089 102.938 84.6396 102.05 83.6003 101.295C83.4997 101.212 82.6616 100.793 81.9408 100.441C81.3373 100.139 80.8009 99.8706 80.8009 99.8706C80.5663 99.9879 80.2645 100.541 79.9628 101.312C79.4096 102.737 78.8062 104.933 78.3871 106.576C78.1189 107.632 77.9178 108.453 77.8675 108.688C77.7669 109.09 77.6496 109.861 77.4987 110.9C77.2976 112.325 77.0629 114.253 76.8114 116.449C76.7779 116.667 76.7612 116.901 76.7276 117.136C76.6941 117.404 76.6606 117.672 76.6438 117.941C76.6271 118.024 76.6271 118.108 76.6103 118.192C76.5097 119.064 76.4091 119.952 76.3253 120.874C76.2415 121.628 75.1017 122.182 75.0178 122.936C74.9676 123.388 74.8838 127.546 74.7497 128.87C74.6491 129.859 74.7161 138.927 74.7497 139.38Z" fill="#F1EDF2"/>
<path d="M83.0312 109.242C83.0312 109.258 83.2323 116.114 78.0695 116.952C72.9066 117.791 76.3429 118.009 76.3429 118.009C76.3429 118.009 86.0484 117.589 86.1993 117.338C86.3669 117.07 83.0312 109.242 83.0312 109.242Z" fill="#E8E3E9"/>
<path d="M78.6721 119.886C78.6721 119.886 78.7727 119.953 78.9571 120.07C78.9571 120.07 78.9571 120.07 78.9739 120.07C79.7617 120.573 82.0917 121.948 85.4945 122.853C85.8465 122.954 86.2153 123.037 86.6008 123.121C86.5673 122.333 86.5338 121.529 86.5002 120.741C86.9528 120.707 87.3719 120.657 87.7742 120.557C87.7574 120.456 87.7407 120.355 87.7407 120.238C87.3048 120.054 86.8858 119.886 86.4667 119.735C86.1315 119.601 85.7962 119.484 85.4945 119.366C84.1032 118.83 83.0639 118.478 83.0639 118.478L78.9236 119.786L78.6721 119.886Z" fill="#E8E3E9"/>
<path d="M77.5828 119.768C77.5828 119.768 78.1192 119.903 78.9573 120.07C78.9573 120.07 78.9573 120.07 78.9741 120.07C80.533 120.389 83.1479 120.824 85.4947 120.791C85.8467 120.791 86.182 120.774 86.5004 120.741C86.953 120.707 87.3721 120.657 87.7744 120.556C88.6293 120.372 89.3501 120.07 89.8194 119.584C93.306 116.03 87.9253 103.308 86.7854 102.067C85.4612 100.626 83.0474 100.106 81.7231 99.9383C81.6728 99.9383 81.6225 99.9215 81.5555 99.9215C81.0861 99.8712 80.7844 99.8545 80.7677 99.8545C80.7677 99.8545 80.8682 100.19 81.0526 100.76C81.1197 100.978 81.2035 101.229 81.2873 101.514C82.1087 104.196 83.6843 109.459 84.3884 112.426C84.6398 113.516 84.7739 114.287 84.7236 114.522C84.4554 115.544 81.6393 116.064 79.8625 116.282C79.1249 116.382 78.555 116.416 78.4209 116.433C78.4041 116.433 78.4041 116.433 78.3874 116.433L78.2868 116.852L78.0354 117.874L77.8007 118.863L77.5828 119.768Z" fill="#F1EDF2"/>
<path d="M67.8607 125.87L79.8292 125.367L77.3986 110.465L65.4302 110.968L67.8607 125.87Z" fill="#80BFBB"/>
<path d="M78.3702 116.482C78.3702 116.482 76.0402 116.314 75.9228 116.867C75.6546 118.125 77.9176 119.164 78.6551 119.097C79.4094 119.013 78.9066 116.398 78.3702 116.482Z" fill="#FFB27D"/>
<path d="M66.0835 113.984C66.0835 113.984 68.3129 113.28 68.5476 113.783C69.1008 114.957 67.1396 116.482 66.402 116.582C65.6812 116.7 65.5471 114.035 66.0835 113.984Z" fill="#FFB27D"/>
<path d="M80.5327 99.1338C80.5327 99.1338 81.639 99.3182 82.1251 100.022C82.1251 100.022 78.3368 106.66 78.3536 106.593C78.3703 106.543 79.594 99.9384 80.5327 99.1338Z" fill="#CECECE"/>
<path d="M75.9742 99.2173C75.6557 99.3346 75.0355 99.9716 74.9014 100.324L74.4656 105.872C74.4656 105.872 75.3875 101.799 75.8736 99.9548C75.9742 99.5022 75.9574 99.3514 75.9742 99.2173Z" fill="#CECECE"/>
<path d="M73.4257 110.633C73.4257 110.633 73.3251 110.214 72.7887 110.264C72.2523 110.315 69.1847 110.466 69.1847 110.466C69.1847 110.466 68.598 110.449 68.6483 110.834L73.4257 110.633Z" fill="#00A9B8"/>
</svg>
