<svg width="216" height="161" viewBox="0 0 216 161" fill="none" xmlns="http://www.w3.org/2000/svg">
<path d="M87.0984 23.8369H2.16479V160.066H87.0984V23.8369Z" fill="#F4F4F4"/>
<path d="M115.864 28.3287H98.7599C97.9716 28.3287 97.3335 27.6904 97.3335 26.902V10.3818C97.3335 9.59336 97.9716 8.95508 98.7599 8.95508H115.864C116.653 8.95508 117.291 9.59336 117.291 10.3818V26.902C117.291 27.6904 116.64 28.3287 115.864 28.3287Z" fill="#91CECF"/>
<path d="M115.112 27.4888H99.4971C98.7839 27.4888 98.1958 26.9006 98.1958 26.1872V11.1063C98.1958 10.3929 98.7839 9.80469 99.4971 9.80469H115.112C115.826 9.80469 116.414 10.3929 116.414 11.1063V26.1872C116.426 26.9006 115.838 27.4888 115.112 27.4888Z" fill="#DFF5F4"/>
<path d="M107.305 11.9832C107.534 11.9832 107.718 11.7983 107.718 11.5702C107.718 11.3421 107.534 11.1572 107.305 11.1572C107.077 11.1572 106.893 11.3421 106.893 11.5702C106.893 11.7983 107.077 11.9832 107.305 11.9832Z" fill="#00A9B8"/>
<path d="M110.596 12.7586C110.824 12.7586 111.008 12.5737 111.008 12.3456C111.008 12.1175 110.824 11.9326 110.596 11.9326C110.367 11.9326 110.183 12.1175 110.183 12.3456C110.183 12.5737 110.367 12.7586 110.596 12.7586Z" fill="#00A9B8"/>
<path d="M113.311 15.1873C113.539 15.1873 113.724 15.0024 113.724 14.7743C113.724 14.5462 113.539 14.3613 113.311 14.3613C113.083 14.3613 112.898 14.5462 112.898 14.7743C112.898 15.0024 113.083 15.1873 113.311 15.1873Z" fill="#00A9B8"/>
<path d="M114.5 18.7664C114.728 18.7664 114.913 18.5815 114.913 18.3534C114.913 18.1253 114.728 17.9404 114.5 17.9404C114.272 17.9404 114.087 18.1253 114.087 18.3534C114.087 18.5815 114.272 18.7664 114.5 18.7664Z" fill="#00A9B8"/>
<path d="M113.486 22.7215C113.714 22.7215 113.899 22.5366 113.899 22.3085C113.899 22.0804 113.714 21.8955 113.486 21.8955C113.258 21.8955 113.073 22.0804 113.073 22.3085C113.073 22.5366 113.258 22.7215 113.486 22.7215Z" fill="#00A9B8"/>
<path d="M110.896 25.325C111.124 25.325 111.309 25.1401 111.309 24.912C111.309 24.6839 111.124 24.499 110.896 24.499C110.668 24.499 110.483 24.6839 110.483 24.912C110.483 25.1401 110.668 25.325 110.896 25.325Z" fill="#00A9B8"/>
<path d="M107.305 26.3748C107.533 26.3748 107.718 26.1899 107.718 25.9618C107.718 25.7337 107.533 25.5488 107.305 25.5488C107.077 25.5488 106.892 25.7337 106.892 25.9618C106.892 26.1899 107.077 26.3748 107.305 26.3748Z" fill="#00A9B8"/>
<path d="M104.014 12.7586C104.242 12.7586 104.427 12.5737 104.427 12.3456C104.427 12.1175 104.242 11.9326 104.014 11.9326C103.786 11.9326 103.601 12.1175 103.601 12.3456C103.601 12.5737 103.786 12.7586 104.014 12.7586Z" fill="#00A9B8"/>
<path d="M101.287 15.1873C101.515 15.1873 101.7 15.0024 101.7 14.7743C101.7 14.5462 101.515 14.3613 101.287 14.3613C101.059 14.3613 100.875 14.5462 100.875 14.7743C100.875 15.0024 101.059 15.1873 101.287 15.1873Z" fill="#00A9B8"/>
<path d="M100.098 18.7664C100.326 18.7664 100.511 18.5815 100.511 18.3534C100.511 18.1253 100.326 17.9404 100.098 17.9404C99.8702 17.9404 99.6853 18.1253 99.6853 18.3534C99.6853 18.5815 99.8702 18.7664 100.098 18.7664Z" fill="#00A9B8"/>
<path d="M101.112 22.7215C101.34 22.7215 101.525 22.5366 101.525 22.3085C101.525 22.0804 101.34 21.8955 101.112 21.8955C100.884 21.8955 100.699 22.0804 100.699 22.3085C100.699 22.5366 100.884 22.7215 101.112 22.7215Z" fill="#00A9B8"/>
<path d="M103.714 25.325C103.942 25.325 104.127 25.1401 104.127 24.912C104.127 24.6839 103.942 24.499 103.714 24.499C103.486 24.499 103.301 24.6839 103.301 24.912C103.301 25.1401 103.486 25.325 103.714 25.325Z" fill="#00A9B8"/>
<path d="M107.607 18.7703C107.835 18.7703 108.019 18.5854 108.019 18.3573C108.019 18.1292 107.835 17.9443 107.607 17.9443C107.378 17.9443 107.194 18.1292 107.194 18.3573C107.194 18.5854 107.378 18.7703 107.607 18.7703Z" fill="#00A9B8"/>
<path d="M107.669 13.1875H107.556V18.3563H107.669V13.1875Z" fill="#00A9B8"/>
<path d="M110.4 16.3254L110.191 16.0596L107.455 18.2077L107.664 18.4735L110.4 16.3254Z" fill="#00A9B8"/>
<path d="M87.0984 0.533203H2.16479V19.1559H87.0984V0.533203Z" fill="#E6FBF9"/>
<path d="M87.0984 45.126H2.16479V46.9908H87.0984V45.126Z" fill="#C1C1C1"/>
<path d="M213.635 23.9746H128.702V160.203H213.635V23.9746Z" fill="#F4F4F4"/>
<path d="M212.959 0.533203H128.025V19.1559H212.959V0.533203Z" fill="#E6FBF9"/>
<path d="M213.635 44.5742H128.702V46.439H213.635V44.5742Z" fill="#C1C1C1"/>
<path d="M213.635 69.7939H128.702V71.6587H213.635V69.7939Z" fill="#C1C1C1"/>
<path d="M214.965 92.0693H130.031V93.9341H214.965V92.0693Z" fill="#C1C1C1"/>
<path d="M213.635 116.3H128.702V118.165H213.635V116.3Z" fill="#C1C1C1"/>
<path d="M213.635 140.29H128.702V142.155H213.635V140.29Z" fill="#C1C1C1"/>
<path d="M65.5774 38.0176H56.7312V45.1263H65.5774V38.0176Z" fill="#91CECF"/>
<path d="M61.5357 39.2451H56.731V40.2589H61.5357V39.2451Z" fill="white"/>
<path d="M80.1174 38.0176H71.2712V45.1263H80.1174V38.0176Z" fill="#91CECF"/>
<path d="M76.0755 39.2451H71.2708V40.2589H76.0755V39.2451Z" fill="white"/>
<path d="M15.4907 39.417H5.10547V45.124H15.4907V39.417Z" fill="#ABDDDA"/>
<path d="M10.7483 40.4043H5.10522V41.2178H10.7483V40.4043Z" fill="white"/>
<path d="M19.4822 36.2002L19.4572 36.7133L19.0818 44.5354H17.5928L16.9672 36.7133L16.9297 36.2002H19.4822Z" fill="white"/>
<path d="M19.4822 36.2002L19.4572 36.7133H16.9672L16.9297 36.2002H19.4822Z" fill="#EBF3FA"/>
<path d="M19.107 43.835H17.543V45.1241H19.107V43.835Z" fill="#ABDDDA"/>
<path d="M18.3438 41.6562H18.2312V43.3959H18.3438V41.6562Z" fill="#CDE0FB"/>
<path d="M32.7087 39.416H22.3235V45.123H32.7087V39.416Z" fill="#91CECF"/>
<path d="M27.9658 40.4033H22.3228V41.2168H27.9658V40.4033Z" fill="white"/>
<path d="M36.6868 36.2002L36.6618 36.7133L36.2864 44.5354H34.8099L34.1718 36.7133L34.1343 36.2002H36.6868Z" fill="#91CECF"/>
<path d="M36.6868 36.2002L36.6618 36.7133H34.1718L34.1343 36.2002H36.6868Z" fill="#ABDDDA"/>
<path d="M36.3104 43.835H34.7463V45.1241H36.3104V43.835Z" fill="white"/>
<path d="M49.6484 39.417H39.2632V45.124H49.6484V39.417Z" fill="#ABDDDA"/>
<path d="M44.9058 40.4043H39.2627V41.2178H44.9058V40.4043Z" fill="white"/>
<path d="M53.6267 36.2002L53.6017 36.7133L53.2388 44.5354H51.7499L51.1118 36.7133L51.0742 36.2002H53.6267Z" fill="white"/>
<path d="M53.6267 36.2002L53.6017 36.7133H51.1118L51.0742 36.2002H53.6267Z" fill="#EBF3FA"/>
<path d="M53.2518 43.835H51.6877V45.1241H53.2518V43.835Z" fill="#ABDDDA"/>
<path d="M52.5013 41.6562H52.3887V43.3959H52.5013V41.6562Z" fill="#CDE0FB"/>
<path d="M204.101 64.085H193.716V69.7919H204.101V64.085Z" fill="#ABDDDA"/>
<path d="M199.359 65.0752H193.716V65.8887H199.359V65.0752Z" fill="white"/>
<path d="M208.08 60.8818L208.055 61.3824L207.692 69.2045H206.203L205.565 61.3824L205.527 60.8818H208.08Z" fill="white"/>
<path d="M208.08 60.8818L208.055 61.3824H205.565L205.527 60.8818H208.08Z" fill="#EBF3FA"/>
<path d="M207.704 68.5176H206.14V69.8066H207.704V68.5176Z" fill="#7CC0BC"/>
<path d="M206.953 66.3389H206.84V68.0785H206.953V66.3389Z" fill="#ABDDDA"/>
<path d="M185.72 64.085H175.335V69.7919H185.72V64.085Z" fill="#7CC0BC"/>
<path d="M180.978 65.0752H175.335V65.8887H180.978V65.0752Z" fill="white"/>
<path d="M189.712 60.8818L189.687 61.3824L189.312 69.2045H187.835L187.197 61.3824L187.159 60.8818H189.712Z" fill="white"/>
<path d="M189.712 60.8818L189.687 61.3824H187.197L187.159 60.8818H189.712Z" fill="#EBF3FA"/>
<path d="M189.336 68.5176H187.772V69.8066H189.336V68.5176Z" fill="#7CC0BC"/>
<path d="M188.573 66.3389H188.46V68.0785H188.573V66.3389Z" fill="#ABDDDA"/>
<path d="M204.101 134.569H193.716V140.276H204.101V134.569Z" fill="#ABDDDA"/>
<path d="M199.359 135.561H193.716V136.374H199.359V135.561Z" fill="white"/>
<path d="M208.08 131.366L208.055 131.867L207.692 139.689H206.204L205.565 131.867L205.528 131.366H208.08Z" fill="white"/>
<path d="M208.08 131.366L208.055 131.867H205.565L205.528 131.366H208.08Z" fill="#EBF3FA"/>
<path d="M207.704 138.989H206.14V140.278H207.704V138.989Z" fill="#ABDDDA"/>
<path d="M206.954 136.812H206.841V138.551H206.954V136.812Z" fill="#CDE0FB"/>
<path d="M185.72 134.569H175.335V140.276H185.72V134.569Z" fill="#ABDDDA"/>
<path d="M180.978 135.561H175.335V136.374H180.978V135.561Z" fill="white"/>
<path d="M189.712 131.366L189.687 131.867L189.312 139.689H187.835L187.197 131.867L187.159 131.366H189.712Z" fill="white"/>
<path d="M189.712 131.366L189.687 131.867H187.197L187.159 131.366H189.712Z" fill="#EBF3FA"/>
<path d="M189.336 138.989H187.772V140.278H189.336V138.989Z" fill="#ABDDDA"/>
<path d="M188.573 136.812H188.46V138.551H188.573V136.812Z" fill="#CDE0FB"/>
<path d="M167.541 64.085H157.156V69.7919H167.541V64.085Z" fill="#ABDDDA"/>
<path d="M162.797 65.0752H157.154V65.8887H162.797V65.0752Z" fill="white"/>
<path d="M171.531 60.8818L171.506 61.3824L171.131 69.2045H169.654L169.016 61.3824L168.979 60.8818H171.531Z" fill="white"/>
<path d="M171.531 60.8818L171.506 61.3824H169.016L168.979 60.8818H171.531Z" fill="#EBF3FA"/>
<path d="M171.156 68.5176H169.592V69.8066H171.156V68.5176Z" fill="#ABDDDA"/>
<path d="M170.393 66.3389H170.281V68.0785H170.393V66.3389Z" fill="#CDE0FB"/>
<path d="M56.8683 6.75195H28.0149V9.01722H56.8683V6.75195Z" fill="#ABDDDA"/>
<path d="M59.7212 10.6465H25.1497V12.9117H59.7212V10.6465Z" fill="#ABDDDA"/>
<path d="M184.919 6.75195H156.066V9.01722H184.919V6.75195Z" fill="#ABDDDA"/>
<path d="M187.772 10.6465H153.201V12.9117H187.772V10.6465Z" fill="#ABDDDA"/>
<path d="M16.4036 45.126H10.7605V48.2798H16.4036V45.126Z" fill="white"/>
<path d="M33.6074 45.126H27.9644V48.2798H33.6074V45.126Z" fill="white"/>
<path opacity="0.5" d="M8.43265 70.0701H6.59334H5.61738C5.24201 70.0701 4.9292 69.7572 4.9292 69.3818V62.5985C4.9292 62.223 5.24201 61.9102 5.61738 61.9102H6.48073H8.42014C8.79551 61.9102 9.10831 62.223 9.10831 62.5985V69.3818C9.12083 69.7572 8.82053 70.0701 8.43265 70.0701Z" fill="#BDE1E1"/>
<path d="M8.83257 68.1425L8.78252 67.7795L8.73247 67.4166C8.71996 67.329 8.66991 67.2539 8.60735 67.1913C8.54479 67.1413 8.4572 67.1162 8.3571 67.1287C8.34459 67.1287 8.33208 67.1287 8.33208 67.1287C8.36961 67.0787 8.38213 67.0286 8.39464 66.966C8.4572 67.1162 8.61986 67.2038 8.78252 67.1663C8.95769 67.1287 9.0703 66.941 9.03277 66.7658L8.94518 66.4154L8.8576 66.0649C8.83257 65.9773 8.78252 65.9023 8.70745 65.8522C8.63237 65.8021 8.54479 65.7896 8.4572 65.8146C8.28203 65.8522 8.16942 66.0399 8.20695 66.2151L8.33208 66.7408C8.30705 66.7157 8.29454 66.6907 8.257 66.6657C8.19444 66.6156 8.13188 66.6031 8.06932 66.6031C8.10686 66.5656 8.11937 66.5155 8.13188 66.4529C8.14439 66.3903 8.13188 66.3152 8.10686 66.2527C8.14439 66.1275 8.10686 65.9899 7.99425 65.9022L7.4437 65.4392C7.30607 65.3265 7.09336 65.3391 6.96823 65.4892C6.85562 65.6144 6.86814 65.8146 6.98075 65.9273C6.95572 65.9273 6.91818 65.9273 6.89316 65.9398L6.54281 66.0399L6.19247 66.14C6.06735 66.1776 5.97976 66.2652 5.95474 66.3778L5.9172 66.2902L5.77956 65.9523C5.70449 65.7771 5.5168 65.702 5.34163 65.7771C5.16646 65.8522 5.09138 66.0399 5.16646 66.2151L5.30409 66.553L5.39168 66.7658C5.27907 66.8159 5.19148 66.9285 5.17897 67.0536L5.16646 67.4166L5.15395 67.7795C5.15395 67.8671 5.17897 67.9547 5.24153 68.0173C5.30409 68.0799 5.37917 68.1174 5.46675 68.13C5.50429 68.13 5.54183 68.13 5.57937 68.1174C5.54183 68.1925 5.52932 68.2676 5.55434 68.3427C5.49178 68.3803 5.44173 68.4303 5.41671 68.5054L5.27907 68.8433L5.14143 69.1812C5.1039 69.2688 5.1039 69.3564 5.14143 69.4315C5.17897 69.5066 5.24153 69.5817 5.31661 69.6068C5.45424 69.6568 5.59188 69.6193 5.69198 69.5191C5.717 69.5692 5.75454 69.6193 5.79208 69.6568C5.94222 69.7695 6.15493 69.7444 6.25503 69.5942L6.46774 69.3064L6.69296 69.0185C6.71799 68.981 6.74301 68.9309 6.75552 68.8934C6.8306 68.9059 6.90567 68.8809 6.98075 68.8308L7.04331 68.7933L6.96823 68.8934L6.75552 69.1812C6.64291 69.3314 6.66794 69.5442 6.81809 69.6443C6.96823 69.7569 7.18094 69.7319 7.28104 69.5817L7.49375 69.2939L7.71897 69.006C7.71897 69.006 7.71897 68.9935 7.73149 68.9935C7.744 69.0185 7.76902 69.0436 7.79405 69.0686L7.71897 69.1687C7.60636 69.3189 7.63139 69.5317 7.78154 69.6318C7.93168 69.7444 8.14439 69.7194 8.24449 69.5692L8.68242 68.9935C8.73247 68.9184 8.7575 68.8308 8.74498 68.7432C8.73247 68.6556 8.69494 68.5805 8.61986 68.5179C8.59484 68.4929 8.56981 68.4804 8.54479 68.4679H8.5573C8.71996 68.4929 8.8576 68.3302 8.83257 68.1425ZM5.8171 67.8296V67.7044C5.84212 67.742 5.86715 67.767 5.90469 67.8046C5.9172 67.8171 5.92971 67.8171 5.94222 67.8296L5.79208 67.9297C5.80459 67.8922 5.8171 67.8671 5.8171 67.8296ZM8.06932 67.5167L8.13188 67.9923C8.10686 67.9297 8.05681 67.8922 8.00676 67.8546C7.9442 67.8171 7.86912 67.792 7.78154 67.8046C7.81907 67.7795 7.8441 67.7545 7.86912 67.717L8.05681 67.4667C8.06932 67.5042 8.06932 67.5042 8.06932 67.5167ZM7.30607 66.2276L7.39365 66.3027L7.30607 66.3653C7.31858 66.3153 7.31858 66.2652 7.30607 66.2276ZM7.38114 67.2789C7.36863 67.2289 7.35612 67.1788 7.31858 67.1413C7.3436 67.1287 7.36863 67.1162 7.39365 67.1037L7.65641 66.916L7.38114 67.2789ZM7.59385 67.9047C7.51878 67.8421 7.43119 67.8171 7.3436 67.8296L7.35612 67.742C7.36863 67.767 7.39365 67.7795 7.40617 67.7921C7.48124 67.8546 7.56883 67.8671 7.65641 67.8546C7.63139 67.8797 7.61888 67.8922 7.59385 67.9047ZM6.9307 66.6406C6.85562 66.7533 6.85562 66.9035 6.9307 67.0161C6.90567 67.0286 6.88065 67.0411 6.86814 67.0536C6.88065 67.0036 6.89316 66.9535 6.88065 66.9035C6.86814 66.8159 6.8306 66.7408 6.75552 66.6782L6.9307 66.6406ZM6.59286 67.4541L6.71799 67.2914C6.71799 67.304 6.71799 67.3165 6.71799 67.329L6.69296 67.6419C6.64291 67.6043 6.58035 67.5668 6.51779 67.5543L6.59286 67.4541ZM5.99227 68.8558L6.02981 68.7682C6.05483 68.7057 6.06735 68.6306 6.04232 68.568C6.05483 68.568 6.05483 68.5555 6.06735 68.5555L6.65543 68.1425C6.65543 68.1425 6.66794 68.1425 6.66794 68.13C6.68045 68.1675 6.69296 68.1925 6.70547 68.2176L6.60538 68.2927C6.5303 68.3427 6.49277 68.4178 6.46774 68.4929C6.35513 68.4804 6.24252 68.5304 6.16745 68.6181L5.99227 68.8558ZM7.55631 68.4554L7.56883 68.5304C7.5438 68.5179 7.50626 68.5054 7.48124 68.5054L7.55631 68.4554ZM8.26952 68.5304L8.24449 68.4178V68.3928C8.28203 68.4428 8.33208 68.4679 8.38213 68.4929C8.33208 68.5054 8.30705 68.5179 8.26952 68.5304ZM6.24252 66.8033L6.05483 67.0411L5.82961 67.329L5.84212 67.1037V67.0912C5.85464 67.0912 5.86715 67.0787 5.86715 67.0787C6.00479 67.0161 6.07986 66.8784 6.06735 66.7408C6.12991 66.7783 6.17996 66.8033 6.24252 66.8033Z" fill="#ABDDDA"/>
<path opacity="0.5" d="M6.60652 70.0701H5.63056C5.25519 70.0701 4.94238 69.7572 4.94238 69.3818V62.5985C4.94238 62.223 5.25519 61.9102 5.63056 61.9102H6.49391C6.56898 62.0353 6.60652 62.173 6.60652 62.3357V69.995C6.60652 70.02 6.60652 70.0451 6.60652 70.0701Z" fill="#ABDDDA"/>
<path d="M9.08359 62.2339H6.48103H5.00458C4.9295 62.2339 4.86694 62.1714 4.86694 62.0963V61.458C4.86694 61.3829 4.9295 61.3203 5.00458 61.3203H6.48103H9.08359C9.15867 61.3203 9.22123 61.3829 9.22123 61.458V62.0963C9.20872 62.1714 9.15867 62.2339 9.08359 62.2339Z" fill="#00A9B8"/>
<path d="M6.48103 62.2339H5.00458C4.9295 62.2339 4.86694 62.1714 4.86694 62.0963V61.458C4.86694 61.3829 4.9295 61.3203 5.00458 61.3203H6.48103C6.55611 61.3203 6.61867 61.3829 6.61867 61.458V62.0963C6.60615 62.1714 6.54359 62.2339 6.48103 62.2339Z" fill="#00A9B8"/>
<path opacity="0.5" d="M15.6289 70.0701H13.7896H12.8137C12.4383 70.0701 12.1255 69.7572 12.1255 69.3818V62.5985C12.1255 62.223 12.4383 61.9102 12.8137 61.9102H13.677H15.6164C15.9918 61.9102 16.3046 62.223 16.3046 62.5985V69.3818C16.3046 69.7572 16.0043 70.0701 15.6289 70.0701Z" fill="#BDE1E1"/>
<path d="M16.0166 68.1425L15.9666 67.7795L15.9165 67.4166C15.904 67.329 15.854 67.2539 15.7914 67.1913C15.7289 67.1413 15.6413 67.1162 15.5412 67.1287C15.5287 67.1287 15.5162 67.1287 15.5162 67.1287C15.5537 67.0787 15.5662 67.0286 15.5787 66.966C15.6413 67.1162 15.8039 67.2038 15.9666 67.1663C16.1418 67.1287 16.2544 66.941 16.2168 66.7658L16.1293 66.4154L16.0417 66.0649C16.0166 65.9773 15.9666 65.9023 15.8915 65.8522C15.8165 65.8021 15.7289 65.7896 15.6413 65.8146C15.4661 65.8522 15.3535 66.0399 15.391 66.2151L15.5162 66.7408C15.4911 66.7157 15.4786 66.6907 15.4411 66.6657C15.3785 66.6156 15.316 66.6031 15.2534 66.6031C15.2909 66.5656 15.3034 66.5155 15.316 66.4529C15.3285 66.3903 15.316 66.3152 15.2909 66.2527C15.3285 66.1275 15.2909 65.9899 15.1783 65.9022L14.6278 65.4392C14.4901 65.3265 14.2774 65.3391 14.1523 65.4892C14.0397 65.6144 14.0522 65.8146 14.1648 65.9273C14.1398 65.9273 14.1023 65.9273 14.0772 65.9398L13.7269 66.0399L13.3766 66.14C13.2514 66.1776 13.1638 66.2652 13.1388 66.3778L13.1013 66.2902L12.9636 65.9523C12.8886 65.7771 12.7009 65.702 12.5257 65.7771C12.3505 65.8522 12.2755 66.0399 12.3505 66.2151L12.4882 66.553L12.5758 66.7658C12.4632 66.8159 12.3756 66.9285 12.3631 67.0536L12.3505 67.4166L12.338 67.7795C12.338 67.8671 12.3631 67.9547 12.4256 68.0173C12.4882 68.0799 12.5632 68.1174 12.6508 68.13C12.6884 68.13 12.7259 68.13 12.7634 68.1174C12.7259 68.1925 12.7134 68.2676 12.7384 68.3427C12.6759 68.3803 12.6258 68.4303 12.6008 68.5054L12.4632 68.8433L12.3255 69.1812C12.288 69.2688 12.288 69.3564 12.3255 69.4315C12.3631 69.5066 12.4256 69.5817 12.5007 69.6068C12.6383 69.6568 12.776 69.6193 12.8761 69.5191C12.9011 69.5692 12.9386 69.6193 12.9762 69.6568C13.1263 69.7695 13.339 69.7444 13.4391 69.5942L13.6518 69.3064L13.877 69.0185C13.9021 68.981 13.9271 68.9309 13.9396 68.8934C14.0147 68.9059 14.0898 68.8809 14.1648 68.8308L14.2274 68.7933L14.1523 68.8934L13.9396 69.1812C13.827 69.3314 13.852 69.5442 14.0022 69.6443C14.1523 69.7569 14.365 69.7319 14.4651 69.5817L14.6778 69.2939L14.9031 69.006C14.9031 69.006 14.9031 68.9935 14.9156 68.9935C14.9281 69.0185 14.9531 69.0436 14.9781 69.0686L14.9031 69.1687C14.7904 69.3189 14.8155 69.5317 14.9656 69.6318C15.1158 69.7444 15.3285 69.7194 15.4286 69.5692L15.8665 68.9935C15.9166 68.9184 15.9416 68.8308 15.9291 68.7432C15.9166 68.6556 15.879 68.5805 15.8039 68.5179C15.7789 68.4929 15.7539 68.4804 15.7289 68.4679H15.7414C15.904 68.4929 16.0417 68.3302 16.0166 68.1425ZM13.0012 67.8296V67.7044C13.0262 67.742 13.0512 67.767 13.0888 67.8046C13.1013 67.8171 13.1138 67.8171 13.1263 67.8296L12.9762 67.9297C12.9887 67.8922 13.0012 67.8671 13.0012 67.8296ZM15.2534 67.5167L15.316 67.9923C15.2909 67.9297 15.2409 67.8922 15.1908 67.8546C15.1283 67.8171 15.0532 67.792 14.9656 67.8046C15.0032 67.7795 15.0282 67.7545 15.0532 67.717L15.2409 67.4667C15.2534 67.5042 15.2534 67.5042 15.2534 67.5167ZM14.4901 66.2276L14.5777 66.3027L14.4901 66.3653C14.5027 66.3153 14.5027 66.2652 14.4901 66.2276ZM14.5652 67.2789C14.5527 67.2289 14.5402 67.1788 14.5027 67.1413C14.5277 67.1287 14.5527 67.1162 14.5777 67.1037L14.8405 66.916L14.5652 67.2789ZM14.7904 67.9047C14.7154 67.8421 14.6278 67.8171 14.5402 67.8296L14.5527 67.742C14.5652 67.767 14.5902 67.7795 14.6028 67.7921C14.6778 67.8546 14.7654 67.8671 14.853 67.8546C14.828 67.8797 14.803 67.8922 14.7904 67.9047ZM14.1148 66.6406C14.0397 66.7533 14.0397 66.9035 14.1148 67.0161C14.0898 67.0286 14.0647 67.0411 14.0522 67.0536C14.0647 67.0036 14.0772 66.9535 14.0647 66.9035C14.0522 66.8159 14.0147 66.7408 13.9396 66.6782L14.1148 66.6406ZM13.7769 67.4541L13.9021 67.2914C13.9021 67.304 13.9021 67.3165 13.9021 67.329L13.877 67.6419C13.827 67.6043 13.7644 67.5668 13.7019 67.5543L13.7769 67.4541ZM13.1764 68.8558L13.2139 68.7682C13.2389 68.7057 13.2514 68.6306 13.2264 68.568C13.2389 68.568 13.2389 68.5555 13.2514 68.5555L13.8395 68.1425C13.8395 68.1425 13.852 68.1425 13.852 68.13C13.8645 68.1675 13.877 68.1925 13.8896 68.2176L13.7895 68.2927C13.7144 68.3427 13.6768 68.4178 13.6518 68.4929C13.5392 68.4804 13.4266 68.5304 13.3515 68.6181L13.1764 68.8558ZM14.7529 68.4554L14.7654 68.5304C14.7404 68.5179 14.7029 68.5054 14.6778 68.5054L14.7529 68.4554ZM15.4536 68.5304L15.4286 68.4178V68.3928C15.4661 68.4428 15.5162 68.4679 15.5662 68.4929C15.5287 68.5054 15.4911 68.5179 15.4536 68.5304ZM13.4266 66.8033L13.2389 67.0411L13.0262 67.329L13.0387 67.1037V67.0912C13.0512 67.0912 13.0637 67.0787 13.0637 67.0787C13.2014 67.0161 13.2765 66.8784 13.2639 66.7408C13.314 66.7783 13.3766 66.8033 13.4266 66.8033Z" fill="#ABDDDA"/>
<path opacity="0.5" d="M13.7896 70.0701H12.8137C12.4383 70.0701 12.1255 69.7572 12.1255 69.3818V62.5985C12.1255 62.223 12.4383 61.9102 12.8137 61.9102H13.677C13.7521 62.0353 13.7896 62.173 13.7896 62.3357V69.995C13.7896 70.02 13.7896 70.0451 13.7896 70.0701Z" fill="#ABDDDA"/>
<path d="M16.266 62.2339H13.6634H12.187C12.1119 62.2339 12.0493 62.1714 12.0493 62.0963V61.458C12.0493 61.3829 12.1119 61.3203 12.187 61.3203H13.6634H16.266C16.341 61.3203 16.4036 61.3829 16.4036 61.458V62.0963C16.4036 62.1714 16.341 62.2339 16.266 62.2339Z" fill="#00A9B8"/>
<path d="M13.6634 62.2339H12.187C12.1119 62.2339 12.0493 62.1714 12.0493 62.0963V61.458C12.0493 61.3829 12.1119 61.3203 12.187 61.3203H13.6634C13.7385 61.3203 13.801 61.3829 13.801 61.458V62.0963C13.7885 62.1714 13.7385 62.2339 13.6634 62.2339Z" fill="#00A9B8"/>
<path d="M87.0984 70.0928H2.16479V71.9575H87.0984V70.0928Z" fill="#C1C1C1"/>
<path d="M28.5176 62.9844H19.6714V70.0931H28.5176V62.9844Z" fill="#6ED0D9"/>
<path d="M24.4747 64.2109H19.6699V65.2247H24.4747V64.2109Z" fill="white"/>
<path d="M45.1574 62.9844H32.2322V70.0805H45.1574V62.9844Z" fill="#00A9B8"/>
<path d="M39.2639 64.2109H32.2319V65.2247H39.2639V64.2109Z" fill="white"/>
<path d="M57.8081 66.7656H48.9744V70.0822H57.8081V66.7656Z" fill="#00A9B8"/>
<path d="M53.7788 67.3408H48.9741V67.8164H53.7788V67.3408Z" fill="white"/>
<path d="M69.9934 66.7656H61.1597V70.0822H69.9934V66.7656Z" fill="#00A9B8"/>
<path d="M65.9642 67.3408H61.1594V67.8164H65.9642V67.3408Z" fill="white"/>
<path d="M78.6149 70.0941H76.6254C76.0499 70.0941 75.5869 69.631 75.5869 69.0553V64.2995C75.5869 63.7238 76.0499 63.2607 76.6254 63.2607H78.6149C79.1905 63.2607 79.6534 63.7238 79.6534 64.2995V69.0553C79.6409 69.631 79.178 70.0941 78.6149 70.0941Z" fill="#EBF3FA"/>
<path d="M78.3388 62.6729H76.7122V63.2611H78.3388V62.6729Z" fill="#00A9B8"/>
<path d="M79.6409 65.5264H75.5869V67.3411H79.6409V65.5264Z" fill="white"/>
<path d="M83.6949 70.0921H82.5062C82.1559 70.0921 81.8806 69.8168 81.8806 69.4664V66.6004C81.8806 66.2499 82.1559 65.9746 82.5062 65.9746H83.6949C84.0453 65.9746 84.3205 66.2499 84.3205 66.6004V69.4664C84.3205 69.8043 84.0453 70.0921 83.6949 70.0921Z" fill="#EBF3FA"/>
<path d="M83.5319 65.625H82.5559V65.9754H83.5319V65.625Z" fill="#00A9B8"/>
<path d="M84.3205 67.3379H81.8806V68.4267H84.3205V67.3379Z" fill="white"/>
<path d="M12.9253 70.1309H7.28223V73.2847H12.9253V70.1309Z" fill="white"/>
<path d="M29.4035 70.1309H23.7605V73.2847H29.4035V70.1309Z" fill="white"/>
<path d="M41.5159 70.1309H35.8728V73.2847H41.5159V70.1309Z" fill="white"/>
<path d="M59.5588 70.1309H53.9158V73.2847H59.5588V70.1309Z" fill="white"/>
<path d="M82.4685 70.1309H76.8254V73.2847H82.4685V70.1309Z" fill="white"/>
<path d="M87.0984 95.8525H2.16479V97.7173H87.0984V95.8525Z" fill="#C1C1C1"/>
<path d="M17.1179 90.1416H6.73267V95.8485H17.1179V90.1416Z" fill="#ABDDDA"/>
<path d="M12.3755 91.1299H6.73242V91.9433H12.3755V91.1299Z" fill="white"/>
<path d="M15.1154 88.9911V90.1425H7.03247L7.40784 87.627L10.7611 88.2152L15.1154 88.9911Z" fill="white"/>
<path d="M15.1167 88.9908V90.1422H10.7625V88.2148L15.1167 88.9908Z" fill="#EBF3FA"/>
<path d="M7.89582 87.7146L7.52045 90.1425H7.03247L7.40784 87.627L7.89582 87.7146Z" fill="#E6F1FF"/>
<path d="M14.3279 88.8516L15.4165 88.9517V90.1406H14.3279V88.8516Z" fill="#00A9B8"/>
<path d="M32.2312 90.1426H21.8459V95.8495H32.2312V90.1426Z" fill="#ABDDDA"/>
<path d="M27.4875 91.1309H21.8445V91.9443H27.4875V91.1309Z" fill="white"/>
<path d="M30.9289 88.9911V90.1425H22.8459L23.2213 87.627L26.5746 88.2152L30.9289 88.9911Z" fill="white"/>
<path d="M30.9302 88.9908V90.1422H26.5759V88.2148L30.9302 88.9908Z" fill="#EBF3FA"/>
<path d="M23.7093 87.7146L23.3339 90.1425H22.8459L23.2213 87.627L23.7093 87.7146Z" fill="#E6F1FF"/>
<path d="M30.1406 88.8516L31.2292 88.9517V90.1406H30.1406V88.8516Z" fill="#00A9B8"/>
<path d="M34.0459 95.8379H28.4028V98.9917H34.0459V95.8379Z" fill="white"/>
<path d="M50.2749 45.126H44.6318V48.2798H50.2749V45.126Z" fill="white"/>
<path d="M200.985 44.5742H195.342V47.7281H200.985V44.5742Z" fill="white"/>
<path d="M200.985 69.7939H195.342V72.9478H200.985V69.7939Z" fill="white"/>
<path d="M181.641 69.7939H175.998V72.9478H181.641V69.7939Z" fill="white"/>
<path d="M180.678 44.5742H175.035V47.7281H180.678V44.5742Z" fill="white"/>
<path d="M66.8025 45.126H61.1594V48.2798H66.8025V45.126Z" fill="white"/>
<path d="M81.7182 45.126H76.0752V48.2798H81.7182V45.126Z" fill="white"/>
<path d="M61.9368 84.2987H38.3761L35.1479 66.3643H58.7086L61.9368 84.2987Z" fill="#8A7E7C"/>
<path d="M61.5608 84.3006H38.0002L34.772 66.3662H58.3327L61.5608 84.3006Z" fill="#B2A19F"/>
<path d="M49.3988 88.8033H43.981L45.1571 76.9639H50.5875L49.3988 88.8033Z" fill="#8A7E7C"/>
<path d="M52.0398 88.4648H44.3948V88.8028H52.0398V88.4648Z" fill="#8A7E7C"/>
<path d="M205.09 86.4163V92.0857H199.372V86.3913C199.372 86.3412 199.372 86.2786 199.384 86.2286C199.447 85.5778 199.86 85.0271 200.435 84.7893C200.848 84.6141 201.136 84.2387 201.161 83.7881L201.198 82.9746H203.3L203.313 83.7881C203.325 84.2387 203.601 84.6141 204.014 84.7893C204.589 85.0396 205.015 85.5778 205.077 86.2286C205.09 86.2912 205.09 86.3537 205.09 86.4163Z" fill="#ABDDDA"/>
<path d="M203.45 83.3354H200.998L201.06 82.6846H203.388L203.45 83.3354Z" fill="#00A9B8"/>
<path d="M205.089 86.4133V90.0678H199.371V86.3883C199.371 86.3382 199.371 86.2756 199.383 86.2256H205.089C205.089 86.2882 205.089 86.3507 205.089 86.4133Z" fill="white"/>
<path d="M209.006 38.9044V44.5738H203.288V38.8794C203.288 38.8293 203.288 38.7667 203.3 38.7167C203.363 38.0659 203.776 37.5152 204.351 37.2774C204.764 37.1022 205.052 36.7268 205.077 36.2762L205.114 35.4502H207.216L207.229 36.2637C207.241 36.7142 207.517 37.0897 207.93 37.2649C208.505 37.5152 208.931 38.0534 208.993 38.7042C209.006 38.7793 209.006 38.8418 209.006 38.9044Z" fill="#ABDDDA"/>
<path d="M207.367 35.8268H204.915L204.977 35.1885H207.304L207.367 35.8268Z" fill="#00A9B8"/>
<path d="M209.006 38.9055V42.56H203.288V38.8805C203.288 38.8304 203.288 38.7678 203.3 38.7178H209.006C209.006 38.7803 209.006 38.8429 209.006 38.9055Z" fill="white"/>
<path d="M198.431 38.9044V44.5738H192.713V38.8794C192.713 38.8293 192.713 38.7667 192.726 38.7167C192.788 38.0659 193.201 37.5152 193.777 37.2774C194.19 37.1022 194.477 36.7268 194.502 36.2762L194.54 35.4502H196.642L196.655 36.2637C196.667 36.7142 196.942 37.0897 197.355 37.2649C197.931 37.5152 198.356 38.0534 198.419 38.7042C198.431 38.7793 198.431 38.8418 198.431 38.9044Z" fill="#ABDDDA"/>
<path d="M196.791 35.8268H194.352L194.414 35.1885H196.729L196.791 35.8268Z" fill="#00A9B8"/>
<path d="M198.431 38.9065V42.5609H192.713V38.8814C192.713 38.8314 192.713 38.7688 192.726 38.7188H198.431C198.431 38.7813 198.431 38.8439 198.431 38.9065Z" fill="white"/>
<path d="M188.123 38.9044V44.5738H182.405V38.8794C182.405 38.8293 182.405 38.7667 182.417 38.7167C182.48 38.0659 182.893 37.5152 183.468 37.2774C183.881 37.1022 184.169 36.7268 184.194 36.2762L184.232 35.4502H186.334L186.346 36.2637C186.359 36.7142 186.634 37.0897 187.047 37.2649C187.622 37.5152 188.048 38.0534 188.11 38.7042C188.11 38.7793 188.123 38.8418 188.123 38.9044Z" fill="#ABDDDA"/>
<path d="M186.472 35.8268H184.032L184.094 35.1885H186.409L186.472 35.8268Z" fill="#00A9B8"/>
<path d="M188.123 38.9065V42.5609H182.405V38.8814C182.405 38.8314 182.405 38.7688 182.417 38.7188H188.123C188.11 38.7813 188.123 38.8439 188.123 38.9065Z" fill="white"/>
<path d="M178.588 38.9044V44.5738H172.87V38.8794C172.87 38.8293 172.87 38.7667 172.882 38.7167C172.945 38.0659 173.358 37.5152 173.933 37.2774C174.346 37.1022 174.634 36.7268 174.659 36.2762L174.696 35.4502H176.799L176.811 36.2637C176.824 36.7142 177.099 37.0897 177.512 37.2649C178.087 37.5152 178.513 38.0534 178.575 38.7042C178.588 38.7793 178.588 38.8418 178.588 38.9044Z" fill="#ABDDDA"/>
<path d="M176.949 35.8268H174.497L174.559 35.1885H176.886L176.949 35.8268Z" fill="#00A9B8"/>
<path d="M178.588 38.9055V42.56H172.87V38.8805C172.87 38.8304 172.87 38.7678 172.882 38.7178H178.588C178.588 38.7803 178.588 38.8429 178.588 38.9055Z" fill="white"/>
<path d="M169.592 40.2946V44.5873H165.263V40.2821C165.263 40.2445 165.263 40.1945 165.275 40.1569C165.325 39.6688 165.638 39.2558 166.076 39.0681C166.389 38.9304 166.602 38.6551 166.627 38.3172L166.664 37.6914H168.253L168.266 38.3047C168.278 38.6426 168.491 38.9304 168.791 39.0556C169.229 39.2433 169.542 39.6563 169.592 40.1444C169.592 40.1945 169.592 40.2445 169.592 40.2946Z" fill="#ABDDDA"/>
<path d="M168.353 37.9551H166.501L166.551 37.4795H168.303L168.353 37.9551Z" fill="#00A9B8"/>
<path d="M169.591 40.2949V43.0608H165.262V40.2824C165.262 40.2448 165.262 40.1948 165.274 40.1572H169.591C169.591 40.1948 169.591 40.2448 169.591 40.2949Z" fill="white"/>
<path d="M160.244 40.2946V44.5873H155.915V40.2821C155.915 40.2445 155.915 40.1945 155.928 40.1569C155.978 39.6688 156.29 39.2558 156.728 39.0681C157.041 38.9304 157.254 38.6551 157.279 38.3172L157.316 37.6914H158.905L158.918 38.3047C158.931 38.6426 159.143 38.9304 159.444 39.0556C159.881 39.2433 160.194 39.6563 160.244 40.1444C160.244 40.1945 160.244 40.2445 160.244 40.2946Z" fill="#ABDDDA"/>
<path d="M159.006 37.9551H157.154L157.204 37.4795H158.956L159.006 37.9551Z" fill="#00A9B8"/>
<path d="M160.244 40.2949V43.0608H155.915V40.2824C155.915 40.2448 155.915 40.1948 155.928 40.1572H160.244C160.244 40.1948 160.244 40.2448 160.244 40.2949Z" fill="white"/>
<path d="M149.537 40.2946V44.5873H145.208V40.2821C145.208 40.2445 145.208 40.1945 145.22 40.1569C145.27 39.6688 145.583 39.2558 146.021 39.0681C146.334 38.9304 146.546 38.6551 146.571 38.3172L146.609 37.6914H148.198L148.21 38.3047C148.223 38.6426 148.436 38.9304 148.736 39.0556C149.174 39.2433 149.487 39.6563 149.537 40.1444C149.524 40.1945 149.537 40.2445 149.537 40.2946Z" fill="#ABDDDA"/>
<path d="M148.284 37.9551H146.432L146.482 37.4795H148.234L148.284 37.9551Z" fill="#00A9B8"/>
<path d="M149.535 40.2949V43.0608H145.206V40.2824C145.206 40.2448 145.206 40.1948 145.219 40.1572H149.535C149.523 40.1948 149.535 40.2448 149.535 40.2949Z" fill="white"/>
<path d="M138.049 40.2946V44.5873H133.719V40.2821C133.719 40.2445 133.719 40.1945 133.732 40.1569C133.782 39.6688 134.095 39.2558 134.533 39.0681C134.845 38.9304 135.058 38.6551 135.083 38.3172L135.121 37.6914H136.71L136.722 38.3047C136.735 38.6426 136.947 38.9304 137.248 39.0556C137.686 39.2433 137.998 39.6563 138.049 40.1444C138.049 40.1945 138.049 40.2445 138.049 40.2946Z" fill="#ABDDDA"/>
<path d="M136.81 37.9551H134.958L135.009 37.4795H136.76L136.81 37.9551Z" fill="#00A9B8"/>
<path d="M138.049 40.2949V43.0608H133.719V40.2824C133.719 40.2448 133.719 40.1948 133.732 40.1572H138.049C138.049 40.1948 138.049 40.2448 138.049 40.2949Z" fill="white"/>
<path d="M197.519 81.0938H191.263V92.0697H197.519V81.0938Z" fill="#72BFBB"/>
<path d="M194.167 86.2246H192.177V92.0693H194.167V86.2246Z" fill="white"/>
<path d="M184.495 86.4163V92.0857H178.777V86.3913C178.777 86.3412 178.777 86.2786 178.789 86.2286C178.852 85.5778 179.265 85.0271 179.84 84.7893C180.253 84.6141 180.541 84.2387 180.566 83.7881L180.603 82.9746H182.705L182.718 83.7881C182.731 84.2387 183.006 84.6141 183.419 84.7893C183.994 85.0396 184.42 85.5778 184.482 86.2286C184.495 86.2912 184.495 86.3537 184.495 86.4163Z" fill="#ABDDDA"/>
<path d="M182.856 83.3354H180.404L180.479 82.6846H182.793L182.856 83.3354Z" fill="#00A9B8"/>
<path d="M184.495 86.4123V90.0668H178.777V86.3873C178.777 86.3372 178.777 86.2747 178.789 86.2246H184.495C184.495 86.2872 184.495 86.3498 184.495 86.4123Z" fill="white"/>
<path d="M177.25 81.0938H170.993V92.0697H177.25V81.0938Z" fill="#72BFBB"/>
<path d="M206.103 116.301H202.299C201.198 116.301 200.309 115.412 200.309 114.311V105.2C200.309 104.099 201.198 103.21 202.299 103.21H206.103C207.204 103.21 208.092 104.099 208.092 105.2V114.311C208.079 115.412 207.191 116.301 206.103 116.301Z" fill="#CEF4F2"/>
<path d="M205.564 102.096H202.448V103.222H205.564V102.096Z" fill="#00A9B8"/>
<path d="M208.092 107.564H200.309V111.056H208.092V107.564Z" fill="white"/>
<path d="M194.066 116.299H191.726C191.051 116.299 190.5 115.748 190.5 115.073V109.466C190.5 108.79 191.051 108.239 191.726 108.239H194.066C194.742 108.239 195.292 108.79 195.292 109.466V115.073C195.28 115.761 194.742 116.299 194.066 116.299Z" fill="#CEF4F2"/>
<path d="M193.742 107.562H191.827V108.251H193.742V107.562Z" fill="#00A9B8"/>
<path d="M195.28 110.93H190.5V113.07H195.28V110.93Z" fill="white"/>
<path d="M185.27 116.298H183.693C183.243 116.298 182.867 115.922 182.867 115.472V111.68C182.867 111.229 183.243 110.854 183.693 110.854H185.27C185.72 110.854 186.095 111.229 186.095 111.68V115.472C186.095 115.935 185.733 116.298 185.27 116.298Z" fill="#CEF4F2"/>
<path d="M185.045 110.392H183.756V110.855H185.045V110.392Z" fill="#00A9B8"/>
<path d="M186.095 112.67H182.867V114.122H186.095V112.67Z" fill="white"/>
<path d="M177.812 116.299H175.472C174.796 116.299 174.246 115.748 174.246 115.073V109.466C174.246 108.79 174.796 108.239 175.472 108.239H177.812C178.487 108.239 179.038 108.79 179.038 109.466V115.073C179.038 115.761 178.487 116.299 177.812 116.299Z" fill="#CEF4F2"/>
<path d="M177.486 107.562H175.572V108.251H177.486V107.562Z" fill="#00A9B8"/>
<path d="M179.025 110.93H174.246V113.07H179.025V110.93Z" fill="white"/>
<path d="M169.017 116.298H167.44C166.99 116.298 166.614 115.922 166.614 115.472V111.68C166.614 111.229 166.99 110.854 167.44 110.854H169.017C169.467 110.854 169.842 111.229 169.842 111.68V115.472C169.842 115.935 169.48 116.298 169.017 116.298Z" fill="#EBF3FA"/>
<path d="M168.792 110.392H167.503V110.855H168.792V110.392Z" fill="#FFA561"/>
<path d="M169.842 112.67H166.614V114.122H169.842V112.67Z" fill="white"/>
<path d="M86.5854 23.8369H2.16479V25.9645H86.5854V23.8369Z" fill="white"/>
<path d="M2.16463 23.8369H0V160.066H2.16463V23.8369Z" fill="white"/>
<path d="M88.1744 23.8369H86.0098V160.066H88.1744V23.8369Z" fill="white"/>
<path d="M214.399 23.8369H129.979V25.9645H214.399V23.8369Z" fill="white"/>
<path d="M129.978 23.8369H127.813V160.066H129.978V23.8369Z" fill="white"/>
<path d="M216 23.8369H213.835V160.066H216V23.8369Z" fill="white"/>
<path d="M94.2051 153.58H100.586C100.536 153.243 100.374 152.229 100.073 151.29C99.9732 150.965 99.8481 150.652 99.7105 150.377C99.0849 149.138 95.1435 149.926 95.1435 149.926C95.1435 149.926 94.7806 150.239 94.4929 151.44C94.3802 151.953 94.2676 152.654 94.2051 153.58Z" fill="#233862"/>
<path d="M105.93 56.0986C105.93 56.0986 111.01 56.9872 112.162 59.9909C113.313 62.9946 119.807 111.479 119.807 111.479C119.807 111.479 116.591 114.032 109.684 113.118C102.777 112.192 105.93 56.0986 105.93 56.0986Z" fill="#ABDDDA"/>
<path d="M113.487 151.566C113.499 152.43 113.612 153.256 113.925 153.581H126.549C126.387 153.131 125.936 152.442 124.635 152.23C123.159 151.992 120.869 151.278 119.53 149.864C119.055 149.364 118.692 148.763 118.542 148.075C117.953 145.434 113.637 148.888 113.637 148.888C113.637 148.888 113.462 150.277 113.487 151.566Z" fill="#233862"/>
<path d="M118.93 150.277C117.516 150.727 114.826 152.104 113.111 151.453C112.01 151.04 105.817 133.143 105.416 125.309C105.391 124.745 105.279 123.944 105.104 122.981C104.741 120.966 104.103 118.187 103.364 115.121C101.375 106.911 98.6973 96.6487 98.7599 93.3572C98.8475 88.2634 113.937 92.2934 113.937 92.2934C113.937 92.2934 114.976 96.4735 115.176 102.518C115.589 114.533 116.715 134.808 119.781 148.9C119.906 149.501 119.518 150.089 118.93 150.277Z" fill="#233862"/>
<path d="M108.457 93.3842L100.486 151.205C100.486 151.205 96.983 152.056 94.2553 151.38C94.2553 151.38 91.9155 120.63 92.1157 113.196C92.3159 105.762 90.4391 93.2965 92.5411 91.9324C94.6432 90.5432 108.457 93.3842 108.457 93.3842Z" fill="#2B478B"/>
<path d="M91.5284 58.7413C91.5284 58.7413 99.9116 53.3222 105.918 56.0881C106.881 56.5261 107.97 57.7651 108.745 58.6287C110.922 61.0191 115.164 99.0781 115.164 99.0781C115.164 99.0781 103.115 103.158 91.5159 97.6889V58.7413H91.5284Z" fill="white"/>
<path d="M106.405 55.9629C106.405 55.9629 114.888 59.4421 116.04 62.1204C117.191 64.7987 122.996 88.8656 122.996 90.7929C122.996 92.7203 117.941 97.038 116.903 93.9343C116.04 91.3561 109.583 69.955 108.032 64.9489L106.405 55.9629Z" fill="#ABDDDA"/>
<path d="M104.64 58.6165C102.788 58.9794 100.061 58.5914 98.0713 57.2773C98.9722 55.1247 99.335 53.4352 99.4727 52.3338C99.4852 52.2712 99.4852 52.2212 99.4977 52.1586C99.5603 51.5954 99.5477 51.2074 99.5227 51.0322H104.315C104.315 51.0322 105.629 51.633 105.629 52.046C105.629 52.2712 105.629 52.484 105.629 52.6842C105.641 53.2349 105.666 53.7105 105.691 54.1235C105.779 55.4626 105.942 56.1009 105.942 56.1009C105.942 56.1009 106.505 58.241 104.64 58.6165Z" fill="#FFB27D"/>
<path d="M105.679 54.1244C102.05 54.8253 99.9484 52.8479 99.4729 52.3348C99.4103 52.2597 99.3728 52.2221 99.3728 52.2221C99.4103 52.1971 99.4479 52.1846 99.4979 52.1721C100.849 51.6214 103.915 52.0594 105.629 52.6852C105.629 53.2233 105.654 53.7114 105.679 54.1244Z" fill="#E2915A"/>
<path d="M98.2839 50.2432C98.9346 53.7349 103.439 53.6223 105.378 53.397C105.929 53.3344 106.267 53.2719 106.267 53.2719C106.88 53.1092 107.23 52.133 107.393 50.8564C107.706 48.3409 107.305 44.6363 106.88 43.6852C106.242 42.2584 105.028 40.719 100.499 41.8329C95.9691 42.9468 97.4581 45.7627 98.2839 50.2432Z" fill="#FFB27D"/>
<path d="M107.055 41.7328C106.43 40.8692 105.116 39.8305 103.927 39.1797C101.362 37.7905 98.0842 39.2172 98.0717 39.2297C94.368 40.8567 93.4046 43.6977 95.369 48.1031C97.446 52.7713 99.423 52.2456 99.423 52.2456C99.423 52.2456 98.9976 51.9828 99.0351 50.531C99.0351 50.4434 99.0351 50.3808 99.0476 50.3183C99.0726 50.0179 98.96 49.7175 98.7348 49.5173C98.2719 49.1043 98.0466 47.8653 98.4345 47.5148C98.8975 47.1018 99.5481 47.6024 99.7608 47.9904C99.9485 48.2658 100.274 48.3659 100.574 48.1656C101.725 47.4397 100.975 45.9755 102.076 45.0869C103.177 44.1983 105.416 44.9492 107.068 44.2358C109.233 43.4474 107.531 42.3836 107.055 41.7328Z" fill="#010101"/>
<path d="M107.568 115.048C106.843 115.236 106.117 115.386 105.404 115.511C104.766 115.624 104.14 115.699 103.502 115.749C99.9108 116.062 96.3073 115.561 92.1031 114.347C91.1522 114.072 90.1762 113.772 89.1627 113.421C89.0501 113.384 89.438 102.245 89.8885 90.7562C89.9385 89.5672 89.976 88.3783 90.0261 87.1893C90.0511 86.6887 90.0636 86.1881 90.0887 85.6875C90.4891 75.5251 90.8894 66.3514 90.977 65.8508C91.1647 64.7369 91.3524 63.7732 91.5401 62.9597C92.1156 60.5568 92.8289 59.2302 94.3804 58.0913C94.5305 57.9786 95.7693 57.3529 96.8703 56.8022C97.7837 56.3517 98.5845 55.9512 98.5845 55.9512C98.9474 56.1264 99.3853 56.9524 99.8358 58.1163C100.674 60.2564 101.575 63.5354 102.201 65.9884V66.0009C102.601 67.5779 102.889 68.8169 102.976 69.1673C103.114 69.768 103.302 70.9194 103.514 72.4839C103.815 74.6115 104.165 77.5025 104.54 80.794C104.578 81.1319 104.615 81.4698 104.653 81.8203C104.691 82.2082 104.741 82.6087 104.791 83.0092C104.803 83.1344 104.816 83.272 104.828 83.3972C104.953 84.7238 107.631 114.372 107.568 115.048Z" fill="#ABDDDA"/>
<path d="M104.778 83.0433C102.363 82.9432 90.6765 82.405 90.4638 82.0671C90.2261 81.6791 95.206 69.9648 95.206 69.9648C95.206 69.9899 94.23 79.4389 101.95 80.6904C102.751 80.8156 101.825 81.8418 102.376 81.9545C102.413 82.3424 104.728 82.6303 104.778 83.0433Z" fill="#91CECF"/>
<path d="M104.103 85.2087C104.103 85.2087 101.475 86.7356 101.463 86.7356C100.287 87.4865 96.608 88.9758 91.528 90.3525C90.99 90.5027 90.4394 90.6278 89.8764 90.7655C89.9264 89.5765 89.964 88.3876 90.014 87.2112C89.3383 87.1611 88.7002 87.0735 88.0996 86.9483C88.1246 86.7981 88.1371 86.6355 88.1622 86.4853C88.8128 86.2224 89.4509 85.9596 90.0766 85.7218C90.5771 85.5216 91.065 85.3339 91.528 85.1587C93.6175 84.3702 95.1691 83.832 95.1691 83.832L101.35 85.7844L104.103 85.2087Z" fill="#91CECF"/>
<path d="M105.754 54.9863C106.242 55.1741 107.156 56.1127 107.368 56.6383L108.019 64.936C108.019 64.936 106.63 58.841 105.917 56.0877C105.742 55.3993 105.779 55.1866 105.754 54.9863Z" fill="#91CECF"/>
<path d="M104.467 51.2053C104.467 51.2053 104.942 51.8185 105.58 51.7434C106.218 51.6683 106.694 51.4681 106.769 51.1802C106.844 50.8924 106.894 50.6796 106.894 50.6796C106.894 50.6796 106.018 50.4794 104.467 51.2053Z" fill="white"/>
<path d="M102.927 81.782C102.927 81.782 104.466 81.0561 104.878 80.8684C105.291 80.6807 106.743 80.3428 106.743 80.3428L106.68 81.1312L105.241 82.1199L103.039 83.2588L102.927 81.782Z" fill="#FFB27D"/>
<path d="M114.544 76.8559L105.432 78.9922L107.148 86.3153L116.26 84.179L114.544 76.8559Z" fill="#00A9B8"/>
<path d="M110.68 79.0974L105.722 80.2598L105.968 81.3077L110.926 80.1453L110.68 79.0974Z" fill="white"/>
<path d="M103.953 84.384C103.953 84.384 106.292 84.4591 107.594 84.3214C108.907 84.1962 110.421 82.8946 110.509 82.5693C110.597 82.2439 110.396 81.6682 108.895 81.5805C107.619 81.518 106.08 81.5805 106.08 81.5805L102.964 82.2939L103.953 84.384Z" fill="#FFB27D"/>
<path d="M104.103 85.2095C104.103 85.2095 102.564 85.9229 101.3 86.1732H101.287C98.9601 86.6362 95.0312 87.2995 91.5403 87.262C91.0273 87.262 90.5143 87.237 90.0263 87.1994C89.3507 87.1494 88.7125 87.0618 88.1119 86.9366C86.8357 86.6613 85.7596 86.2107 85.0589 85.4974C79.8538 80.1909 87.8992 61.1426 89.5884 59.2904C91.5653 57.1252 95.1689 56.3743 97.1583 56.1115C97.2459 56.099 97.321 56.0864 97.3961 56.0864C98.0968 55.9988 98.5472 55.9863 98.5722 55.9863C98.5722 55.9863 98.4221 56.4869 98.1593 57.338C98.0592 57.6634 97.9341 58.0513 97.809 58.4769C96.5828 62.4818 94.2305 70.3539 93.1794 74.7968C92.8041 76.4238 92.5913 77.5877 92.6914 77.9381C93.0918 79.4525 97.3085 80.2284 99.9736 80.5788C101.087 80.7165 101.763 80.679 101.951 80.704C103.565 80.4412 104.103 85.2095 104.103 85.2095Z" fill="#ABDDDA"/>
<path d="M98.9355 54.8486C98.9355 54.8486 97.2839 55.1365 96.5457 56.1878C96.5457 56.1878 102.214 66.1124 102.189 66.0248C102.164 65.9372 100.337 56.0751 98.9355 54.8486Z" fill="#91CECF"/>
<path d="M169.816 92.6201H36.022V160.065H169.816V92.6201Z" fill="#DADADA"/>
<path d="M174.121 88.8027H31.718V94.3219H174.121V88.8027Z" fill="white"/>
<path d="M67.428 107.291H69.943C71.4319 107.291 72.3703 108.142 72.3703 109.444C72.3703 110.87 71.2192 111.621 69.8178 111.621H68.5541V113.674H67.428V107.291ZM69.8554 110.608C70.7062 110.608 71.2317 110.132 71.2317 109.444C71.2317 108.693 70.6937 108.305 69.8554 108.305H68.5541V110.608H69.8554Z" fill="#0F0F0F"/>
<path d="M73.5217 107.289H74.6478V109.942H77.7008V107.289H78.827V113.672H77.7008V110.981H74.6478V113.672H73.5217V107.289Z" fill="#0F0F0F"/>
<path d="M82.719 107.24H83.7575L86.5728 113.673H85.3841L84.7335 112.134H81.718L81.0674 113.673H79.9163L82.719 107.24ZM84.3206 111.132L83.2195 108.579L82.1309 111.132H84.3206Z" fill="#0F0F0F"/>
<path d="M87.6602 107.289H90.5005C92.002 107.289 92.8779 108.09 92.8779 109.329C92.8779 110.38 92.2522 111.006 91.3514 111.269L93.0781 113.684H91.7517L90.1627 111.457H88.7738V113.672H87.6477V107.289H87.6602ZM90.4254 110.455C91.2262 110.455 91.7392 110.03 91.7392 109.367C91.7392 108.678 91.2513 108.303 90.4129 108.303H88.7738V110.443H90.4254V110.455Z" fill="#0F0F0F"/>
<path d="M94.2546 107.289H95.4558L97.3952 110.305L99.3346 107.289H100.536V113.672H99.4097V109.091L97.3952 112.107H97.3577L95.3557 109.116V113.672H94.2546V107.289Z" fill="#0F0F0F"/>
<path d="M104.44 107.24H105.479L108.294 113.673H107.105L106.455 112.134H103.439L102.789 113.673H101.637L104.44 107.24ZM106.042 111.132L104.941 108.579L103.852 111.132H106.042Z" fill="#0F0F0F"/>
<path d="M108.707 110.482C108.707 108.667 110.07 107.178 111.997 107.178C113.173 107.178 113.887 107.591 114.5 108.166L113.774 108.992C113.261 108.517 112.71 108.204 111.985 108.204C110.759 108.204 109.883 109.205 109.883 110.482C109.883 111.733 110.771 112.76 111.985 112.76C112.773 112.76 113.274 112.434 113.824 111.934L114.55 112.659C113.887 113.348 113.148 113.786 111.96 113.786C110.095 113.786 108.707 112.334 108.707 110.482Z" fill="#0F0F0F"/>
<path d="M117.515 111.156L114.975 107.289H116.301L118.091 110.118L119.892 107.289H121.181L118.641 111.131V113.672H117.515V111.156Z" fill="#0F0F0F"/>
<path d="M169.816 137.236H36.022V148.125H169.816V137.236Z" fill="white"/>
<path d="M51.0368 118.915C48.7846 118.915 46.67 118.038 45.0684 116.449C43.4794 114.86 42.6035 112.732 42.6035 110.479C42.6035 108.226 43.4794 106.111 45.0684 104.509C46.6575 102.92 48.7846 102.044 51.0368 102.044C53.289 102.044 55.4036 102.92 57.0052 104.509C58.5942 106.099 59.4701 108.226 59.4701 110.479C59.4701 112.732 58.5942 114.847 57.0052 116.449C55.4036 118.038 53.289 118.915 51.0368 118.915ZM51.0368 102.82C48.9973 102.82 47.0704 103.621 45.619 105.06C44.1676 106.512 43.3793 108.427 43.3793 110.479C43.3793 112.519 44.1801 114.447 45.619 115.898C47.0704 117.35 48.9848 118.139 51.0368 118.139C53.0888 118.139 55.0032 117.338 56.4546 115.898C57.9061 114.447 58.6943 112.532 58.6943 110.479C58.6943 108.439 57.8936 106.512 56.4546 105.06C55.0032 103.608 53.0763 102.82 51.0368 102.82Z" fill="#00A9B8"/>
<path d="M56.4793 109.102H52.4128V105.022H49.6601V109.102H45.5811V111.856H49.6601V115.923H52.4128V111.856H56.4793V109.102Z" fill="#00A9B8"/>
<path d="M181.029 120.641V126.31H175.298V120.616C175.298 120.566 175.298 120.503 175.311 120.453C175.373 119.802 175.786 119.252 176.362 119.014C176.775 118.839 177.062 118.463 177.087 118.013L177.125 117.199H179.227L179.239 118.013C179.252 118.463 179.527 118.839 179.94 119.014C180.516 119.264 180.941 119.802 181.004 120.453C181.016 120.516 181.029 120.578 181.029 120.641Z" fill="#00A9B8"/>
<path d="M179.389 117.55H176.937L176.999 116.912H179.314L179.389 117.55Z" fill="#007A85"/>
<path d="M189.388 114.756L182.749 122.744L187.137 126.393L193.776 118.404L189.388 114.756Z" fill="#007A85"/>
<path d="M195.542 117.876L195.379 118.365L192.839 125.774L191.413 125.361L192.99 117.664L193.09 117.163L195.542 117.876Z" fill="#00A9B8"/>
<path d="M195.543 117.876L195.38 118.365L192.99 117.664L193.09 117.163L195.543 117.876Z" fill="#EBF3FA"/>
<path d="M193.06 125.095L191.558 124.659L191.199 125.897L192.702 126.333L193.06 125.095Z" fill="#AEC3FF"/>
<path d="M192.927 122.793L192.819 122.762L192.336 124.433L192.444 124.464L192.927 122.793Z" fill="#CDE0FB"/>
<path d="M181.216 102.633C181.216 102.633 183.593 104.21 183.956 104.873C184.319 105.536 184.206 106.963 184.206 106.963C184.206 106.963 181.841 108.014 182.129 106.775C182.404 105.586 181.353 106.049 180.69 105.474C180.027 104.898 179.251 103.209 179.251 103.209L181.216 102.633Z" fill="#FFB27D"/>
<path d="M157.455 51.1209C157.455 51.1209 163.311 44.0873 166.414 48.5928C166.414 48.5928 168.729 49.5565 169.567 53.4863C170.418 57.5037 167.753 60.5574 166.364 59.8065C165.476 59.3184 164.813 60.8703 164.813 60.8703L157.455 51.1209Z" fill="#040404"/>
<path d="M150.198 88.5538C145.543 86.8392 141.064 78.867 141.064 78.867L142.528 77.8407C143.754 79.6304 149.247 83.0596 149.247 83.0596C149.372 81.5578 149.56 80.1811 149.785 78.9421C151.312 70.5193 154.802 68.0287 155.741 67.5031C155.891 67.4155 155.979 67.3779 155.979 67.3779C155.979 67.3779 155.979 67.4405 155.966 67.5531C155.954 67.8035 155.929 68.3166 155.879 69.0174C155.516 74.2488 154.089 89.9931 150.198 88.5538Z" fill="#FFB27D"/>
<path d="M165.776 47.8658C165.776 47.8658 166.564 44.712 171.181 45.7007C171.181 45.7007 168.967 45.4253 168.366 46.2764C168.366 46.2764 170.118 45.4754 171.219 46.1512C172.32 46.827 172.495 49.0923 172.332 49.7807C172.17 50.469 170.956 52.5215 170.155 52.5215C169.354 52.5215 168.403 51.8206 168.403 51.8206L165.776 47.8658Z" fill="#040404"/>
<path d="M172.696 97.1515C170.394 91.9952 169.293 90.5309 169.255 88.9164C169.23 87.6273 169.856 86.2507 171.082 82.859C171.37 82.058 171.57 81.232 171.695 80.406C172.671 73.8605 168.88 66.7894 166.527 66.3013C165.877 66.1261 164.763 63.7607 164.776 59.9561L164.475 60.0186L159.52 60.9948C159.52 60.9948 159.633 62.5592 159.633 64.0235C159.633 65.25 159.558 66.4014 159.283 66.5516C158.92 66.5892 158.72 66.6017 158.72 66.6017C158.72 66.6017 154.591 72.3337 154.24 77.6777C153.89 83.0092 157.544 85.3245 154.215 95.9875C150.837 106.863 173.96 100.005 172.696 97.1515Z" fill="#FFB27D"/>
<path d="M159.544 60.983C159.544 60.983 159.657 62.5474 159.657 64.0117C162.422 63.9366 163.899 61.4086 164.499 60.0068L159.544 60.983Z" fill="#E8945B"/>
<path d="M165 59.4676C165 59.4676 166.452 57.1773 166.802 55.2124C167.052 53.8107 166.339 48.6168 161.121 49.3678C161.121 49.3678 159.607 49.5179 158.181 50.4816C157.042 51.245 155.416 52.8971 157.243 57.4276L157.718 58.9544L165 59.4676Z" fill="#040404"/>
<path d="M158.618 62.3704C158.618 62.3704 165.175 62.483 165.175 58.3905C165.175 54.298 166.026 51.5697 161.847 51.3319C157.667 51.0941 156.842 52.646 156.516 54.0102C156.179 55.3744 156.904 62.2452 158.618 62.3704Z" fill="#FFB27D"/>
<path d="M158.856 51.2316C158.856 51.2316 160.645 56.0249 163.41 56.7383C166.163 57.4517 167.364 56.7133 167.364 56.7133C167.364 56.7133 165.25 55.0362 164.812 52.1076C164.799 52.0951 160.207 48.9538 158.856 51.2316Z" fill="#040404"/>
<path d="M159.294 51.6205C159.294 51.6205 157.955 52.6843 157.63 53.7356C157.304 54.7744 157.154 56.9145 156.529 56.8394C156.529 56.8394 155.177 53.5854 156.691 51.7332C158.318 49.7933 159.294 51.6205 159.294 51.6205Z" fill="#040404"/>
<path d="M166.889 146.649C165.237 153.207 162.76 158.25 162.76 158.25L160.595 158.1C160.595 158.1 161.659 153.056 161.596 146.236C161.559 141.467 160.958 135.835 159.081 130.454C152.612 111.969 153.663 98.5273 153.663 98.5273L165.825 99.9541L166.388 100.017C166.438 105.611 166.589 113.195 166.714 119.127C166.826 124.459 166.926 128.464 166.926 128.464C169.254 133.495 168.403 140.604 166.889 146.649Z" fill="#151515"/>
<path d="M181.215 102.634L179.251 103.222C179.251 103.222 172.757 92.4464 172.169 89.6429C171.981 88.7293 171.506 86.9021 170.955 84.8621C169.817 80.6194 168.34 75.4381 168.34 75.4381L167.852 73.3355L166.201 66.1768C166.201 66.1768 169.366 66.5022 171.218 67.2781C171.831 67.5284 172.294 67.8413 172.457 68.1917C173.821 71.1829 175.172 78.7296 176.123 84.1112C176.648 87.1148 177.061 89.4427 177.274 89.9308C177.875 91.32 179.676 98.8917 181.215 102.634Z" fill="#FFB27D"/>
<path d="M173.871 145.598C173.171 153.07 170.093 157.888 170.093 157.888L169.054 158.639C169.054 158.639 168.078 153.383 167.39 147.113C166.727 141.168 165.826 134.873 164.8 132.945C160.746 125.323 159.52 96.5508 159.52 96.5508L171.857 95.9375C173.096 98.0276 173.634 101.444 173.771 105.336C174.097 115.161 171.794 127.952 171.444 129.804C171.419 129.942 171.457 130.092 171.519 130.217C173.972 135.11 174.334 140.667 173.871 145.598Z" fill="#2D2D2D"/>
<path d="M159.057 51.7834C159.057 51.7834 160.333 56.8021 163.811 58.404C163.811 58.404 160.333 55.3253 160.045 52.0087C159.745 48.7047 159.057 51.7834 159.057 51.7834Z" fill="#040404"/>
<path d="M142.528 77.8533C142.528 77.6531 142.703 74.7245 142.177 74.1113C141.652 73.498 140.588 72.622 140.25 72.647C139.913 72.672 138.611 74.4117 138.999 75.7508C139.387 77.0899 141.051 78.8921 141.051 78.8921L142.528 77.8533Z" fill="#FFB27D"/>
<path d="M173.871 145.598C173.17 153.069 170.092 157.888 170.092 157.888L169.041 158.851C169.041 158.851 168.078 153.382 167.39 147.125C168.115 147.175 171.331 147.287 173.871 145.598Z" fill="#FFB27D"/>
<path d="M166.89 146.648C165.238 153.206 162.761 158.25 162.761 158.25L160.596 158.1C160.596 158.1 161.659 153.056 161.597 146.235C162.323 146.598 163.837 146.974 166.89 146.648Z" fill="#FFB27D"/>
<path d="M164.002 160.053H162.626C162.163 159.978 161.825 159.84 161.349 159.79C160.624 159.69 160.298 159.99 160.236 160.053C160.223 160.066 160.223 160.066 160.223 160.066H154.355C154.205 159.853 154.355 159.365 154.493 159.002C154.58 158.751 154.793 158.576 155.043 158.501C155.669 158.326 156.895 158.163 158.009 157.149C158.634 156.574 161.062 155.047 161.062 155.047H161.074C161.124 155.047 161.374 155.122 162.476 156.061C163.039 156.536 164.015 155.385 164.015 155.385C164.015 155.385 164.202 155.535 164.327 155.81C164.44 156.036 164.515 156.336 164.452 156.711C164.365 157.237 164.653 158.226 164.878 158.889C165.015 159.29 165.128 159.577 165.128 159.577C165.128 159.577 165.191 159.903 164.002 160.053Z" fill="#040404"/>
<path d="M164.325 155.81C163.999 156.048 163.299 156.499 162.836 156.561C162.21 156.649 161.046 155.047 161.046 155.047H161.059C161.109 155.047 161.359 155.122 162.46 156.061C163.023 156.536 163.999 155.385 163.999 155.385C163.999 155.385 164.187 155.535 164.325 155.81Z" fill="#ABDDDA"/>
<path d="M163.999 160.054H162.622C162.16 159.979 161.822 159.842 161.346 159.792C160.621 159.691 160.295 159.992 160.233 160.054C160.22 160.067 160.22 160.067 160.22 160.067H154.352C154.202 159.854 154.352 159.366 154.489 159.003C154.665 158.84 154.715 159.691 154.815 159.829C154.915 159.967 159.594 159.879 159.87 159.679C160.145 159.479 160.946 159.141 162.084 159.404C163.073 159.641 164.524 159.041 164.875 158.878C165.012 159.278 165.125 159.566 165.125 159.566C165.125 159.566 165.187 159.904 163.999 160.054Z" fill="#ABDDDA"/>
<path d="M171.368 160.053H169.992C169.529 159.978 169.191 159.84 168.715 159.79C167.99 159.69 167.664 159.99 167.602 160.053C167.589 160.066 167.589 160.066 167.589 160.066H161.721C161.571 159.853 161.721 159.365 161.859 159.002C161.946 158.751 162.159 158.576 162.409 158.501C163.035 158.326 164.261 158.163 165.375 157.149C166 156.574 168.428 155.047 168.428 155.047H168.44C168.49 155.047 168.74 155.122 169.841 156.061C170.405 156.536 171.38 155.385 171.38 155.385C171.38 155.385 171.568 155.535 171.693 155.81C171.806 156.036 171.881 156.336 171.818 156.711C171.731 157.237 172.019 158.226 172.244 158.889C172.381 159.29 172.494 159.577 172.494 159.577C172.494 159.577 172.557 159.903 171.368 160.053Z" fill="#040404"/>
<path d="M171.693 155.81C171.368 156.048 170.667 156.499 170.204 156.561C169.579 156.649 168.415 155.047 168.415 155.047H168.428C168.478 155.047 168.728 155.122 169.829 156.061C170.392 156.536 171.368 155.385 171.368 155.385C171.368 155.385 171.556 155.535 171.693 155.81Z" fill="#ABDDDA"/>
<path d="M171.368 160.054H169.991C169.528 159.979 169.191 159.842 168.715 159.792C167.989 159.691 167.664 159.992 167.602 160.054C167.589 160.067 167.589 160.067 167.589 160.067H161.721C161.571 159.854 161.721 159.366 161.858 159.003C162.034 158.84 162.084 159.691 162.184 159.829C162.284 159.967 166.963 159.879 167.239 159.679C167.514 159.479 168.315 159.141 169.453 159.404C170.442 159.641 171.893 159.041 172.244 158.878C172.381 159.278 172.494 159.566 172.494 159.566C172.494 159.566 172.556 159.904 171.368 160.054Z" fill="#ABDDDA"/>
<path d="M177.25 75.2364C174.797 70.9312 174.685 69.2041 172.282 67.7147C169.605 66.4882 167.59 66.3506 167.59 66.3506C167.59 66.3506 166.652 70.4931 166.064 71.0313C165.475 71.5695 156.917 72.458 156.717 71.4693C156.529 70.5307 158.944 66.8762 159.119 66.5508C159.132 66.5383 158.731 66.5759 158.731 66.5759C157.755 66.701 157.067 66.8011 156.567 66.8887C155.904 67.0014 155.578 67.089 155.365 67.2016C154.777 67.3017 151.925 68.1778 148.922 76.3253C148.922 76.3253 151.362 79.3915 153.251 79.9297C153.301 79.9422 153.351 79.9547 153.401 79.9672C153.076 85.4364 151.061 94.5475 151.787 99.8164C152.488 104.885 163.136 103.584 165.25 103.12C166.702 102.795 167.815 101.268 168.616 98.5399C168.879 100.442 169.479 102.682 170.806 102.82C172.983 103.045 173.884 102.67 174.146 101.844C174.222 101.606 174.247 101.268 174.222 100.855C174.121 98.8653 172.745 91.9819 171.431 86.2123C170.868 83.7593 170.092 81.9321 169.805 80.0673C172.445 80.0924 175.998 78.0148 177.25 75.2364Z" fill="#00A9B8"/>
<path d="M139 74.6615C139.062 74.4237 139.375 69.7805 139.5 70.2186C139.638 70.6566 139.95 73.0971 139.95 73.0971L139 74.6615Z" fill="#FFB27D"/>
<path d="M140.351 67.9648L140.538 68.4404L143.341 75.7493L141.99 76.3376L138.261 69.4416L138.011 68.9911L140.351 67.9648Z" fill="#69BEC6"/>
<path d="M140.351 67.9648L140.538 68.4404L138.261 69.4416L138.011 68.9911L140.351 67.9648Z" fill="#00A9B8"/>
<path d="M143.068 75.096L141.637 75.7266L142.157 76.9062L143.588 76.2756L143.068 75.096Z" fill="white"/>
<path d="M139.951 72.8591C139.951 72.8591 141.215 70.9192 141.528 71.0194C141.965 71.1696 140.376 73.6476 140.376 73.6476C140.376 73.6476 141.553 71.8078 141.74 71.9455C142.153 72.2584 141.49 73.4223 140.827 74.3109C140.827 74.3109 142.003 73.2221 142.053 73.4223C142.191 74.1107 140.752 75.7627 140.752 75.7627L139.951 73.9354V72.8591Z" fill="#FFB27D"/>
<path d="M159.895 59.9549C159.895 59.9549 159.782 60.4304 158.581 60.3678C158.581 60.3678 157.58 60.3053 157.605 59.7796C157.605 59.7671 158.581 59.3917 159.895 59.9549Z" fill="white"/>
<path d="M197.119 115.385H168.591C168.315 115.385 168.103 115.16 168.103 114.897C168.103 114.622 168.328 114.409 168.591 114.409H197.119C197.394 114.409 197.607 114.634 197.607 114.897C197.619 115.16 197.394 115.385 197.119 115.385Z" fill="white"/>
<path d="M194.98 120.792H170.844V121.618H194.98V120.792Z" fill="white"/>
<path d="M193.917 126.388H171.983V127.489H193.917V126.388Z" fill="white"/>
<path d="M172.803 127.268L169.399 114.602L168.565 114.826L171.969 127.492L172.803 127.268Z" fill="white"/>
<path d="M183.344 115.385H182.48V126.936H183.344V115.385Z" fill="white"/>
<path d="M177.619 126.972L176.115 115.329L175.259 115.44L176.762 127.083L177.619 126.972Z" fill="white"/>
<path d="M197.31 114.819L196.477 114.595L193.074 127.261L193.907 127.485L197.31 114.819Z" fill="white"/>
<path d="M190.604 115.428L189.748 115.317L188.243 126.959L189.1 127.07L190.604 115.428Z" fill="white"/>
<path d="M168.381 114.985C168.281 114.835 168.331 114.635 168.481 114.535L182.845 105.173C182.995 105.073 183.196 105.123 183.296 105.273C183.396 105.423 183.346 105.624 183.196 105.724L168.831 115.085C168.681 115.173 168.481 115.135 168.381 114.985Z" fill="#00A9B8"/>
<path d="M197.106 114.985C197.207 114.835 197.156 114.635 197.006 114.535L182.642 105.173C182.492 105.073 182.292 105.123 182.192 105.273C182.092 105.423 182.142 105.624 182.292 105.724L196.656 115.085C196.806 115.173 197.006 115.135 197.106 114.985Z" fill="#00A9B8"/>
<path d="M179.513 103.746C179.513 103.746 179.914 105.611 180.389 106.149C180.877 106.7 181.54 107.601 181.816 107.363C182.091 107.125 181.515 105.098 181.515 105.098L179.513 103.746Z" fill="#FFB27D"/>
</svg>
