<svg width="254" height="181" viewBox="0 0 254 181" fill="none" xmlns="http://www.w3.org/2000/svg">
<path d="M235.736 84.8193H54.1982V176.271H235.736V84.8193Z" fill="#00BFCF"/>
<path d="M239.753 176.27H235.153V84.8187H54.78V176.27H50.1804V79.3877H239.753V176.27Z" fill="#69D3E2"/>
<path d="M237.423 125.932H52.4507V131.363H237.423V125.932Z" fill="#69D3E2"/>
<path d="M83.4838 82.0752H78.8843V174.403H83.4838V82.0752Z" fill="#69D3E2"/>
<path d="M166.509 82.0742H161.909V174.402H166.509V82.0742Z" fill="#69D3E2"/>
<path d="M135.593 141.232C135.593 141.232 140.949 142.4 143.685 142.4C146.422 142.4 154.398 138.195 155.97 139.713C157.542 141.29 149.915 143.334 151.545 144.969C153.176 146.604 166.625 147.188 165.344 148.473C164.063 149.758 156.553 149.174 156.553 149.174C156.553 149.174 165.926 150.108 165.926 151.393C165.926 152.678 156.669 151.86 156.669 151.86C156.669 151.86 164.878 153.028 163.714 154.138C162.608 155.247 155.97 154.138 155.97 154.138C155.97 154.138 161.851 155.014 160.337 156.474C159.871 156.941 150.73 156.59 146.655 154.722C142.579 152.853 140.833 150.751 140.076 150.751C139.319 150.751 131.575 149.349 131.575 149.349L135.593 141.232Z" fill="#EF9F79"/>
<path d="M84.0076 75.0068C84.0076 75.0068 90.4121 118.046 99.4366 124.061C108.461 130.076 137.106 138.252 137.106 138.252C137.106 138.252 138.795 148.53 131.983 154.137C131.983 154.137 99.4366 147.713 87.9085 139.537C76.3805 131.361 62.64 82.0146 64.3867 76.8755C66.0169 71.6781 84.0076 75.0068 84.0076 75.0068Z" fill="#F1EDF2"/>
<path d="M91.5772 66.8317C91.3443 66.8317 91.1697 66.7733 91.1697 66.7733L91.4608 65.547C91.519 65.547 92.2759 65.6638 93.2075 64.7878C95.0706 62.9191 97.6324 56.5536 93.9061 34.5959L95.187 34.3623C98.8551 55.9113 96.5844 63.3278 94.0808 65.7806C93.091 66.6565 92.1012 66.8317 91.5772 66.8317Z" fill="#141A2D"/>
<path d="M107.355 38.9749C107.821 33.8358 107.821 28.4048 107.355 23.6745C106.424 13.7468 95.8853 11.4109 95.8853 11.4109C95.8853 11.4109 77.6034 3.11832 69.9763 18.7691C62.3492 34.4198 69.2776 45.1067 68.7536 48.669C68.1714 52.2313 64.387 62.1006 64.387 62.1006L80.7475 70.6852C80.7475 70.6852 82.203 64.203 82.6688 61.283C83.1346 58.4215 86.395 57.7791 86.395 57.7791C92.3919 60.1151 99.2622 61.6334 103.92 53.2241C104.91 51.4721 105.667 49.1362 106.249 46.5083C107.122 46.4499 108.985 46.2747 109.684 45.5739C110.324 44.8731 108.228 40.7268 107.355 38.9749Z" fill="#FFB3BE"/>
<path d="M104.386 49.0791L99.2041 47.6191C99.2041 47.6191 99.3788 52.5246 101.009 52.5246C102.639 52.5246 104.386 49.0791 104.386 49.0791Z" fill="white"/>
<path d="M108.519 7.90748C112.012 7.3235 115.389 9.30904 116.437 12.6961C117.135 15.0321 117.601 17.66 117.194 20.2295C116.146 26.8869 109.043 28.4637 103.337 27.1789C98.6789 26.1278 94.778 22.7407 94.778 22.7407C94.778 22.7407 94.8945 29.3981 91.4594 31.9676C88.0242 34.4787 89.3051 37.6322 87.7331 37.3402C86.1611 37.1066 88.6065 30.7996 84.5891 29.6901C80.63 28.6389 79.6402 35.8803 82.2602 38.2162L81.3869 41.0777C81.3869 41.0777 77.486 46.8008 72.8864 46.976C68.2868 47.1511 66.0162 44.9904 63.3379 35.8803C60.6597 26.8285 59.7281 16.3752 64.677 9.42584C69.626 2.47644 75.7393 5.22116 75.914 4.11159C76.0886 3.00202 82.4349 -2.89621 91.5176 1.77566C97.0487 4.75397 102.172 9.01705 108.519 7.90748Z" fill="#141A2D"/>
<path opacity="0.5" d="M80.2813 48.6689C78.4765 50.8881 82.6102 61.283 82.6102 61.283C83.076 58.4215 86.3364 57.7791 86.3364 57.7791C86.3364 57.7791 78.7676 51.9393 80.2813 48.6689Z" fill="#FFBFC6"/>
<path d="M117.078 20.7553C104.269 25.7191 89.4223 17.485 87.0352 14.7402C86.5112 18.8281 86.453 22.624 81.4459 27.9383C73.2947 36.2308 65.784 31.851 61.4756 27.6463C61.8831 30.4494 62.5236 33.2525 63.2805 35.9388C65.9587 44.9906 68.2876 47.2097 72.829 47.0345C77.4285 46.8593 81.3294 41.1363 81.3294 41.1363L82.2028 38.2748C79.5828 35.9972 80.5725 28.6974 84.5317 29.7486C88.4908 30.8582 86.1037 37.1068 87.6757 37.3988C89.2477 37.6324 87.9085 34.5373 91.4019 32.0261C94.837 29.515 94.7206 22.7992 94.7206 22.7992C94.7206 22.7992 98.6215 26.1863 103.279 27.2375C108.869 28.4638 115.797 27.0039 117.078 20.7553Z" fill="#141A2D"/>
<path d="M121.037 132.705C119.523 132.705 117.951 132.53 116.321 132.18C94.4291 127.683 91.0522 72.7302 90.761 66.5984C84.0073 64.2041 83.2504 37.516 83.1921 34.4209H84.473C84.6477 42.7719 86.2779 64.6128 91.5179 65.4888L92.0419 65.5472V66.0728C92.0419 66.6568 94.8948 126.457 116.612 130.895C132.448 134.165 141.589 120.091 149.566 107.711C152.593 103.039 155.446 98.6591 158.357 95.6808C168.895 85.1107 175.533 84.9355 175.766 84.9355V86.2202C175.707 86.2202 169.361 86.4538 159.231 96.6151C156.378 99.4767 153.583 103.798 150.614 108.412C143.511 119.39 134.894 132.705 121.037 132.705Z" fill="#141A2D"/>
<path d="M83.7743 35.9976C84.6103 35.9976 85.2881 35.3179 85.2881 34.4793C85.2881 33.6407 84.6103 32.9609 83.7743 32.9609C82.9382 32.9609 82.2605 33.6407 82.2605 34.4793C82.2605 35.3179 82.9382 35.9976 83.7743 35.9976Z" fill="white"/>
<path d="M61.3592 60.5843C61.3592 60.5843 76.9628 64.497 88.0833 80.323C97.5153 93.7546 97.69 175.863 97.69 175.863L28.8711 176.271C28.8711 176.271 35.4502 157.35 38.2449 139.364C41.3307 119.8 41.7965 89.6667 46.8036 77.695C54.4889 59.4164 61.3592 60.5843 61.3592 60.5843Z" fill="white"/>
<path d="M71.8975 163.481C65.0272 164.124 57.8077 157.817 57.5166 162.839C57.3419 165.525 55.8863 171.073 55.4206 176.095L97.69 175.862C97.69 175.862 96.7584 95.6224 87.3264 82.1908C83.4837 76.7014 72.7126 71.7959 68.7535 69.46C59.0886 71.5623 56.8179 71.3287 52.8005 78.6869C52.8005 78.6869 49.3654 84.6435 61.5921 103.506C73.8188 122.369 88.1998 133.64 91.3438 139.304C94.4878 144.969 93.5562 154.371 87.2682 155.948C80.9802 157.525 61.9415 136.501 63.1641 142.458C64.3868 148.414 78.7677 162.839 71.8975 163.481Z" fill="#F1EDF2"/>
<path d="M61.3589 60.5836C61.3589 60.5836 69.4518 65.6642 74.5754 75.5336C79.6989 85.4029 77.5447 86.2788 77.5447 86.2788L87.7918 89.2572L79.2332 94.3962L96.8745 145.728C96.8745 145.728 95.4772 100.002 91.6345 87.5636C87.7918 75.1248 65.9585 55.7949 65.9585 55.7949L61.3589 60.5836Z" fill="#F1EDF2"/>
<path d="M129.538 156.589C129.538 156.589 128.199 156.414 130.761 160.735C133.323 165.057 136.409 167.042 137.34 166.517C138.272 166.049 140.135 163.305 138.446 159.859C136.816 156.472 129.538 156.589 129.538 156.589Z" fill="#007B85"/>
<path d="M138.912 164.473C138.912 164.473 135.011 166.4 134.371 166.925C133.73 167.451 132.391 170.079 128.548 172.24C125.171 174.108 122.435 176.269 121.562 175.16C120.63 174.108 124.24 172.006 125.23 171.072C126.219 170.137 126.569 168.561 126.569 168.561C126.569 168.561 124.298 168.385 121.445 169.144C118.592 169.904 115.39 174.692 114.226 174.225C112.421 173.524 117.428 168.035 117.428 168.035C117.428 168.035 112.304 173.174 111.547 172.24C110.732 171.305 115.914 165.874 115.914 165.874C115.914 165.874 118.709 163.188 121.562 162.02C124.415 160.91 127.792 160.735 131.518 159.684C135.244 158.633 139.96 153.669 139.96 153.669C139.96 153.669 147.238 158.224 145.782 160.326C145.142 161.436 138.912 164.473 138.912 164.473Z" fill="#F59297"/>
<path d="M186.481 72.4971C186.481 72.4971 175.476 76.0594 170.935 93.1701C166.394 110.281 163.716 127.275 159.815 132.531C155.914 137.786 129.539 156.532 129.539 156.532C129.539 156.532 133.382 157.759 136.176 160.971C138.913 164.182 137.399 166.46 137.399 166.46C137.399 166.46 168.548 154.196 175.476 140.706C182.405 127.216 187.47 88.6734 187.994 81.1984C188.518 73.7818 186.481 72.4971 186.481 72.4971Z" fill="#00A9B8"/>
<path d="M175.418 140.764C180.6 130.719 184.733 106.659 186.713 92.001C181.764 92.0594 177.339 92.9354 177.339 92.9354C177.339 92.9354 176.932 123.711 172.565 133.113C168.839 141.056 144.094 156.648 136.409 161.32C138.796 164.356 137.34 166.459 137.34 166.459C137.34 166.459 168.489 154.254 175.418 140.764Z" fill="#008692"/>
<path d="M196.029 68.2906C196.029 68.2906 199.464 66.597 200.57 65.5459C201.676 64.4363 201.152 50.9463 201.152 50.9463H218.27C218.27 50.9463 216.756 64.1443 218.27 65.6627C219.783 67.181 221.472 67.0642 221.472 67.0642C221.472 67.0642 224.849 76.9335 213.321 81.1382C201.851 85.3429 193.875 78.1015 193.875 73.488C193.875 68.8746 196.029 68.2906 196.029 68.2906Z" fill="#FFBFC6"/>
<path opacity="0.5" d="M218.269 51.2975C218.269 51.0639 218.327 50.8887 218.327 50.8887H201.21C201.21 50.8887 201.501 59.5316 201.093 63.5611C206.392 62.8019 215.765 60.174 218.269 51.2975Z" fill="#FFBFC6"/>
<path d="M196.028 68.2916C196.028 68.2916 191.487 78.3945 205.285 79.4457C219.084 80.4968 221.471 67.0068 221.471 67.0068C221.471 67.0068 234.804 68.2332 239.986 79.6209C245.168 91.0669 238.414 176.27 238.414 176.27H164.53C164.53 176.27 175.417 148.356 175.417 131.42C175.417 114.485 176.582 87.1542 180.483 76.9929C181.88 73.3723 196.028 68.2916 196.028 68.2916Z" fill="#A3E4E1"/>
<path d="M226.712 94.1044C226.712 94.1044 226.712 113.785 226.712 125.639C226.712 137.494 212.098 140.122 213.263 144.035C214.427 147.948 222.113 150.342 220.424 155.423C218.794 160.503 201.036 160.62 201.036 170.665C201.036 172.533 201.56 174.402 202.55 176.271H238.415C238.415 176.271 243.073 116.997 241.675 90.7173C236.727 89.2573 231.603 90.0165 226.712 94.1044Z" fill="#A3E4E1"/>
<path d="M197.018 67.8247C197.018 67.8247 195.039 66.6568 193.35 69.3431C191.662 72.0294 190.497 80.5556 202.375 81.8987C214.194 83.2419 219.725 77.2269 220.889 75.0661C222.054 72.9054 223.568 69.0511 223.218 67.5327C222.869 66.0144 220.191 66.7152 220.191 66.7152C220.191 66.7152 221.006 78.6868 206.159 78.862C191.254 79.0372 197.018 67.8247 197.018 67.8247Z" fill="white"/>
<path d="M203.073 149.99C203.073 149.99 195.563 150.866 190.905 150.282C186.247 149.698 185.316 149.347 179.377 151.274C173.438 153.201 162.609 160.034 164.938 161.085C167.267 162.078 174.253 157.348 174.253 157.348C174.253 157.348 166.16 163.071 166.975 164.122C167.791 165.173 176.116 159.8 176.116 159.8C176.116 159.8 169.887 165.874 171.808 166.107C173.729 166.341 178.853 161.377 178.853 161.377C178.853 161.377 174.195 166.399 176 166.633C177.805 166.867 181.88 162.37 181.88 162.37C181.88 162.37 187.994 162.136 189.973 160.56C192.011 158.983 193.408 158.341 194.806 158.516C196.261 158.691 205.519 159.333 205.519 159.333L203.073 149.99Z" fill="#F59297"/>
<path d="M231.428 70.3945C231.428 70.3945 241.966 74.2488 247.73 92.2939C253.552 110.573 256.754 148.882 250.466 155.773C244.178 162.664 200.337 162.781 200.337 162.781C200.337 162.781 198.299 154.955 198.008 149.174C198.008 149.174 234.106 143.976 236.027 141.874C237.949 139.772 225.722 96.4986 225.256 86.2205C224.79 75.884 231.428 70.3945 231.428 70.3945Z" fill="#00A9B8"/>
<path d="M237.367 74.5391C237.425 74.9479 237.541 75.3566 237.658 75.7654C237.658 75.7654 246.566 117.929 247.847 133.171C249.128 148.413 247.498 152.91 232.942 155.421C222.462 157.231 206.917 157.056 198.998 156.822C199.639 160.151 200.279 162.721 200.279 162.721C200.279 162.721 244.121 162.604 250.409 155.713C256.697 148.822 253.494 110.512 247.672 92.2338C244.819 83.2404 240.744 77.751 237.367 74.5391Z" fill="#008692"/>
<path d="M198.008 149.465C197.833 149.465 197.717 149.348 197.717 149.173C197.659 148.998 197.833 148.823 197.95 148.823C198.241 148.764 228.749 143.625 235.503 141.815C240.569 140.472 244.411 142.925 246.1 144.443C245.576 143.333 244.469 141.757 242.315 140.589C241.384 140.063 240.976 139.654 241.034 139.304C241.034 139.187 241.093 138.895 241.5 138.778C242.665 138.37 246.333 139.07 247.788 140.53C247.905 140.647 247.905 140.881 247.788 140.997C247.672 141.114 247.439 141.114 247.322 140.997C245.925 139.596 242.315 139.07 241.675 139.421C241.733 139.538 241.966 139.713 242.606 140.122C246.507 142.224 247.206 145.553 247.206 145.669C247.206 145.786 247.148 145.961 247.031 146.02C246.915 146.078 246.74 146.02 246.624 145.961C246.565 145.903 242.199 140.822 235.62 142.574C228.866 144.268 198.357 149.407 198.008 149.465C198.008 149.407 198.008 149.465 198.008 149.465Z" fill="#007B85"/>
<path d="M228.284 103.33C228.168 103.33 227.993 103.213 227.993 103.096C222.346 83.9414 226.072 78.0432 226.246 77.8096C226.363 77.6928 226.538 77.6344 226.712 77.7512C226.829 77.868 226.887 78.0432 226.77 78.2184C226.712 78.2767 223.044 84.175 228.634 102.979C228.692 103.154 228.575 103.33 228.401 103.388C228.342 103.33 228.284 103.33 228.284 103.33Z" fill="#007B85"/>
<path d="M188.052 19.7617C188.052 19.7617 182.579 38.1572 188.867 53.1655C192.593 62.0421 199.696 60.6405 206.275 58.8302C213.495 56.8446 222.053 50.304 226.013 39.0915C230.03 27.879 230.379 15.557 217.745 10.2428C205.111 4.98691 191.079 11.6443 188.052 19.7617Z" fill="#FFBFC6"/>
<path d="M193.525 49.7791L201.094 49.4287C201.094 49.4287 198.183 54.2174 195.621 53.0494C193.059 51.823 193.525 49.7791 193.525 49.7791Z" fill="white"/>
<path d="M211.516 22.5072C211.516 22.5072 201.327 28.5223 189.74 22.8576C189.74 22.8576 186.189 24.668 186.189 29.0478C186.189 32.4933 179.61 23.9672 181.706 15.9666C183.802 7.96605 204.412 2.827 211.69 3.87817C219.026 4.92934 219.9 9.01722 221.18 11.178C221.18 11.178 226.944 11.7619 228.633 18.6529C230.147 24.96 230.438 37.282 223.8 46.5089C222.869 47.7937 220.889 47.3265 220.656 45.8082C220.54 44.9906 220.482 41.9539 221.006 42.0707C223.742 42.5962 227.527 35.9972 225.198 33.3693C221.879 29.6902 219.143 34.3037 219.143 37.282C219.143 40.3771 216.406 34.5957 216.173 31.5006C216.057 28.4639 212.214 28.0551 211.516 22.5072Z" fill="#141A2D"/>
<path d="M185.024 76.4082H181.938V94.9789H185.024C188.459 94.9789 191.195 90.8326 191.195 85.6935C191.195 80.5545 188.4 76.4082 185.024 76.4082Z" fill="#E6DFE8"/>
<path d="M181.938 94.9789C185.347 94.9789 188.11 90.8217 188.11 85.6935C188.11 80.5654 185.347 76.4082 181.938 76.4082C178.53 76.4082 175.767 80.5654 175.767 85.6935C175.767 90.8217 178.53 94.9789 181.938 94.9789Z" fill="#B5AABA"/>
<path d="M180.657 79.5625H176.582V91.7677H180.657C182.928 91.7677 184.733 89.023 184.733 85.6359C184.733 82.3072 182.928 79.5625 180.657 79.5625Z" fill="#E6DFE8"/>
<path d="M176.582 91.8261C178.833 91.8261 180.657 89.0808 180.657 85.6943C180.657 82.3078 178.833 79.5625 176.582 79.5625C174.331 79.5625 172.506 82.3078 172.506 85.6943C172.506 89.0808 174.331 91.8261 176.582 91.8261Z" fill="#B5AABA"/>
<path d="M149.393 95.4462C149.393 95.4462 155.797 94.5118 158.65 92.1175C161.445 89.7232 165.345 83.0073 168.781 81.7226C172.216 80.4378 181.124 76.7587 181.298 78.4523C181.531 80.2042 173.962 83.6497 173.962 83.6497C173.962 83.6497 183.453 80.613 183.045 82.7737C182.637 84.9345 174.195 87.0952 174.195 87.0952C174.195 87.0952 183.918 87.3288 181.997 88.8472C180.076 90.3655 174.428 89.9567 174.428 89.9567C174.428 89.9567 181.531 91.7087 179.843 92.5847C178.096 93.4606 174.021 92.8183 174.021 92.8183C174.021 92.8183 168.198 99.5341 161.503 99.3005L152.653 104.089L149.393 95.4462Z" fill="#EF9F79"/>
<path d="M53.85 74.2475C52.278 77.2843 52.3362 80.9049 53.7918 84.0001C58.9736 94.687 82.8448 123.302 96.7599 124.529C108.812 125.58 155.797 108.235 155.797 108.235C155.797 108.235 157.078 96.2053 150.674 94.5118L99.7293 104.79C99.7293 104.79 76.3821 75.3571 71.5496 70.51C67.7069 66.4806 57.6345 67.1813 53.85 74.2475Z" fill="white"/>
<path d="M149.393 104.556C145.084 106.892 100.719 116.236 96.9342 120.09C94.8382 122.192 95.5368 123.594 96.5848 124.47C96.6431 124.47 96.7595 124.47 96.8177 124.47C108.87 125.521 155.855 108.177 155.855 108.177C155.855 108.177 156.67 100.468 153.701 96.5557C153.41 98.8332 152.478 102.921 149.393 104.556Z" fill="#F1EDF2"/>
<path d="M100.951 137.085H98.6799V131.771C98.6799 130.311 97.5154 129.201 96.1181 129.201H82.1447C80.6892 129.201 79.5829 130.369 79.5829 131.771V137.085H77.3123V131.771C77.3123 129.085 79.4665 126.924 82.1447 126.924H96.1181C98.7963 126.924 100.951 129.085 100.951 131.771V137.085Z" fill="#B5AABA"/>
<path d="M106.365 135.801H57.6914V171.424H106.365V135.801Z" fill="#F1F2F2"/>
<path d="M120.747 135.801H106.424V171.424H120.747V135.801Z" fill="#B5AABA"/>
<path d="M82.0865 165.467C88.614 165.467 93.9056 160.159 93.9056 153.612C93.9056 147.064 88.614 141.757 82.0865 141.757C75.5589 141.757 70.2673 147.064 70.2673 153.612C70.2673 160.159 75.5589 165.467 82.0865 165.467Z" fill="#00DECA"/>
<path d="M85.9881 145.671H78.4192V161.614H85.9881V145.671Z" fill="white"/>
<path d="M90.1225 149.817H74.2278V157.409H90.1225V149.817Z" fill="white"/>
<path d="M40.8652 171.424H25.7856V125.932C25.7856 121.727 29.1625 118.398 33.2963 118.398C37.4883 118.398 40.807 121.786 40.807 125.932V171.424H40.8652Z" fill="#B5AABA"/>
<path d="M43.6016 171.423H28.522V125.931C28.522 121.726 31.8989 118.397 36.0327 118.397C40.2247 118.397 43.5433 121.785 43.5433 125.931V171.423H43.6016Z" fill="#E6DFE8"/>
<path d="M39.1189 122.835H33.2966V171.481H39.1189V122.835Z" fill="white"/>
<path d="M34.693 123.77H34.4019V171.423H34.693V123.77Z" fill="#00657F"/>
<path d="M37.7779 124.821H35.3325V125.113H37.7779V124.821Z" fill="#00657F"/>
<path d="M36.7881 125.697H35.3325V125.989H36.7881V125.697Z" fill="#00657F"/>
<path d="M36.7881 126.572H35.3325V126.864H36.7881V126.572Z" fill="#00657F"/>
<path d="M36.7888 127.449H35.3333V127.741H36.7888V127.449Z" fill="#00657F"/>
<path d="M36.7888 128.324H35.3333V128.616H36.7888V128.324Z" fill="#00657F"/>
<path d="M37.7793 129.2H35.334V129.492H37.7793V129.2Z" fill="#00657F"/>
<path d="M36.7898 130.077H35.3342V130.369H36.7898V130.077Z" fill="#00657F"/>
<path d="M36.7888 130.952H35.3333V131.244H36.7888V130.952Z" fill="#00657F"/>
<path d="M36.7881 131.828H35.3325V132.12H36.7881V131.828Z" fill="#00657F"/>
<path d="M36.7898 132.703H35.3342V132.995H36.7898V132.703Z" fill="#00657F"/>
<path d="M37.7779 133.581H35.3325V133.873H37.7779V133.581Z" fill="#00657F"/>
<path d="M36.7888 134.457H35.3333V134.749H36.7888V134.457Z" fill="#00657F"/>
<path d="M36.7888 135.333H35.3333V135.625H36.7888V135.333Z" fill="#00657F"/>
<path d="M36.7881 136.209H35.3325V136.501H36.7881V136.209Z" fill="#00657F"/>
<path d="M36.7888 137.085H35.3333V137.377H36.7888V137.085Z" fill="#00657F"/>
<path d="M37.7793 137.96H35.334V138.252H37.7793V137.96Z" fill="#00657F"/>
<path d="M36.7881 138.837H35.3325V139.129H36.7881V138.837Z" fill="#00657F"/>
<path d="M36.7898 139.712H35.3342V140.004H36.7898V139.712Z" fill="#00657F"/>
<path d="M36.7898 140.588H35.3342V140.88H36.7898V140.588Z" fill="#00657F"/>
<path d="M36.7898 141.463H35.3342V141.755H36.7898V141.463Z" fill="#00657F"/>
<path d="M37.7788 142.341H35.3335V142.633H37.7788V142.341Z" fill="#00657F"/>
<path d="M36.7898 143.217H35.3342V143.509H36.7898V143.217Z" fill="#00657F"/>
<path d="M36.7888 144.093H35.3333V144.385H36.7888V144.093Z" fill="#00657F"/>
<path d="M36.7898 144.969H35.3342V145.261H36.7898V144.969Z" fill="#00657F"/>
<path d="M36.7898 145.845H35.3342V146.137H36.7898V145.845Z" fill="#00657F"/>
<path d="M37.7793 146.72H35.334V147.012H37.7793V146.72Z" fill="#00657F"/>
<path d="M36.7898 147.597H35.3342V147.889H36.7898V147.597Z" fill="#00657F"/>
<path d="M36.7898 148.472H35.3342V148.764H36.7898V148.472Z" fill="#00657F"/>
<path d="M36.7881 149.348H35.3325V149.64H36.7881V149.348Z" fill="#00657F"/>
<path d="M36.7898 150.223H35.3342V150.515H36.7898V150.223Z" fill="#00657F"/>
<path d="M37.7788 151.1H35.3335V151.392H37.7788V151.1Z" fill="#00657F"/>
<path d="M36.7888 151.976H35.3333V152.268H36.7888V151.976Z" fill="#00657F"/>
<path d="M36.7898 152.852H35.3342V153.144H36.7898V152.852Z" fill="#00657F"/>
<path d="M36.7898 153.728H35.3342V154.019H36.7898V153.728Z" fill="#00657F"/>
<path d="M36.7898 154.603H35.3342V154.895H36.7898V154.603Z" fill="#00657F"/>
<path d="M37.7779 155.479H35.3325V155.772H37.7779V155.479Z" fill="#00657F"/>
<path d="M36.7881 156.356H35.3325V156.648H36.7881V156.356Z" fill="#00657F"/>
<path d="M36.7881 157.231H35.3325V157.523H36.7881V157.231Z" fill="#00657F"/>
<path d="M36.7881 158.108H35.3325V158.4H36.7881V158.108Z" fill="#00657F"/>
<path d="M36.7881 158.983H35.3325V159.275H36.7881V158.983Z" fill="#00657F"/>
<path d="M37.7779 159.918H35.3325V160.21H37.7779V159.918Z" fill="#00657F"/>
<path d="M36.7881 160.735H35.3325V161.027H36.7881V160.735Z" fill="#00657F"/>
<path d="M36.7881 161.612H35.3325V161.904H36.7881V161.612Z" fill="#00657F"/>
<path d="M36.7881 162.487H35.3325V162.779H36.7881V162.487Z" fill="#00657F"/>
<path d="M36.7881 163.363H35.3325V163.655H36.7881V163.363Z" fill="#00657F"/>
<path d="M37.7779 164.297H35.3325V164.589H37.7779V164.297Z" fill="#00657F"/>
<path d="M36.7881 165.114H35.3325V165.406H36.7881V165.114Z" fill="#00657F"/>
<path d="M36.7881 165.99H35.3325V166.282H36.7881V165.99Z" fill="#00657F"/>
<path d="M36.7881 166.867H35.3325V167.159H36.7881V166.867Z" fill="#00657F"/>
<path d="M36.7881 167.742H35.3325V168.034H36.7881V167.742Z" fill="#00657F"/>
<path d="M68.4044 165.467H25.7856V171.423H68.4044V165.467Z" fill="#00BFCF"/>
<path d="M59.904 165.467H25.7856V171.423H59.904V165.467Z" fill="#69D3E2"/>
<path d="M246.974 171H-2.97528C-5.79402 171 -8 173.256 -8 176C-8 178.805 -5.73275 181 -2.97528 181H246.974C249.793 181 251.999 178.744 251.999 176C252.06 173.256 249.793 171 246.974 171Z" fill="#DADADA"/>
</svg>
