<svg width="59" height="60" viewBox="0 0 59 60" fill="none" xmlns="http://www.w3.org/2000/svg">
<path d="M35.3005 7.7476C33.8283 7.7476 32.6788 6.5468 32.6788 5.12593C32.6788 3.58013 34.0248 2.36421 35.5587 2.51737C36.9214 2.66268 37.9222 3.78802 37.9222 5.12593C37.9222 6.54739 36.7733 7.7476 35.3005 7.7476Z" fill="#C185B1"/>
<path d="M52.9535 33.2422H52.9548C53.0911 31.8015 54.3705 30.7438 55.8124 30.88C57.2531 31.0163 58.3109 32.2958 58.1746 33.7377C58.0448 35.0943 56.903 36.1115 55.5672 36.1115C54.0106 36.1116 52.8086 34.7753 52.9535 33.2422Z" fill="#8A236D"/>
<path d="M52.2496 24.744C51.8746 23.3453 52.7044 21.9086 54.1032 21.5337C55.5018 21.1588 56.9399 21.9886 57.3148 23.3873C57.6898 24.7859 56.8587 26.2239 55.4612 26.5989C55.2331 26.6592 55.005 26.6879 54.7809 26.6879C53.6221 26.6879 52.5629 25.9159 52.2496 24.744Z" fill="#8A236D"/>
<path d="M48.6081 17.0455C47.7653 15.867 48.0367 14.2297 49.2137 13.3869C50.391 12.5454 52.0281 12.8154 52.871 13.9938C53.7138 15.1708 53.4424 16.8082 52.2654 17.651C51.8026 17.9813 51.2704 18.1413 50.7422 18.1413C49.9242 18.1413 49.1194 17.7598 48.6081 17.0455Z" fill="#A8488D"/>
<path d="M41.7865 7.46061C42.5953 6.25981 44.2247 5.94388 45.4254 6.75269C46.626 7.5628 46.9432 9.19226 46.1332 10.3915C45.6273 11.1427 44.8001 11.5477 43.9573 11.5477C41.8754 11.5477 40.6079 9.20726 41.7865 7.46061Z" fill="#C185B1"/>
<path d="M52.9994 45.2193C51.5568 45.2193 50.3777 44.0458 50.3777 42.5977C50.3777 41.0488 51.7215 39.8368 53.2576 39.989C54.6441 40.1413 55.621 41.277 55.621 42.5977C55.621 44.0101 54.4756 45.2193 52.9994 45.2193Z" fill="#64184F"/>
<path d="M49.5769 47.5998C48.5358 46.7437 47.0157 46.8173 46.0613 47.7691C41.7584 52.0603 35.9639 54.5748 29.8342 54.746C16.6483 55.1143 5.6211 44.6864 5.25278 31.5004C4.99111 22.1343 10.2293 13.5952 18.3677 9.47773L19.2102 12.9315C19.4046 13.7289 20.3982 14.0039 20.975 13.4201L28.9958 5.301C29.5446 4.74554 29.3155 3.80664 28.5726 3.5663L17.7142 0.0523649C16.9334 -0.200287 16.178 0.501303 16.3725 1.29864L17.098 4.27293C6.55226 9.06395 -0.319048 19.8142 0.0114158 31.6468C0.461526 47.7605 13.8655 60.4375 29.9806 59.9872C37.4527 59.7785 44.5161 56.7141 49.7611 51.4845C50.8597 50.3891 50.7752 48.5851 49.5769 47.5998Z" fill="#64184F"/>
<path d="M55.5118 30.8693C55.7654 31.3194 55.8895 31.8486 55.8372 32.402C55.709 33.742 54.593 34.749 53.2784 34.7736C53.7249 35.5664 54.5736 36.1116 55.5674 36.1116C56.9032 36.1116 58.045 35.0944 58.1748 33.7378C58.3214 32.1868 57.0893 30.8387 55.5118 30.8693Z" fill="#8A236E"/>
<path d="M57.3148 23.3873C56.996 22.1981 55.9087 21.4207 54.7304 21.4448C55.6981 23.1677 54.482 25.3106 52.4962 25.3506C52.9584 26.1748 53.8365 26.688 54.7809 26.688C55.005 26.688 55.2331 26.6592 55.4612 26.5989C56.8586 26.2239 57.6897 24.786 57.3148 23.3873Z" fill="#8A236D"/>
<path d="M45.4255 6.75267C44.9592 6.43861 44.4282 6.29611 43.9058 6.30724C44.3753 7.14395 44.3691 8.20706 43.7957 9.05572C43.3016 9.7893 42.5009 10.1917 41.6787 10.2101C42.1163 10.9868 42.9388 11.5477 43.9573 11.5477C44.8001 11.5477 45.6273 11.1427 46.1332 10.3915C46.9434 9.19224 46.6262 7.56277 45.4255 6.75267Z" fill="#C185B1"/>
<path d="M53.2578 39.989C53.1527 39.9786 53.0487 39.9752 52.9458 39.9772C53.1615 40.3602 53.2836 40.799 53.2836 41.2619C53.2836 42.6572 52.1654 43.8533 50.7153 43.8821C51.166 44.6801 52.022 45.2192 52.9995 45.2192C54.4756 45.2192 55.6212 44.01 55.6212 42.5976C55.6212 41.277 54.6441 40.1415 53.2578 39.989Z" fill="#64184F"/>
<path d="M49.5768 47.5997C49.0562 47.1717 48.4159 46.9761 47.7864 47.0066C48.387 48.008 48.2662 49.338 47.3871 50.2146C42.1421 55.4444 35.0787 58.5087 27.6066 58.7174C22.8294 58.8509 18.2905 57.8305 14.2566 55.9092C18.8457 58.6416 24.2407 60.1476 29.9805 59.9873C37.4526 59.7786 44.5159 56.7142 49.7609 51.4846C50.8597 50.3891 50.7752 48.585 49.5768 47.5997Z" fill="#64184F"/>
</svg>
