<svg width="44" height="42" viewBox="0 0 44 42" fill="none" xmlns="http://www.w3.org/2000/svg">
<path d="M20.1534 1.43986C20.8365 -0.202728 23.1635 -0.202728 23.8466 1.43986L28.408 12.4066C28.696 13.0991 29.3472 13.5722 30.0948 13.6321L41.9343 14.5813C43.7076 14.7235 44.4266 16.9365 43.0756 18.0938L34.0551 25.8208C33.4855 26.3087 33.2368 27.0742 33.4108 27.8038L36.1667 39.3571C36.5795 41.0875 34.697 42.4553 33.1788 41.528L23.0425 35.3368C22.4025 34.9458 21.5975 34.9458 20.9575 35.3368L10.8212 41.528C9.30303 42.4553 7.42053 41.0875 7.8333 39.3571L10.5892 27.8038C10.7632 27.0742 10.5145 26.3087 9.94489 25.8208L0.924443 18.0938C-0.426631 16.9365 0.29242 14.7235 2.06573 14.5813L13.9052 13.6321C14.6528 13.5722 15.304 13.099 15.592 12.4066L20.1534 1.43986Z" fill="#F2C94C"/>
</svg>
